%TF.GenerationSoftware,KiCad,Pcbnew,(6.0.1)*%
%TF.CreationDate,2022-01-27T16:39:23-05:00*%
%TF.ProjectId,MAX_86916,4d41585f-3836-4393-9136-2e6b69636164,rev?*%
%TF.SameCoordinates,Original*%
%TF.FileFunction,Copper,L1,Top*%
%TF.FilePolarity,Positive*%
%FSLAX46Y46*%
G04 Gerber Fmt 4.6, Leading zero omitted, Abs format (unit mm)*
G04 Created by KiCad (PCBNEW (6.0.1)) date 2022-01-27 16:39:23*
%MOMM*%
%LPD*%
G01*
G04 APERTURE LIST*
G04 Aperture macros list*
%AMRoundRect*
0 Rectangle with rounded corners*
0 $1 Rounding radius*
0 $2 $3 $4 $5 $6 $7 $8 $9 X,Y pos of 4 corners*
0 Add a 4 corners polygon primitive as box body*
4,1,4,$2,$3,$4,$5,$6,$7,$8,$9,$2,$3,0*
0 Add four circle primitives for the rounded corners*
1,1,$1+$1,$2,$3*
1,1,$1+$1,$4,$5*
1,1,$1+$1,$6,$7*
1,1,$1+$1,$8,$9*
0 Add four rect primitives between the rounded corners*
20,1,$1+$1,$2,$3,$4,$5,0*
20,1,$1+$1,$4,$5,$6,$7,0*
20,1,$1+$1,$6,$7,$8,$9,0*
20,1,$1+$1,$8,$9,$2,$3,0*%
G04 Aperture macros list end*
%TA.AperFunction,ComponentPad*%
%ADD10R,1.700000X1.700000*%
%TD*%
%TA.AperFunction,ComponentPad*%
%ADD11O,1.700000X1.700000*%
%TD*%
%TA.AperFunction,SMDPad,CuDef*%
%ADD12RoundRect,0.250000X0.262500X0.450000X-0.262500X0.450000X-0.262500X-0.450000X0.262500X-0.450000X0*%
%TD*%
%TA.AperFunction,SMDPad,CuDef*%
%ADD13RoundRect,0.250000X-0.337500X-0.475000X0.337500X-0.475000X0.337500X0.475000X-0.337500X0.475000X0*%
%TD*%
%TA.AperFunction,SMDPad,CuDef*%
%ADD14R,0.400000X1.650000*%
%TD*%
%TA.AperFunction,ComponentPad*%
%ADD15O,1.350000X1.700000*%
%TD*%
%TA.AperFunction,ComponentPad*%
%ADD16O,1.100000X1.500000*%
%TD*%
%TA.AperFunction,SMDPad,CuDef*%
%ADD17R,1.350000X2.000000*%
%TD*%
%TA.AperFunction,SMDPad,CuDef*%
%ADD18R,1.430000X2.500000*%
%TD*%
%TA.AperFunction,SMDPad,CuDef*%
%ADD19R,1.825000X0.700000*%
%TD*%
%TA.AperFunction,SMDPad,CuDef*%
%ADD20R,2.000000X1.500000*%
%TD*%
%TA.AperFunction,SMDPad,CuDef*%
%ADD21RoundRect,0.250000X0.337500X0.475000X-0.337500X0.475000X-0.337500X-0.475000X0.337500X-0.475000X0*%
%TD*%
%TA.AperFunction,SMDPad,CuDef*%
%ADD22RoundRect,0.250000X-0.475000X0.337500X-0.475000X-0.337500X0.475000X-0.337500X0.475000X0.337500X0*%
%TD*%
%TA.AperFunction,SMDPad,CuDef*%
%ADD23RoundRect,0.150000X-0.150000X0.512500X-0.150000X-0.512500X0.150000X-0.512500X0.150000X0.512500X0*%
%TD*%
%TA.AperFunction,SMDPad,CuDef*%
%ADD24R,1.400000X1.200000*%
%TD*%
%TA.AperFunction,SMDPad,CuDef*%
%ADD25R,1.475000X0.600000*%
%TD*%
%TA.AperFunction,SMDPad,CuDef*%
%ADD26R,0.600000X1.475000*%
%TD*%
%TA.AperFunction,SMDPad,CuDef*%
%ADD27RoundRect,0.250000X0.450000X-0.262500X0.450000X0.262500X-0.450000X0.262500X-0.450000X-0.262500X0*%
%TD*%
%TA.AperFunction,SMDPad,CuDef*%
%ADD28R,0.600000X1.150000*%
%TD*%
%TA.AperFunction,SMDPad,CuDef*%
%ADD29RoundRect,0.250000X-0.450000X0.262500X-0.450000X-0.262500X0.450000X-0.262500X0.450000X0.262500X0*%
%TD*%
%TA.AperFunction,SMDPad,CuDef*%
%ADD30R,0.550000X0.750000*%
%TD*%
%TA.AperFunction,SMDPad,CuDef*%
%ADD31RoundRect,0.250000X0.475000X-0.337500X0.475000X0.337500X-0.475000X0.337500X-0.475000X-0.337500X0*%
%TD*%
%TA.AperFunction,ViaPad*%
%ADD32C,0.800000*%
%TD*%
%TA.AperFunction,Conductor*%
%ADD33C,0.300000*%
%TD*%
%TA.AperFunction,Conductor*%
%ADD34C,0.200000*%
%TD*%
G04 APERTURE END LIST*
D10*
%TO.P,J2,1,Pin_1*%
%TO.N,PA0*%
X57787500Y-111400000D03*
D11*
%TO.P,J2,2,Pin_2*%
%TO.N,PA1*%
X57787500Y-113940000D03*
%TO.P,J2,3,Pin_3*%
%TO.N,PA2*%
X57787500Y-116480000D03*
%TO.P,J2,4,Pin_4*%
%TO.N,PA3*%
X57787500Y-119020000D03*
%TD*%
D12*
%TO.P,R5,1*%
%TO.N,Net-(IC2-Pad31)*%
X66100000Y-103200000D03*
%TO.P,R5,2*%
%TO.N,GND*%
X64275000Y-103200000D03*
%TD*%
D13*
%TO.P,C4,1*%
%TO.N,+3V0*%
X75200000Y-114300000D03*
%TO.P,C4,2*%
%TO.N,GND*%
X77275000Y-114300000D03*
%TD*%
D10*
%TO.P,J4,1,Pin_1*%
%TO.N,PA4*%
X61912500Y-122000000D03*
D11*
%TO.P,J4,2,Pin_2*%
%TO.N,PA5*%
X64452500Y-122000000D03*
%TO.P,J4,3,Pin_3*%
%TO.N,PA6*%
X66992500Y-122000000D03*
%TO.P,J4,4,Pin_4*%
%TO.N,PA7*%
X69532500Y-122000000D03*
%TO.P,J4,5,Pin_5*%
%TO.N,PB0*%
X72072500Y-122000000D03*
%TD*%
D14*
%TO.P,J6,1,VBUS*%
%TO.N,+5V*%
X94475000Y-118735000D03*
%TO.P,J6,2,D-*%
%TO.N,USB_DM*%
X95125000Y-118735000D03*
%TO.P,J6,3,D+*%
%TO.N,USB_DP*%
X95775000Y-118735000D03*
%TO.P,J6,4,ID*%
%TO.N,unconnected-(J6-Pad4)*%
X96425000Y-118735000D03*
%TO.P,J6,5,GND*%
%TO.N,GND*%
X97075000Y-118735000D03*
D15*
%TO.P,J6,6,Shield*%
%TO.N,Net-(C12-Pad1)*%
X93045000Y-121615000D03*
D16*
X98195000Y-118615000D03*
D17*
X93045000Y-120685000D03*
D18*
X94815000Y-121885000D03*
D19*
X92825000Y-119935000D03*
D18*
X96735000Y-121885000D03*
D19*
X98775000Y-119935000D03*
D15*
X98505000Y-121615000D03*
D17*
X98525000Y-120685000D03*
D20*
X98675000Y-118615000D03*
D16*
X93355000Y-118615000D03*
D20*
X92925000Y-118635000D03*
%TD*%
D21*
%TO.P,C12,1*%
%TO.N,Net-(C12-Pad1)*%
X99037500Y-115000000D03*
%TO.P,C12,2*%
%TO.N,GND*%
X96962500Y-115000000D03*
%TD*%
D22*
%TO.P,C11,1*%
%TO.N,+5V*%
X89700000Y-116362500D03*
%TO.P,C11,2*%
%TO.N,GND*%
X89700000Y-118437500D03*
%TD*%
D23*
%TO.P,D1,1,TVS1*%
%TO.N,USB_DM*%
X94350000Y-112762500D03*
%TO.P,D1,2,COM*%
%TO.N,GND*%
X93400000Y-112762500D03*
%TO.P,D1,3,TVS2*%
%TO.N,USB_DP*%
X92450000Y-112762500D03*
%TO.P,D1,4,TVS3*%
%TO.N,+5V*%
X92450000Y-115037500D03*
%TO.P,D1,5,COM*%
%TO.N,GND*%
X93400000Y-115037500D03*
%TO.P,D1,6,TVS4*%
%TO.N,unconnected-(D1-Pad6)*%
X94350000Y-115037500D03*
%TD*%
D24*
%TO.P,Y1,1,1*%
%TO.N,Net-(C6-Pad1)*%
X57400000Y-106750000D03*
%TO.P,Y1,2,2*%
%TO.N,unconnected-(Y1-Pad2)*%
X59600000Y-106750000D03*
%TO.P,Y1,3,3*%
%TO.N,OSC0*%
X59600000Y-105050000D03*
%TO.P,Y1,4,4*%
%TO.N,unconnected-(Y1-Pad4)*%
X57400000Y-105050000D03*
%TD*%
D22*
%TO.P,C9,1*%
%TO.N,+1V8*%
X87300000Y-120862500D03*
%TO.P,C9,2*%
%TO.N,GND*%
X87300000Y-122937500D03*
%TD*%
D25*
%TO.P,IC2,1,VDD_1*%
%TO.N,+3V0*%
X64249500Y-108600000D03*
%TO.P,IC2,2,PF0-OSC_IN*%
%TO.N,OSC0*%
X64249500Y-109400000D03*
%TO.P,IC2,3,PF1-OSC_OUT*%
%TO.N,OSC1*%
X64249500Y-110200000D03*
%TO.P,IC2,4,PG10-NRST*%
%TO.N,NRST*%
X64249500Y-111000000D03*
%TO.P,IC2,5,PA0*%
%TO.N,PA0*%
X64249500Y-111800000D03*
%TO.P,IC2,6,PA1*%
%TO.N,PA1*%
X64249500Y-112600000D03*
%TO.P,IC2,7,PA2*%
%TO.N,PA2*%
X64249500Y-113400000D03*
%TO.P,IC2,8,PA3*%
%TO.N,PA3*%
X64249500Y-114200000D03*
D26*
%TO.P,IC2,9,PA4*%
%TO.N,PA4*%
X65687500Y-115638000D03*
%TO.P,IC2,10,PA5*%
%TO.N,PA5*%
X66487500Y-115638000D03*
%TO.P,IC2,11,PA6*%
%TO.N,PA6*%
X67287500Y-115638000D03*
%TO.P,IC2,12,PA7*%
%TO.N,PA7*%
X68087500Y-115638000D03*
%TO.P,IC2,13,PB0*%
%TO.N,PB0*%
X68887500Y-115638000D03*
%TO.P,IC2,14,VSSA*%
%TO.N,GND*%
X69687500Y-115638000D03*
%TO.P,IC2,15,VDDA*%
%TO.N,+3V0*%
X70487500Y-115638000D03*
%TO.P,IC2,16,VSS_1*%
%TO.N,GND*%
X71287500Y-115638000D03*
D25*
%TO.P,IC2,17,VDD_2*%
%TO.N,+3V0*%
X72725500Y-114200000D03*
%TO.P,IC2,18,PA8*%
%TO.N,SDA*%
X72725500Y-113400000D03*
%TO.P,IC2,19,PA9*%
%TO.N,SCL*%
X72725500Y-112600000D03*
%TO.P,IC2,20,PA10*%
%TO.N,INTB*%
X72725500Y-111800000D03*
%TO.P,IC2,21,PA11*%
%TO.N,USB_DM*%
X72725500Y-111000000D03*
%TO.P,IC2,22,PA12*%
%TO.N,USB_DP*%
X72725500Y-110200000D03*
%TO.P,IC2,23,PA13*%
%TO.N,SWDIO*%
X72725500Y-109400000D03*
%TO.P,IC2,24,PA14*%
%TO.N,SWCLK*%
X72725500Y-108600000D03*
D26*
%TO.P,IC2,25,PA15*%
%TO.N,PA15*%
X71287500Y-107162000D03*
%TO.P,IC2,26,PB3*%
%TO.N,PB3*%
X70487500Y-107162000D03*
%TO.P,IC2,27,PB4*%
%TO.N,PB4*%
X69687500Y-107162000D03*
%TO.P,IC2,28,PB5*%
%TO.N,PB5*%
X68887500Y-107162000D03*
%TO.P,IC2,29,PB6*%
%TO.N,PB6*%
X68087500Y-107162000D03*
%TO.P,IC2,30,PB7*%
%TO.N,PB7*%
X67287500Y-107162000D03*
%TO.P,IC2,31,PB8-BOOT0*%
%TO.N,Net-(IC2-Pad31)*%
X66487500Y-107162000D03*
%TO.P,IC2,32,VSS_2*%
%TO.N,GND*%
X65687500Y-107162000D03*
%TD*%
D27*
%TO.P,R2,1*%
%TO.N,INTB*%
X82500000Y-107012500D03*
%TO.P,R2,2*%
%TO.N,+3V0*%
X82500000Y-105187500D03*
%TD*%
%TO.P,R3,1*%
%TO.N,SDA*%
X84500000Y-107012500D03*
%TO.P,R3,2*%
%TO.N,+3V0*%
X84500000Y-105187500D03*
%TD*%
D28*
%TO.P,IC4,1,IN*%
%TO.N,+5V*%
X87750000Y-116350000D03*
%TO.P,IC4,2,GND*%
%TO.N,GND*%
X86800000Y-116350000D03*
%TO.P,IC4,3,EN*%
%TO.N,+5V*%
X85850000Y-116350000D03*
%TO.P,IC4,4,NC*%
%TO.N,unconnected-(IC4-Pad4)*%
X85850000Y-118850000D03*
%TO.P,IC4,5,OUT*%
%TO.N,+1V8*%
X87750000Y-118850000D03*
%TD*%
D29*
%TO.P,R6,1*%
%TO.N,Net-(C6-Pad1)*%
X60700000Y-109287500D03*
%TO.P,R6,2*%
%TO.N,OSC1*%
X60700000Y-111112500D03*
%TD*%
D10*
%TO.P,J5,1,Pin_1*%
%TO.N,SCL*%
X91225000Y-101500000D03*
D11*
%TO.P,J5,2,Pin_2*%
%TO.N,SDA*%
X88685000Y-101500000D03*
%TO.P,J5,3,Pin_3*%
%TO.N,INTB*%
X86145000Y-101500000D03*
%TD*%
D22*
%TO.P,C2,1*%
%TO.N,GND*%
X88600000Y-104862500D03*
%TO.P,C2,2*%
%TO.N,Net-(C2-Pad2)*%
X88600000Y-106937500D03*
%TD*%
D30*
%TO.P,IC1,1,N.C._1*%
%TO.N,unconnected-(IC1-Pad1)*%
X83087500Y-112325000D03*
%TO.P,IC1,2,VLED_1*%
%TO.N,+5V*%
X84087500Y-112325000D03*
%TO.P,IC1,3,PGND*%
%TO.N,GND*%
X85087500Y-112325000D03*
%TO.P,IC1,4,VLED_2*%
%TO.N,+5V*%
X86087500Y-112325000D03*
%TO.P,IC1,5,GND*%
%TO.N,GND*%
X87087500Y-112325000D03*
%TO.P,IC1,6,VDD*%
%TO.N,+1V8*%
X88087500Y-112325000D03*
%TO.P,IC1,7,N.C._2*%
%TO.N,unconnected-(IC1-Pad7)*%
X89087500Y-112325000D03*
%TO.P,IC1,8,VREF*%
%TO.N,Net-(C2-Pad2)*%
X89087500Y-109725000D03*
%TO.P,IC1,9,SCL*%
%TO.N,SCL*%
X88087500Y-109725000D03*
%TO.P,IC1,10,SDA*%
%TO.N,SDA*%
X87087500Y-109725000D03*
%TO.P,IC1,11,INTB*%
%TO.N,INTB*%
X86087500Y-109725000D03*
%TO.P,IC1,12,N.C._3*%
%TO.N,unconnected-(IC1-Pad12)*%
X85087500Y-109725000D03*
%TO.P,IC1,13,N.C._4*%
%TO.N,unconnected-(IC1-Pad13)*%
X84087500Y-109725000D03*
%TO.P,IC1,14,N.C._5*%
%TO.N,unconnected-(IC1-Pad14)*%
X83087500Y-109725000D03*
%TD*%
D10*
%TO.P,J1,1,Pin_1*%
%TO.N,SWDIO*%
X75700000Y-122000000D03*
D11*
%TO.P,J1,2,Pin_2*%
%TO.N,SWCLK*%
X78240000Y-122000000D03*
%TO.P,J1,3,Pin_3*%
%TO.N,Net-(J1-Pad3)*%
X80780000Y-122000000D03*
%TO.P,J1,4,Pin_4*%
%TO.N,GND*%
X83320000Y-122000000D03*
%TD*%
D27*
%TO.P,R4,1*%
%TO.N,SCL*%
X86500000Y-107012500D03*
%TO.P,R4,2*%
%TO.N,+3V0*%
X86500000Y-105187500D03*
%TD*%
D31*
%TO.P,C1,1*%
%TO.N,+5V*%
X83700000Y-118437500D03*
%TO.P,C1,2*%
%TO.N,GND*%
X83700000Y-116362500D03*
%TD*%
D12*
%TO.P,R7,1*%
%TO.N,Net-(C12-Pad1)*%
X99112500Y-112700000D03*
%TO.P,R7,2*%
%TO.N,GND*%
X97287500Y-112700000D03*
%TD*%
D22*
%TO.P,C7,1*%
%TO.N,GND*%
X59600000Y-100725000D03*
%TO.P,C7,2*%
%TO.N,OSC0*%
X59600000Y-102800000D03*
%TD*%
D28*
%TO.P,IC3,1,IN*%
%TO.N,+5V*%
X77537500Y-118850000D03*
%TO.P,IC3,2,GND*%
%TO.N,GND*%
X78487500Y-118850000D03*
%TO.P,IC3,3,EN*%
%TO.N,+5V*%
X79437500Y-118850000D03*
%TO.P,IC3,4,NC*%
%TO.N,unconnected-(IC3-Pad4)*%
X79437500Y-116350000D03*
%TO.P,IC3,5,OUT*%
%TO.N,+3V0*%
X77537500Y-116350000D03*
%TD*%
D31*
%TO.P,C6,1*%
%TO.N,Net-(C6-Pad1)*%
X57300000Y-102837500D03*
%TO.P,C6,2*%
%TO.N,GND*%
X57300000Y-100762500D03*
%TD*%
%TO.P,C5,1*%
%TO.N,+3V0*%
X62000000Y-106537500D03*
%TO.P,C5,2*%
%TO.N,GND*%
X62000000Y-104462500D03*
%TD*%
D21*
%TO.P,C8,1*%
%TO.N,+3V0*%
X71937500Y-118200000D03*
%TO.P,C8,2*%
%TO.N,GND*%
X69862500Y-118200000D03*
%TD*%
D22*
%TO.P,C3,1*%
%TO.N,+3V0*%
X75300000Y-116662500D03*
%TO.P,C3,2*%
%TO.N,GND*%
X75300000Y-118737500D03*
%TD*%
D10*
%TO.P,J3,1,Pin_1*%
%TO.N,PB7*%
X69850000Y-101500000D03*
D11*
%TO.P,J3,2,Pin_2*%
%TO.N,PB6*%
X72390000Y-101500000D03*
%TO.P,J3,3,Pin_3*%
%TO.N,PB5*%
X74930000Y-101500000D03*
%TO.P,J3,4,Pin_4*%
%TO.N,PB4*%
X77470000Y-101500000D03*
%TO.P,J3,5,Pin_5*%
%TO.N,PB3*%
X80010000Y-101500000D03*
%TO.P,J3,6,Pin_6*%
%TO.N,PA15*%
X82550000Y-101500000D03*
%TD*%
D31*
%TO.P,C10,1*%
%TO.N,+5V*%
X81400000Y-118437500D03*
%TO.P,C10,2*%
%TO.N,GND*%
X81400000Y-116362500D03*
%TD*%
D12*
%TO.P,R1,1*%
%TO.N,NRST*%
X76912500Y-108000000D03*
%TO.P,R1,2*%
%TO.N,Net-(J1-Pad3)*%
X75087500Y-108000000D03*
%TD*%
D32*
%TO.N,GND*%
X93200000Y-111299500D03*
X92400000Y-104900000D03*
X86100000Y-114100000D03*
X78500000Y-114300000D03*
X94700500Y-116400000D03*
X97100000Y-116900000D03*
X62100000Y-102200000D03*
%TO.N,+1V8*%
X88800000Y-114100000D03*
X88800000Y-120900000D03*
%TO.N,+3V0*%
X78300000Y-109500500D03*
X76550000Y-116350000D03*
%TO.N,SCL*%
X88100000Y-108400000D03*
X81800000Y-112100000D03*
%TO.N,SDA*%
X79500000Y-112800000D03*
X80100000Y-109300000D03*
%TO.N,INTB*%
X79272385Y-111326635D03*
X81244622Y-107144622D03*
%TO.N,NRST*%
X66000000Y-111000000D03*
X76900000Y-106400000D03*
%TO.N,SWDIO*%
X70200000Y-110200000D03*
%TO.N,SWCLK*%
X70800000Y-109300000D03*
%TO.N,Net-(J1-Pad3)*%
X75100000Y-109400000D03*
%TD*%
D33*
%TO.N,GND*%
X85087500Y-113087500D02*
X85087500Y-112325000D01*
X87087500Y-113112500D02*
X87087500Y-112325000D01*
X78500000Y-114300000D02*
X77275000Y-114300000D01*
%TO.N,+5V*%
X85850000Y-117450000D02*
X85850000Y-116350000D01*
X88562020Y-117500480D02*
X87799520Y-117500480D01*
X85799520Y-117500480D02*
X83600480Y-117500480D01*
X84137500Y-111600000D02*
X86037500Y-111600000D01*
X83600480Y-117500480D02*
X81399520Y-117500480D01*
X87799520Y-117500480D02*
X87750000Y-117450960D01*
X80900000Y-113700000D02*
X83600000Y-113700000D01*
X79437500Y-117563460D02*
X79437500Y-118850000D01*
X85799520Y-117500480D02*
X85850000Y-117450000D01*
X89700000Y-116362500D02*
X88562020Y-117500480D01*
X94475000Y-118435000D02*
X94475000Y-117275000D01*
X78012020Y-117500480D02*
X77537500Y-117975000D01*
X81400000Y-117500960D02*
X81399520Y-117500480D01*
X92537500Y-116362500D02*
X92537500Y-115125000D01*
X81399520Y-117500480D02*
X80299520Y-117500480D01*
X80299520Y-114300480D02*
X80900000Y-113700000D01*
X79500480Y-117500480D02*
X79437500Y-117563460D01*
X80299520Y-117500480D02*
X79500480Y-117500480D01*
X83637980Y-117537980D02*
X83600480Y-117500480D01*
X92537500Y-115125000D02*
X92450000Y-115037500D01*
X93562500Y-116362500D02*
X92537500Y-116362500D01*
X86037500Y-111600000D02*
X86087500Y-111650000D01*
X83700000Y-117600000D02*
X83600480Y-117500480D01*
X77537500Y-117975000D02*
X77537500Y-118850000D01*
X84087500Y-111650000D02*
X84137500Y-111600000D01*
X84087500Y-113212500D02*
X84087500Y-112325000D01*
X86087500Y-111650000D02*
X86087500Y-112325000D01*
X87750000Y-117450960D02*
X87750000Y-116350000D01*
X92537500Y-116362500D02*
X89700000Y-116362500D01*
X81400000Y-118437500D02*
X81400000Y-117500960D01*
X84087500Y-112325000D02*
X84087500Y-111650000D01*
X94475000Y-117275000D02*
X93562500Y-116362500D01*
X87799520Y-117500480D02*
X85799520Y-117500480D01*
X83600000Y-113700000D02*
X84087500Y-113212500D01*
X79500480Y-117500480D02*
X78012020Y-117500480D01*
X80299520Y-117500480D02*
X80299520Y-114300480D01*
X83700000Y-118437500D02*
X83700000Y-117600000D01*
%TO.N,GND*%
X78600000Y-120200000D02*
X82600000Y-120200000D01*
X94343573Y-116400000D02*
X94700500Y-116400000D01*
X88637500Y-104900000D02*
X88600000Y-104862500D01*
D34*
X57300000Y-100762500D02*
X59562500Y-100762500D01*
X69687500Y-115638000D02*
X69687500Y-118025000D01*
X62000000Y-104462500D02*
X62000000Y-102300000D01*
D33*
X87300000Y-122937500D02*
X88862500Y-122937500D01*
X93400000Y-112762500D02*
X93400000Y-111499500D01*
X96962500Y-115000000D02*
X96962500Y-113025000D01*
D34*
X59600000Y-100725000D02*
X60625000Y-100725000D01*
D33*
X96962500Y-113025000D02*
X97287500Y-112700000D01*
D34*
X71287500Y-116775000D02*
X69862500Y-118200000D01*
D33*
X90100000Y-118837500D02*
X89700000Y-118437500D01*
D34*
X65687500Y-107162000D02*
X65687500Y-104612500D01*
X65687500Y-104612500D02*
X64275000Y-103200000D01*
D33*
X83700000Y-116362500D02*
X81400000Y-116362500D01*
X84257500Y-122937500D02*
X83320000Y-122000000D01*
X93400000Y-115456427D02*
X94343573Y-116400000D01*
X97100000Y-116900000D02*
X97100000Y-115137500D01*
D34*
X64275000Y-103200000D02*
X63100000Y-103200000D01*
D33*
X92400000Y-104900000D02*
X88637500Y-104900000D01*
X88862500Y-122937500D02*
X90100000Y-121700000D01*
D34*
X69687500Y-118025000D02*
X69862500Y-118200000D01*
D33*
X97075000Y-116925000D02*
X97100000Y-116900000D01*
X78487500Y-120087500D02*
X78600000Y-120200000D01*
X78487500Y-118850000D02*
X78487500Y-120087500D01*
D34*
X60625000Y-100725000D02*
X62100000Y-102200000D01*
D33*
X93400000Y-115037500D02*
X93400000Y-115456427D01*
X70200000Y-119500000D02*
X69862500Y-119162500D01*
X82600000Y-120200000D02*
X83320000Y-120920000D01*
D34*
X59562500Y-100762500D02*
X59600000Y-100725000D01*
D33*
X75300000Y-118737500D02*
X74537500Y-119500000D01*
X86800000Y-114800000D02*
X86100000Y-114100000D01*
X86100000Y-114100000D02*
X87087500Y-113112500D01*
X86800000Y-116350000D02*
X86800000Y-114800000D01*
D34*
X71287500Y-115638000D02*
X71287500Y-116775000D01*
D33*
X86100000Y-114100000D02*
X85087500Y-113087500D01*
X90100000Y-121700000D02*
X90100000Y-118837500D01*
X93400000Y-111499500D02*
X93200000Y-111299500D01*
X87300000Y-122937500D02*
X84257500Y-122937500D01*
X76762500Y-120200000D02*
X78600000Y-120200000D01*
X83837500Y-116362500D02*
X86100000Y-114100000D01*
D34*
X62000000Y-102300000D02*
X62100000Y-102200000D01*
D33*
X97100000Y-115137500D02*
X96962500Y-115000000D01*
X75300000Y-118737500D02*
X76762500Y-120200000D01*
D34*
X63100000Y-103200000D02*
X62100000Y-102200000D01*
D33*
X69862500Y-119162500D02*
X69862500Y-118200000D01*
X83320000Y-120920000D02*
X83320000Y-122000000D01*
X97075000Y-118435000D02*
X97075000Y-116925000D01*
X74537500Y-119500000D02*
X70200000Y-119500000D01*
%TO.N,+1V8*%
X87300000Y-120862500D02*
X88762500Y-120862500D01*
X88762500Y-120862500D02*
X88800000Y-120900000D01*
X88800000Y-114100000D02*
X88087500Y-113387500D01*
X88087500Y-113387500D02*
X88087500Y-112425000D01*
X87750000Y-118850000D02*
X87750000Y-120412500D01*
X87750000Y-120412500D02*
X87300000Y-120862500D01*
%TO.N,+3V0*%
X62000000Y-107700000D02*
X62000000Y-106537500D01*
X79600000Y-107100000D02*
X79600000Y-108300000D01*
X81512500Y-105187500D02*
X79600000Y-107100000D01*
X75400000Y-116562500D02*
X75300000Y-116662500D01*
X75612500Y-116350000D02*
X75300000Y-116662500D01*
X77537500Y-116350000D02*
X76550000Y-116350000D01*
X70294489Y-112705511D02*
X71788978Y-114200000D01*
X75400000Y-114437500D02*
X75400000Y-116562500D01*
X79600000Y-108300000D02*
X78399500Y-109500500D01*
X82500000Y-105187500D02*
X84500000Y-105187500D01*
X70487500Y-112898522D02*
X70294489Y-112705511D01*
X70487500Y-115638000D02*
X70487500Y-112898522D01*
X64249500Y-108600000D02*
X62900000Y-108600000D01*
X64249500Y-108600000D02*
X66188978Y-108600000D01*
X76550000Y-116350000D02*
X75612500Y-116350000D01*
X66188978Y-108600000D02*
X70294489Y-112705511D01*
X71788978Y-114200000D02*
X72725500Y-114200000D01*
X75162500Y-114200000D02*
X75400000Y-114437500D01*
X73475000Y-116662500D02*
X71937500Y-118200000D01*
X84500000Y-105187500D02*
X86500000Y-105187500D01*
X72725500Y-114200000D02*
X75162500Y-114200000D01*
X75300000Y-116662500D02*
X73475000Y-116662500D01*
X82500000Y-105187500D02*
X81512500Y-105187500D01*
X62900000Y-108600000D02*
X62000000Y-107700000D01*
D34*
%TO.N,OSC0*%
X60900000Y-105600000D02*
X60350000Y-105050000D01*
X64249500Y-109400000D02*
X63064282Y-109400000D01*
X63064282Y-109400000D02*
X60900000Y-107235718D01*
X59600000Y-105050000D02*
X59600000Y-102800000D01*
X60900000Y-107235718D02*
X60900000Y-105600000D01*
X60350000Y-105050000D02*
X59600000Y-105050000D01*
%TO.N,USB_DM*%
X79534514Y-110599520D02*
X79934994Y-111000000D01*
X74199520Y-111000000D02*
X74600000Y-110599520D01*
X89400000Y-111000000D02*
X90700000Y-112300000D01*
X91400000Y-113900000D02*
X93900000Y-113900000D01*
X90700000Y-112300000D02*
X90700000Y-113200000D01*
X72725500Y-111000000D02*
X74199520Y-111000000D01*
X95400000Y-117185978D02*
X95400000Y-113812500D01*
X74600000Y-110599520D02*
X79534514Y-110599520D01*
X94350000Y-113450000D02*
X94350000Y-112762500D01*
X93900000Y-113900000D02*
X94350000Y-113450000D01*
X90700000Y-113200000D02*
X91400000Y-113900000D01*
X79934994Y-111000000D02*
X89400000Y-111000000D01*
X95125000Y-117460978D02*
X95400000Y-117185978D01*
X95400000Y-113812500D02*
X94350000Y-112762500D01*
X95125000Y-118435000D02*
X95125000Y-117460978D01*
%TO.N,USB_DP*%
X92400000Y-110600000D02*
X93500000Y-110600000D01*
X92450000Y-112762500D02*
X92400000Y-112712500D01*
X95799520Y-112899520D02*
X95799520Y-118410480D01*
X93500000Y-110600000D02*
X95799520Y-112899520D01*
X95799520Y-118410480D02*
X95775000Y-118435000D01*
X72725500Y-110200000D02*
X79700000Y-110200000D01*
X79700000Y-110200000D02*
X80100000Y-110600000D01*
X80100000Y-110600000D02*
X92400000Y-110600000D01*
X92400000Y-112712500D02*
X92400000Y-110600000D01*
%TO.N,SCL*%
X73663000Y-112600000D02*
X74163000Y-112100000D01*
X88087500Y-109725000D02*
X88087500Y-108600000D01*
X88100000Y-108400000D02*
X86712500Y-107012500D01*
X86712500Y-107012500D02*
X86500000Y-107012500D01*
X74163000Y-112100000D02*
X81800000Y-112100000D01*
X72725500Y-112600000D02*
X73663000Y-112600000D01*
%TO.N,SDA*%
X83587500Y-106100000D02*
X81300000Y-106100000D01*
X87087500Y-109725000D02*
X87087500Y-109625000D01*
X84500000Y-107012500D02*
X83587500Y-106100000D01*
X80100000Y-109200000D02*
X80100000Y-109300000D01*
X74263000Y-112800000D02*
X73663000Y-113400000D01*
X79500000Y-112800000D02*
X74263000Y-112800000D01*
X87087500Y-108787500D02*
X86400000Y-108100000D01*
X85587500Y-108100000D02*
X84500000Y-107012500D01*
X80100000Y-107300000D02*
X80100000Y-109200000D01*
X86400000Y-108100000D02*
X85587500Y-108100000D01*
X87087500Y-109625000D02*
X87087500Y-108787500D01*
X81300000Y-106100000D02*
X80100000Y-107300000D01*
X73663000Y-113400000D02*
X72725500Y-113400000D01*
%TO.N,INTB*%
X84087500Y-108600000D02*
X85700000Y-108600000D01*
X73663000Y-111800000D02*
X73762520Y-111700480D01*
X78898540Y-111700480D02*
X79272385Y-111326635D01*
X81244622Y-107144622D02*
X82367878Y-107144622D01*
X86087500Y-108987500D02*
X86087500Y-109625000D01*
X72725500Y-111800000D02*
X73663000Y-111800000D01*
X85700000Y-108600000D02*
X86087500Y-108987500D01*
X73762520Y-111700480D02*
X78898540Y-111700480D01*
X82367878Y-107144622D02*
X82500000Y-107012500D01*
X82500000Y-107012500D02*
X84087500Y-108600000D01*
%TO.N,OSC1*%
X64249500Y-110200000D02*
X63312000Y-110200000D01*
X62399500Y-111112500D02*
X60700000Y-111112500D01*
X63312000Y-110200000D02*
X62399500Y-111112500D01*
%TO.N,NRST*%
X76912500Y-108000000D02*
X76912500Y-106412500D01*
X76912500Y-106412500D02*
X76900000Y-106400000D01*
X66000000Y-111000000D02*
X64249500Y-111000000D01*
%TO.N,PA0*%
X64249500Y-111800000D02*
X63412978Y-111800000D01*
X59600000Y-112400000D02*
X58600000Y-111400000D01*
X62812978Y-112400000D02*
X59600000Y-112400000D01*
X58600000Y-111400000D02*
X57787500Y-111400000D01*
X63412978Y-111800000D02*
X62812978Y-112400000D01*
%TO.N,PA1*%
X64249500Y-112600000D02*
X63312000Y-112600000D01*
X63312000Y-112600000D02*
X61972000Y-113940000D01*
X61972000Y-113940000D02*
X57787500Y-113940000D01*
%TO.N,PA2*%
X60232000Y-116480000D02*
X57787500Y-116480000D01*
X63312000Y-113400000D02*
X60232000Y-116480000D01*
X64249500Y-113400000D02*
X63312000Y-113400000D01*
%TO.N,PA3*%
X60380000Y-119020000D02*
X57787500Y-119020000D01*
X64249500Y-114200000D02*
X64249500Y-115150500D01*
X64249500Y-115150500D02*
X60380000Y-119020000D01*
%TO.N,PA4*%
X65687500Y-115638000D02*
X65687500Y-116212500D01*
X61912500Y-119987500D02*
X61912500Y-122000000D01*
X65687500Y-116212500D02*
X61912500Y-119987500D01*
%TO.N,PA5*%
X66487500Y-117812500D02*
X64452500Y-119847500D01*
X64452500Y-119847500D02*
X64452500Y-122000000D01*
X66487500Y-115638000D02*
X66487500Y-117812500D01*
%TO.N,PA6*%
X67287500Y-115638000D02*
X67287500Y-121705000D01*
X67287500Y-121705000D02*
X66992500Y-122000000D01*
%TO.N,PA7*%
X69532500Y-121332500D02*
X69532500Y-122000000D01*
X68087500Y-115638000D02*
X68087500Y-119887500D01*
X68087500Y-119887500D02*
X69532500Y-121332500D01*
%TO.N,PB0*%
X69300000Y-120200000D02*
X70272500Y-120200000D01*
X70272500Y-120200000D02*
X72072500Y-122000000D01*
X68887500Y-115638000D02*
X68887500Y-117012500D01*
X68887500Y-117012500D02*
X68700000Y-117200000D01*
X68700000Y-119600000D02*
X69300000Y-120200000D01*
X68700000Y-117200000D02*
X68700000Y-119600000D01*
%TO.N,SWDIO*%
X70988000Y-110200000D02*
X70200000Y-110200000D01*
X71788000Y-109400000D02*
X70988000Y-110200000D01*
X72725500Y-109400000D02*
X71788000Y-109400000D01*
%TO.N,SWCLK*%
X71500000Y-108600000D02*
X70800000Y-109300000D01*
X72725500Y-108600000D02*
X71500000Y-108600000D01*
%TO.N,PA15*%
X74900000Y-105000000D02*
X79350000Y-105000000D01*
X71287500Y-107162000D02*
X72738000Y-107162000D01*
X79350000Y-105000000D02*
X82550000Y-101800000D01*
X72738000Y-107162000D02*
X74900000Y-105000000D01*
%TO.N,PB3*%
X75100000Y-104100000D02*
X78900000Y-104100000D01*
X71612000Y-105100000D02*
X74100000Y-105100000D01*
X70487500Y-106224500D02*
X71612000Y-105100000D01*
X78900000Y-104100000D02*
X80010000Y-102990000D01*
X74100000Y-105100000D02*
X75100000Y-104100000D01*
X70487500Y-107162000D02*
X70487500Y-106224500D01*
X80010000Y-102990000D02*
X80010000Y-101800000D01*
%TO.N,PB4*%
X69687500Y-106325478D02*
X71413458Y-104599520D01*
X69687500Y-107162000D02*
X69687500Y-106325478D01*
X76500000Y-103400000D02*
X77470000Y-102430000D01*
X74800000Y-103400000D02*
X76500000Y-103400000D01*
X77470000Y-102430000D02*
X77470000Y-101800000D01*
X73600480Y-104599520D02*
X74800000Y-103400000D01*
X71413458Y-104599520D02*
X73600480Y-104599520D01*
%TO.N,PB5*%
X68887500Y-106325478D02*
X71012978Y-104200000D01*
X68887500Y-107162000D02*
X68887500Y-106325478D01*
X71012978Y-104200000D02*
X72530000Y-104200000D01*
X72530000Y-104200000D02*
X74930000Y-101800000D01*
%TO.N,PB6*%
X68087500Y-107162000D02*
X68087500Y-106102500D01*
X68087500Y-106102500D02*
X72390000Y-101800000D01*
%TO.N,PB7*%
X67287500Y-107162000D02*
X67287500Y-104362500D01*
X67287500Y-104362500D02*
X69850000Y-101800000D01*
%TO.N,Net-(IC2-Pad31)*%
X66487500Y-107162000D02*
X66487500Y-103587500D01*
X66487500Y-103587500D02*
X66100000Y-103200000D01*
%TO.N,Net-(J1-Pad3)*%
X75087500Y-108000000D02*
X75087500Y-109387500D01*
X75087500Y-109387500D02*
X75100000Y-109400000D01*
%TO.N,Net-(C2-Pad2)*%
X89087500Y-109725000D02*
X89087500Y-107425000D01*
X89087500Y-107425000D02*
X88600000Y-106937500D01*
%TO.N,Net-(C6-Pad1)*%
X58399511Y-106000978D02*
X58399511Y-103937011D01*
X57650489Y-106750000D02*
X58399511Y-106000978D01*
X60700000Y-109287500D02*
X59937500Y-109287500D01*
X59937500Y-109287500D02*
X57400000Y-106750000D01*
X57400000Y-106750000D02*
X57650489Y-106750000D01*
X58399511Y-103937011D02*
X57300000Y-102837500D01*
D33*
%TO.N,Net-(C12-Pad1)*%
X99112500Y-114925000D02*
X99037500Y-115000000D01*
X99112500Y-112700000D02*
X99112500Y-114925000D01*
X93315000Y-121585000D02*
X93045000Y-121315000D01*
X96735000Y-121585000D02*
X94815000Y-121585000D01*
X98775000Y-118415000D02*
X98675000Y-118315000D01*
X94815000Y-121585000D02*
X93315000Y-121585000D01*
X92825000Y-119635000D02*
X92825000Y-118435000D01*
X98675000Y-118315000D02*
X98675000Y-115362500D01*
X96735000Y-121585000D02*
X98235000Y-121585000D01*
X98675000Y-115362500D02*
X99037500Y-115000000D01*
X92825000Y-118435000D02*
X92925000Y-118335000D01*
X98235000Y-121585000D02*
X98505000Y-121315000D01*
X98775000Y-119635000D02*
X98775000Y-118415000D01*
%TD*%
%TA.AperFunction,NonConductor*%
G36*
X71867075Y-100028002D02*
G01*
X71913568Y-100081658D01*
X71923672Y-100151932D01*
X71894178Y-100216512D01*
X71857134Y-100245763D01*
X71708908Y-100322925D01*
X71663607Y-100346507D01*
X71659474Y-100349610D01*
X71659471Y-100349612D01*
X71489100Y-100477530D01*
X71484965Y-100480635D01*
X71428537Y-100539684D01*
X71404283Y-100565064D01*
X71342759Y-100600494D01*
X71271846Y-100597037D01*
X71214060Y-100555791D01*
X71195207Y-100522243D01*
X71153767Y-100411703D01*
X71150615Y-100403295D01*
X71063261Y-100286739D01*
X71036287Y-100266523D01*
X70993994Y-100234826D01*
X70951479Y-100177967D01*
X70946453Y-100107148D01*
X70980513Y-100044855D01*
X71042845Y-100010865D01*
X71069559Y-100008000D01*
X71798954Y-100008000D01*
X71867075Y-100028002D01*
G37*
%TD.AperFunction*%
%TA.AperFunction,NonConductor*%
G36*
X90073562Y-100028002D02*
G01*
X90120055Y-100081658D01*
X90130159Y-100151932D01*
X90100665Y-100216512D01*
X90081006Y-100234826D01*
X90038713Y-100266523D01*
X90011739Y-100286739D01*
X89924385Y-100403295D01*
X89921233Y-100411703D01*
X89879919Y-100521907D01*
X89837277Y-100578671D01*
X89770716Y-100603371D01*
X89701367Y-100588163D01*
X89668743Y-100562476D01*
X89618151Y-100506875D01*
X89618142Y-100506866D01*
X89614670Y-100503051D01*
X89610619Y-100499852D01*
X89610615Y-100499848D01*
X89443414Y-100367800D01*
X89443410Y-100367798D01*
X89439359Y-100364598D01*
X89243789Y-100256638D01*
X89238919Y-100254913D01*
X89238909Y-100254909D01*
X89232874Y-100252772D01*
X89175338Y-100211178D01*
X89149423Y-100145080D01*
X89163358Y-100075464D01*
X89212717Y-100024433D01*
X89274935Y-100008000D01*
X90005441Y-100008000D01*
X90073562Y-100028002D01*
G37*
%TD.AperFunction*%
%TA.AperFunction,NonConductor*%
G36*
X76947075Y-100028002D02*
G01*
X76993568Y-100081658D01*
X77003672Y-100151932D01*
X76974178Y-100216512D01*
X76937134Y-100245763D01*
X76788908Y-100322925D01*
X76743607Y-100346507D01*
X76739474Y-100349610D01*
X76739471Y-100349612D01*
X76569100Y-100477530D01*
X76564965Y-100480635D01*
X76525525Y-100521907D01*
X76453729Y-100597037D01*
X76410629Y-100642138D01*
X76303201Y-100799621D01*
X76248293Y-100844621D01*
X76177768Y-100852792D01*
X76114021Y-100821538D01*
X76093324Y-100797054D01*
X76012822Y-100672617D01*
X76012820Y-100672614D01*
X76010014Y-100668277D01*
X75859670Y-100503051D01*
X75855619Y-100499852D01*
X75855615Y-100499848D01*
X75688414Y-100367800D01*
X75688410Y-100367798D01*
X75684359Y-100364598D01*
X75488789Y-100256638D01*
X75483919Y-100254913D01*
X75483909Y-100254909D01*
X75477874Y-100252772D01*
X75420338Y-100211178D01*
X75394423Y-100145080D01*
X75408358Y-100075464D01*
X75457717Y-100024433D01*
X75519935Y-100008000D01*
X76878954Y-100008000D01*
X76947075Y-100028002D01*
G37*
%TD.AperFunction*%
%TA.AperFunction,NonConductor*%
G36*
X74407075Y-100028002D02*
G01*
X74453568Y-100081658D01*
X74463672Y-100151932D01*
X74434178Y-100216512D01*
X74397134Y-100245763D01*
X74248908Y-100322925D01*
X74203607Y-100346507D01*
X74199474Y-100349610D01*
X74199471Y-100349612D01*
X74029100Y-100477530D01*
X74024965Y-100480635D01*
X73985525Y-100521907D01*
X73913729Y-100597037D01*
X73870629Y-100642138D01*
X73763201Y-100799621D01*
X73708293Y-100844621D01*
X73637768Y-100852792D01*
X73574021Y-100821538D01*
X73553324Y-100797054D01*
X73472822Y-100672617D01*
X73472820Y-100672614D01*
X73470014Y-100668277D01*
X73319670Y-100503051D01*
X73315619Y-100499852D01*
X73315615Y-100499848D01*
X73148414Y-100367800D01*
X73148410Y-100367798D01*
X73144359Y-100364598D01*
X72948789Y-100256638D01*
X72943919Y-100254913D01*
X72943909Y-100254909D01*
X72937874Y-100252772D01*
X72880338Y-100211178D01*
X72854423Y-100145080D01*
X72868358Y-100075464D01*
X72917717Y-100024433D01*
X72979935Y-100008000D01*
X74338954Y-100008000D01*
X74407075Y-100028002D01*
G37*
%TD.AperFunction*%
%TA.AperFunction,NonConductor*%
G36*
X79487075Y-100028002D02*
G01*
X79533568Y-100081658D01*
X79543672Y-100151932D01*
X79514178Y-100216512D01*
X79477134Y-100245763D01*
X79328908Y-100322925D01*
X79283607Y-100346507D01*
X79279474Y-100349610D01*
X79279471Y-100349612D01*
X79109100Y-100477530D01*
X79104965Y-100480635D01*
X79065525Y-100521907D01*
X78993729Y-100597037D01*
X78950629Y-100642138D01*
X78843201Y-100799621D01*
X78788293Y-100844621D01*
X78717768Y-100852792D01*
X78654021Y-100821538D01*
X78633324Y-100797054D01*
X78552822Y-100672617D01*
X78552820Y-100672614D01*
X78550014Y-100668277D01*
X78399670Y-100503051D01*
X78395619Y-100499852D01*
X78395615Y-100499848D01*
X78228414Y-100367800D01*
X78228410Y-100367798D01*
X78224359Y-100364598D01*
X78028789Y-100256638D01*
X78023919Y-100254913D01*
X78023909Y-100254909D01*
X78017874Y-100252772D01*
X77960338Y-100211178D01*
X77934423Y-100145080D01*
X77948358Y-100075464D01*
X77997717Y-100024433D01*
X78059935Y-100008000D01*
X79418954Y-100008000D01*
X79487075Y-100028002D01*
G37*
%TD.AperFunction*%
%TA.AperFunction,NonConductor*%
G36*
X82027075Y-100028002D02*
G01*
X82073568Y-100081658D01*
X82083672Y-100151932D01*
X82054178Y-100216512D01*
X82017134Y-100245763D01*
X81868908Y-100322925D01*
X81823607Y-100346507D01*
X81819474Y-100349610D01*
X81819471Y-100349612D01*
X81649100Y-100477530D01*
X81644965Y-100480635D01*
X81605525Y-100521907D01*
X81533729Y-100597037D01*
X81490629Y-100642138D01*
X81383201Y-100799621D01*
X81328293Y-100844621D01*
X81257768Y-100852792D01*
X81194021Y-100821538D01*
X81173324Y-100797054D01*
X81092822Y-100672617D01*
X81092820Y-100672614D01*
X81090014Y-100668277D01*
X80939670Y-100503051D01*
X80935619Y-100499852D01*
X80935615Y-100499848D01*
X80768414Y-100367800D01*
X80768410Y-100367798D01*
X80764359Y-100364598D01*
X80568789Y-100256638D01*
X80563919Y-100254913D01*
X80563909Y-100254909D01*
X80557874Y-100252772D01*
X80500338Y-100211178D01*
X80474423Y-100145080D01*
X80488358Y-100075464D01*
X80537717Y-100024433D01*
X80599935Y-100008000D01*
X81958954Y-100008000D01*
X82027075Y-100028002D01*
G37*
%TD.AperFunction*%
%TA.AperFunction,NonConductor*%
G36*
X88162075Y-100028002D02*
G01*
X88208568Y-100081658D01*
X88218672Y-100151932D01*
X88189178Y-100216512D01*
X88152134Y-100245763D01*
X88003908Y-100322925D01*
X87958607Y-100346507D01*
X87954474Y-100349610D01*
X87954471Y-100349612D01*
X87784100Y-100477530D01*
X87779965Y-100480635D01*
X87740525Y-100521907D01*
X87668729Y-100597037D01*
X87625629Y-100642138D01*
X87518201Y-100799621D01*
X87463293Y-100844621D01*
X87392768Y-100852792D01*
X87329021Y-100821538D01*
X87308324Y-100797054D01*
X87227822Y-100672617D01*
X87227820Y-100672614D01*
X87225014Y-100668277D01*
X87074670Y-100503051D01*
X87070619Y-100499852D01*
X87070615Y-100499848D01*
X86903414Y-100367800D01*
X86903410Y-100367798D01*
X86899359Y-100364598D01*
X86703789Y-100256638D01*
X86698919Y-100254913D01*
X86698909Y-100254909D01*
X86692874Y-100252772D01*
X86635338Y-100211178D01*
X86609423Y-100145080D01*
X86623358Y-100075464D01*
X86672717Y-100024433D01*
X86734935Y-100008000D01*
X88093954Y-100008000D01*
X88162075Y-100028002D01*
G37*
%TD.AperFunction*%
%TA.AperFunction,NonConductor*%
G36*
X58557076Y-101567349D02*
G01*
X58582307Y-101592536D01*
X58651697Y-101661805D01*
X58655916Y-101664406D01*
X58696417Y-101721530D01*
X58699649Y-101792453D01*
X58664024Y-101853865D01*
X58656470Y-101860422D01*
X58650652Y-101864022D01*
X58525695Y-101989197D01*
X58524823Y-101988326D01*
X58472904Y-102025134D01*
X58401981Y-102028364D01*
X58342924Y-101995151D01*
X58253483Y-101905866D01*
X58248303Y-101900695D01*
X58244084Y-101898094D01*
X58203583Y-101840970D01*
X58200351Y-101770047D01*
X58235976Y-101708635D01*
X58243530Y-101702078D01*
X58249348Y-101698478D01*
X58296067Y-101651678D01*
X58369133Y-101578484D01*
X58374305Y-101573303D01*
X58375177Y-101574174D01*
X58427096Y-101537366D01*
X58498019Y-101534136D01*
X58557076Y-101567349D01*
G37*
%TD.AperFunction*%
%TA.AperFunction,NonConductor*%
G36*
X76282026Y-102175144D02*
G01*
X76309875Y-102206994D01*
X76369987Y-102305088D01*
X76373366Y-102308989D01*
X76373372Y-102308997D01*
X76462320Y-102411681D01*
X76491803Y-102476266D01*
X76481688Y-102546538D01*
X76456178Y-102583273D01*
X76284856Y-102754595D01*
X76222544Y-102788621D01*
X76195761Y-102791500D01*
X75852538Y-102791500D01*
X75784417Y-102771498D01*
X75737924Y-102717842D01*
X75727820Y-102647568D01*
X75757314Y-102582988D01*
X75779370Y-102562921D01*
X75797549Y-102549954D01*
X75809860Y-102541173D01*
X75968096Y-102383489D01*
X75998048Y-102341807D01*
X76098453Y-102202077D01*
X76099776Y-102203028D01*
X76146645Y-102159857D01*
X76216580Y-102147625D01*
X76282026Y-102175144D01*
G37*
%TD.AperFunction*%
%TA.AperFunction,NonConductor*%
G36*
X68698562Y-100028002D02*
G01*
X68745055Y-100081658D01*
X68755159Y-100151932D01*
X68725665Y-100216512D01*
X68706006Y-100234826D01*
X68663713Y-100266523D01*
X68636739Y-100286739D01*
X68549385Y-100403295D01*
X68498255Y-100539684D01*
X68491500Y-100601866D01*
X68491500Y-102245761D01*
X68471498Y-102313882D01*
X68454595Y-102334856D01*
X67336095Y-103453356D01*
X67273783Y-103487382D01*
X67202968Y-103482317D01*
X67146132Y-103439770D01*
X67121321Y-103373250D01*
X67121000Y-103364261D01*
X67121000Y-102699600D01*
X67120663Y-102696350D01*
X67110738Y-102600692D01*
X67110737Y-102600688D01*
X67110026Y-102593834D01*
X67106408Y-102582988D01*
X67056368Y-102433002D01*
X67054050Y-102426054D01*
X66960978Y-102275652D01*
X66835803Y-102150695D01*
X66829572Y-102146854D01*
X66691468Y-102061725D01*
X66691466Y-102061724D01*
X66685238Y-102057885D01*
X66605495Y-102031436D01*
X66523889Y-102004368D01*
X66523887Y-102004368D01*
X66517361Y-102002203D01*
X66510525Y-102001503D01*
X66510522Y-102001502D01*
X66465184Y-101996857D01*
X66412900Y-101991500D01*
X65787100Y-101991500D01*
X65783854Y-101991837D01*
X65783850Y-101991837D01*
X65688192Y-102001762D01*
X65688188Y-102001763D01*
X65681334Y-102002474D01*
X65674798Y-102004655D01*
X65674796Y-102004655D01*
X65542694Y-102048728D01*
X65513554Y-102058450D01*
X65363152Y-102151522D01*
X65357979Y-102156704D01*
X65349156Y-102165543D01*
X65314759Y-102200000D01*
X65276716Y-102238109D01*
X65214434Y-102272188D01*
X65143614Y-102267185D01*
X65098525Y-102238264D01*
X65015983Y-102155866D01*
X65010803Y-102150695D01*
X65004572Y-102146854D01*
X64866468Y-102061725D01*
X64866466Y-102061724D01*
X64860238Y-102057885D01*
X64780495Y-102031436D01*
X64698889Y-102004368D01*
X64698887Y-102004368D01*
X64692361Y-102002203D01*
X64685525Y-102001503D01*
X64685522Y-102001502D01*
X64640184Y-101996857D01*
X64587900Y-101991500D01*
X63962100Y-101991500D01*
X63958854Y-101991837D01*
X63958850Y-101991837D01*
X63863192Y-102001762D01*
X63863188Y-102001763D01*
X63856334Y-102002474D01*
X63849798Y-102004655D01*
X63849796Y-102004655D01*
X63717694Y-102048728D01*
X63688554Y-102058450D01*
X63538152Y-102151522D01*
X63532979Y-102156704D01*
X63519054Y-102170653D01*
X63413195Y-102276697D01*
X63353469Y-102373589D01*
X63300699Y-102421081D01*
X63230628Y-102432505D01*
X63165504Y-102404231D01*
X63157116Y-102396567D01*
X63049719Y-102289170D01*
X63015693Y-102226858D01*
X63013159Y-102203284D01*
X63013504Y-102200000D01*
X63009285Y-102159857D01*
X62994232Y-102016635D01*
X62994232Y-102016633D01*
X62993542Y-102010072D01*
X62934527Y-101828444D01*
X62922984Y-101808450D01*
X62891902Y-101754615D01*
X62839040Y-101663056D01*
X62831733Y-101654940D01*
X62715675Y-101526045D01*
X62715674Y-101526044D01*
X62711253Y-101521134D01*
X62556752Y-101408882D01*
X62550724Y-101406198D01*
X62550722Y-101406197D01*
X62388319Y-101333891D01*
X62388318Y-101333891D01*
X62382288Y-101331206D01*
X62288888Y-101311353D01*
X62201944Y-101292872D01*
X62201939Y-101292872D01*
X62195487Y-101291500D01*
X62104239Y-101291500D01*
X62036118Y-101271498D01*
X62015144Y-101254595D01*
X61089315Y-100328766D01*
X61078448Y-100316375D01*
X61064013Y-100297563D01*
X61058987Y-100291013D01*
X61027075Y-100266526D01*
X61027072Y-100266523D01*
X60984638Y-100233962D01*
X60942771Y-100176624D01*
X60938549Y-100105753D01*
X60973313Y-100043850D01*
X61036026Y-100010569D01*
X61061342Y-100008000D01*
X68630441Y-100008000D01*
X68698562Y-100028002D01*
G37*
%TD.AperFunction*%
%TA.AperFunction,NonConductor*%
G36*
X78822026Y-102175144D02*
G01*
X78849875Y-102206994D01*
X78909987Y-102305088D01*
X79056250Y-102473938D01*
X79228126Y-102616632D01*
X79232593Y-102619242D01*
X79273120Y-102642924D01*
X79321843Y-102694563D01*
X79334914Y-102764346D01*
X79308182Y-102830118D01*
X79298644Y-102840807D01*
X78684856Y-103454595D01*
X78622544Y-103488621D01*
X78595761Y-103491500D01*
X77573239Y-103491500D01*
X77505118Y-103471498D01*
X77458625Y-103417842D01*
X77448521Y-103347568D01*
X77478015Y-103282988D01*
X77484144Y-103276405D01*
X77866234Y-102894315D01*
X77878625Y-102883448D01*
X77897437Y-102869013D01*
X77903987Y-102863987D01*
X77928474Y-102832075D01*
X77928477Y-102832072D01*
X77928623Y-102831882D01*
X77964388Y-102785273D01*
X78008917Y-102748827D01*
X78014470Y-102746107D01*
X78167994Y-102670896D01*
X78349860Y-102541173D01*
X78508096Y-102383489D01*
X78538048Y-102341807D01*
X78638453Y-102202077D01*
X78639776Y-102203028D01*
X78686645Y-102159857D01*
X78756580Y-102147625D01*
X78822026Y-102175144D01*
G37*
%TD.AperFunction*%
%TA.AperFunction,NonConductor*%
G36*
X72843768Y-102859162D02*
G01*
X72873639Y-102923569D01*
X72863948Y-102993901D01*
X72838124Y-103031327D01*
X72314856Y-103554595D01*
X72252544Y-103588621D01*
X72225761Y-103591500D01*
X71763239Y-103591500D01*
X71695118Y-103571498D01*
X71648625Y-103517842D01*
X71638521Y-103447568D01*
X71668015Y-103382988D01*
X71674144Y-103376405D01*
X72159268Y-102891281D01*
X72221580Y-102857255D01*
X72252979Y-102854461D01*
X72295700Y-102856028D01*
X72446673Y-102861564D01*
X72446677Y-102861564D01*
X72451837Y-102861753D01*
X72456957Y-102861097D01*
X72456959Y-102861097D01*
X72668288Y-102834025D01*
X72668289Y-102834025D01*
X72673416Y-102833368D01*
X72678367Y-102831883D01*
X72678370Y-102831882D01*
X72712822Y-102821546D01*
X72783817Y-102821130D01*
X72843768Y-102859162D01*
G37*
%TD.AperFunction*%
%TA.AperFunction,NonConductor*%
G36*
X60680735Y-101649897D02*
G01*
X60712407Y-101672956D01*
X60716722Y-101677271D01*
X60750748Y-101739583D01*
X60747051Y-101791271D01*
X60776634Y-101783976D01*
X60843814Y-101806942D01*
X60860211Y-101820760D01*
X61150281Y-102110830D01*
X61184307Y-102173142D01*
X61186841Y-102196716D01*
X61186496Y-102200000D01*
X61187186Y-102206565D01*
X61204741Y-102373588D01*
X61206458Y-102389928D01*
X61265473Y-102571556D01*
X61268776Y-102577278D01*
X61268777Y-102577279D01*
X61356569Y-102729338D01*
X61360960Y-102736944D01*
X61365379Y-102741852D01*
X61367436Y-102744683D01*
X61391295Y-102811551D01*
X61391500Y-102818744D01*
X61391500Y-103279121D01*
X61371498Y-103347242D01*
X61317842Y-103393735D01*
X61305377Y-103398644D01*
X61208007Y-103431130D01*
X61208005Y-103431131D01*
X61201054Y-103433450D01*
X61050652Y-103526522D01*
X60978341Y-103598960D01*
X60964943Y-103612381D01*
X60902661Y-103646460D01*
X60831841Y-103641457D01*
X60774968Y-103598960D01*
X60750099Y-103532462D01*
X60761574Y-103470116D01*
X60763276Y-103466467D01*
X60767115Y-103460238D01*
X60804594Y-103347242D01*
X60820632Y-103298889D01*
X60820632Y-103298887D01*
X60822797Y-103292361D01*
X60823758Y-103282988D01*
X60833172Y-103191098D01*
X60833500Y-103187900D01*
X60833500Y-102412100D01*
X60832684Y-102404231D01*
X60823238Y-102313192D01*
X60823237Y-102313188D01*
X60822526Y-102306334D01*
X60819496Y-102297250D01*
X60768868Y-102145502D01*
X60766550Y-102138554D01*
X60673478Y-101988152D01*
X60671640Y-101986317D01*
X60645733Y-101922308D01*
X60652570Y-101886094D01*
X60636616Y-101892045D01*
X60567242Y-101876954D01*
X60551977Y-101866863D01*
X60548303Y-101863195D01*
X60544085Y-101860595D01*
X60503584Y-101803471D01*
X60500351Y-101732548D01*
X60535975Y-101671136D01*
X60543558Y-101664561D01*
X60546779Y-101662568D01*
X60610985Y-101636655D01*
X60680735Y-101649897D01*
G37*
%TD.AperFunction*%
%TA.AperFunction,NonConductor*%
G36*
X60768159Y-103621043D02*
G01*
X60825032Y-103663540D01*
X60849901Y-103730038D01*
X60838426Y-103792384D01*
X60836724Y-103796033D01*
X60832885Y-103802262D01*
X60791757Y-103926259D01*
X60778645Y-103965792D01*
X60738215Y-104024152D01*
X60672650Y-104051389D01*
X60602769Y-104038856D01*
X60583488Y-104026952D01*
X60569000Y-104016094D01*
X60546705Y-103999385D01*
X60525672Y-103991500D01*
X60523573Y-103990713D01*
X60466808Y-103948071D01*
X60442109Y-103881509D01*
X60457317Y-103812160D01*
X60501497Y-103765589D01*
X60549348Y-103735978D01*
X60635058Y-103650118D01*
X60697339Y-103616040D01*
X60768159Y-103621043D01*
G37*
%TD.AperFunction*%
%TA.AperFunction,NonConductor*%
G36*
X70234882Y-102878502D02*
G01*
X70281375Y-102932158D01*
X70291479Y-103002432D01*
X70261985Y-103067012D01*
X70255856Y-103073595D01*
X68111095Y-105218356D01*
X68048783Y-105252382D01*
X67977968Y-105247317D01*
X67921132Y-105204770D01*
X67896321Y-105138250D01*
X67896000Y-105129261D01*
X67896000Y-104666739D01*
X67916002Y-104598618D01*
X67932905Y-104577644D01*
X69615144Y-102895405D01*
X69677456Y-102861379D01*
X69704239Y-102858500D01*
X70166761Y-102858500D01*
X70234882Y-102878502D01*
G37*
%TD.AperFunction*%
%TA.AperFunction,NonConductor*%
G36*
X73094882Y-105728502D02*
G01*
X73141375Y-105782158D01*
X73151479Y-105852432D01*
X73121985Y-105917012D01*
X73115856Y-105923595D01*
X72522856Y-106516595D01*
X72460544Y-106550621D01*
X72433761Y-106553500D01*
X72222000Y-106553500D01*
X72153879Y-106533498D01*
X72107386Y-106479842D01*
X72096000Y-106427500D01*
X72096000Y-106376366D01*
X72089245Y-106314184D01*
X72038115Y-106177795D01*
X71950761Y-106061239D01*
X71871081Y-106001522D01*
X71841389Y-105979269D01*
X71841388Y-105979269D01*
X71834205Y-105973885D01*
X71827775Y-105971475D01*
X71778379Y-105921969D01*
X71763364Y-105852579D01*
X71788248Y-105786086D01*
X71799938Y-105772611D01*
X71827144Y-105745405D01*
X71889456Y-105711379D01*
X71916239Y-105708500D01*
X73026761Y-105708500D01*
X73094882Y-105728502D01*
G37*
%TD.AperFunction*%
%TA.AperFunction,NonConductor*%
G36*
X63442012Y-104152733D02*
G01*
X63448518Y-104158784D01*
X63469138Y-104179368D01*
X63539197Y-104249305D01*
X63545427Y-104253145D01*
X63545428Y-104253146D01*
X63673815Y-104332285D01*
X63689762Y-104342115D01*
X63752898Y-104363056D01*
X63851111Y-104395632D01*
X63851113Y-104395632D01*
X63857639Y-104397797D01*
X63864475Y-104398497D01*
X63864478Y-104398498D01*
X63897352Y-104401866D01*
X63962100Y-104408500D01*
X64570761Y-104408500D01*
X64638882Y-104428502D01*
X64659856Y-104445405D01*
X65042095Y-104827644D01*
X65076121Y-104889956D01*
X65079000Y-104916739D01*
X65079000Y-105957171D01*
X65058998Y-106025292D01*
X65037093Y-106048832D01*
X65037769Y-106049508D01*
X65031419Y-106055858D01*
X65024239Y-106061239D01*
X64936885Y-106177795D01*
X64885755Y-106314184D01*
X64879000Y-106376366D01*
X64879000Y-107665500D01*
X64858998Y-107733621D01*
X64805342Y-107780114D01*
X64753000Y-107791500D01*
X63463866Y-107791500D01*
X63401684Y-107798255D01*
X63265295Y-107849385D01*
X63258112Y-107854768D01*
X63258109Y-107854770D01*
X63247162Y-107862975D01*
X63180656Y-107887822D01*
X63111273Y-107872769D01*
X63082503Y-107851243D01*
X62910755Y-107679495D01*
X62876729Y-107617183D01*
X62881794Y-107546368D01*
X62924341Y-107489532D01*
X62933547Y-107483256D01*
X62943120Y-107477332D01*
X62949348Y-107473478D01*
X63074305Y-107348303D01*
X63078146Y-107342072D01*
X63163275Y-107203968D01*
X63163276Y-107203966D01*
X63167115Y-107197738D01*
X63208758Y-107072188D01*
X63220632Y-107036389D01*
X63220632Y-107036387D01*
X63222797Y-107029861D01*
X63233500Y-106925400D01*
X63233500Y-106149600D01*
X63233163Y-106146350D01*
X63223238Y-106050692D01*
X63223237Y-106050688D01*
X63222526Y-106043834D01*
X63219489Y-106034729D01*
X63168868Y-105883002D01*
X63166550Y-105876054D01*
X63073478Y-105725652D01*
X62948303Y-105600695D01*
X62944084Y-105598094D01*
X62903583Y-105540970D01*
X62900351Y-105470047D01*
X62935976Y-105408635D01*
X62943530Y-105402078D01*
X62949348Y-105398478D01*
X63074305Y-105273303D01*
X63097663Y-105235409D01*
X63163275Y-105128968D01*
X63163276Y-105128966D01*
X63167115Y-105122738D01*
X63204664Y-105009530D01*
X63220632Y-104961389D01*
X63220632Y-104961387D01*
X63222797Y-104954861D01*
X63233500Y-104850400D01*
X63233500Y-104247957D01*
X63253502Y-104179836D01*
X63307158Y-104133343D01*
X63377432Y-104123239D01*
X63442012Y-104152733D01*
G37*
%TD.AperFunction*%
%TA.AperFunction,NonConductor*%
G36*
X76175284Y-105628502D02*
G01*
X76221777Y-105682158D01*
X76231881Y-105752432D01*
X76200801Y-105818808D01*
X76160960Y-105863056D01*
X76065473Y-106028444D01*
X76006458Y-106210072D01*
X76005768Y-106216633D01*
X76005768Y-106216635D01*
X75994690Y-106322040D01*
X75986496Y-106400000D01*
X75987186Y-106406565D01*
X76002563Y-106552866D01*
X76006458Y-106589928D01*
X76065473Y-106771556D01*
X76068776Y-106777278D01*
X76068777Y-106777279D01*
X76123378Y-106871850D01*
X76140116Y-106940845D01*
X76116896Y-107007937D01*
X76103433Y-107023867D01*
X76089217Y-107038108D01*
X76026934Y-107072188D01*
X75956114Y-107067185D01*
X75911025Y-107038264D01*
X75828483Y-106955866D01*
X75823303Y-106950695D01*
X75809384Y-106942115D01*
X75678968Y-106861725D01*
X75678966Y-106861724D01*
X75672738Y-106857885D01*
X75544031Y-106815195D01*
X75511389Y-106804368D01*
X75511387Y-106804368D01*
X75504861Y-106802203D01*
X75498025Y-106801503D01*
X75498022Y-106801502D01*
X75454969Y-106797091D01*
X75400400Y-106791500D01*
X74774600Y-106791500D01*
X74771354Y-106791837D01*
X74771350Y-106791837D01*
X74675692Y-106801762D01*
X74675688Y-106801763D01*
X74668834Y-106802474D01*
X74662298Y-106804655D01*
X74662296Y-106804655D01*
X74530230Y-106848716D01*
X74501054Y-106858450D01*
X74350652Y-106951522D01*
X74225695Y-107076697D01*
X74221855Y-107082927D01*
X74221854Y-107082928D01*
X74147244Y-107203968D01*
X74132885Y-107227262D01*
X74130581Y-107234209D01*
X74091020Y-107353483D01*
X74077203Y-107395139D01*
X74076503Y-107401975D01*
X74076502Y-107401978D01*
X74072091Y-107445031D01*
X74066500Y-107499600D01*
X74066500Y-107879071D01*
X74046498Y-107947192D01*
X73992842Y-107993685D01*
X73922568Y-108003789D01*
X73857988Y-107974295D01*
X73839674Y-107954636D01*
X73831642Y-107943919D01*
X73826261Y-107936739D01*
X73709705Y-107849385D01*
X73573316Y-107798255D01*
X73511134Y-107791500D01*
X73277468Y-107791500D01*
X73209347Y-107771498D01*
X73162854Y-107717842D01*
X73152750Y-107647568D01*
X73177505Y-107588797D01*
X73191451Y-107570622D01*
X73202319Y-107558230D01*
X75115144Y-105645405D01*
X75177456Y-105611379D01*
X75204239Y-105608500D01*
X76107163Y-105608500D01*
X76175284Y-105628502D01*
G37*
%TD.AperFunction*%
%TA.AperFunction,NonConductor*%
G36*
X60645994Y-107842261D02*
G01*
X60855138Y-108051405D01*
X60889164Y-108113717D01*
X60884099Y-108184532D01*
X60841552Y-108241368D01*
X60775032Y-108266179D01*
X60766043Y-108266500D01*
X60199600Y-108266500D01*
X60196354Y-108266837D01*
X60196350Y-108266837D01*
X60100692Y-108276762D01*
X60100688Y-108276763D01*
X60093834Y-108277474D01*
X60087292Y-108279657D01*
X60087290Y-108279657D01*
X59938417Y-108329325D01*
X59867467Y-108331910D01*
X59809445Y-108298897D01*
X59584143Y-108073595D01*
X59550117Y-108011283D01*
X59555182Y-107940468D01*
X59597729Y-107883632D01*
X59664249Y-107858821D01*
X59673238Y-107858500D01*
X60348134Y-107858500D01*
X60410316Y-107851745D01*
X60512671Y-107813374D01*
X60583476Y-107808191D01*
X60645994Y-107842261D01*
G37*
%TD.AperFunction*%
%TA.AperFunction,NonConductor*%
G36*
X74184681Y-108864094D02*
G01*
X74204287Y-108888417D01*
X74226522Y-108924348D01*
X74231704Y-108929521D01*
X74236249Y-108935255D01*
X74233721Y-108937259D01*
X74260877Y-108986989D01*
X74257589Y-109052708D01*
X74217333Y-109176602D01*
X74177259Y-109235208D01*
X74111863Y-109262845D01*
X74041906Y-109250738D01*
X73989600Y-109202732D01*
X73971500Y-109137666D01*
X73971500Y-109051866D01*
X73967344Y-109013606D01*
X73967344Y-108986393D01*
X73971131Y-108951530D01*
X73971500Y-108948134D01*
X73971500Y-108947420D01*
X73994982Y-108880970D01*
X74051071Y-108837445D01*
X74121789Y-108831154D01*
X74184681Y-108864094D01*
G37*
%TD.AperFunction*%
%TA.AperFunction,NonConductor*%
G36*
X76157019Y-109038443D02*
G01*
X76176346Y-109049874D01*
X76176697Y-109049305D01*
X76264285Y-109103295D01*
X76327262Y-109142115D01*
X76407005Y-109168564D01*
X76488611Y-109195632D01*
X76488613Y-109195632D01*
X76495139Y-109197797D01*
X76501975Y-109198497D01*
X76501978Y-109198498D01*
X76543304Y-109202732D01*
X76599600Y-109208500D01*
X77225400Y-109208500D01*
X77228643Y-109208164D01*
X77228653Y-109208163D01*
X77264746Y-109204418D01*
X77334568Y-109217283D01*
X77386349Y-109265855D01*
X77403651Y-109334711D01*
X77403060Y-109342902D01*
X77395717Y-109412763D01*
X77388790Y-109478671D01*
X77361776Y-109544328D01*
X77303555Y-109584957D01*
X77263480Y-109591500D01*
X76133314Y-109591500D01*
X76065193Y-109571498D01*
X76018700Y-109517842D01*
X76008004Y-109452330D01*
X76012814Y-109406565D01*
X76013504Y-109400000D01*
X75993542Y-109210072D01*
X75988138Y-109193440D01*
X75986111Y-109122472D01*
X76022773Y-109061674D01*
X76086486Y-109030349D01*
X76157019Y-109038443D01*
G37*
%TD.AperFunction*%
%TA.AperFunction,NonConductor*%
G36*
X81727249Y-107967155D02*
G01*
X81727262Y-107967115D01*
X81734201Y-107969416D01*
X81734204Y-107969418D01*
X81888611Y-108020632D01*
X81888613Y-108020632D01*
X81895139Y-108022797D01*
X81901975Y-108023497D01*
X81901978Y-108023498D01*
X81938512Y-108027241D01*
X81999600Y-108033500D01*
X82608261Y-108033500D01*
X82676382Y-108053502D01*
X82697356Y-108070405D01*
X83253356Y-108626405D01*
X83287382Y-108688717D01*
X83282317Y-108759532D01*
X83239770Y-108816368D01*
X83173250Y-108841179D01*
X83164261Y-108841500D01*
X82764366Y-108841500D01*
X82702184Y-108848255D01*
X82565795Y-108899385D01*
X82449239Y-108986739D01*
X82361885Y-109103295D01*
X82310755Y-109239684D01*
X82304000Y-109301866D01*
X82304000Y-109865500D01*
X82283998Y-109933621D01*
X82230342Y-109980114D01*
X82178000Y-109991500D01*
X80968045Y-109991500D01*
X80899924Y-109971498D01*
X80853431Y-109917842D01*
X80843327Y-109847568D01*
X80858926Y-109802500D01*
X80860370Y-109800000D01*
X80934527Y-109671556D01*
X80993542Y-109489928D01*
X81013504Y-109300000D01*
X81011847Y-109284239D01*
X80994232Y-109116635D01*
X80994232Y-109116633D01*
X80993542Y-109110072D01*
X80934527Y-108928444D01*
X80839040Y-108763056D01*
X80740864Y-108654020D01*
X80710146Y-108590013D01*
X80708500Y-108569710D01*
X80708500Y-108094425D01*
X80728502Y-108026304D01*
X80782158Y-107979811D01*
X80852432Y-107969707D01*
X80885747Y-107979317D01*
X80962334Y-108013416D01*
X81055278Y-108033172D01*
X81142678Y-108051750D01*
X81142683Y-108051750D01*
X81149135Y-108053122D01*
X81340109Y-108053122D01*
X81346561Y-108051750D01*
X81346566Y-108051750D01*
X81485282Y-108022264D01*
X81526910Y-108013416D01*
X81532943Y-108010730D01*
X81532946Y-108010729D01*
X81628767Y-107968067D01*
X81699134Y-107958633D01*
X81727249Y-107967155D01*
G37*
%TD.AperFunction*%
%TA.AperFunction,NonConductor*%
G36*
X62117012Y-109313733D02*
G01*
X62123592Y-109319858D01*
X62375231Y-109571498D01*
X62599966Y-109796233D01*
X62610831Y-109808622D01*
X62630295Y-109833987D01*
X62635829Y-109838233D01*
X62669572Y-109900027D01*
X62664507Y-109970842D01*
X62635546Y-110015905D01*
X62184356Y-110467095D01*
X62122044Y-110501121D01*
X62095261Y-110504000D01*
X61898105Y-110504000D01*
X61829984Y-110483998D01*
X61790961Y-110444303D01*
X61752332Y-110381880D01*
X61748478Y-110375652D01*
X61661891Y-110289216D01*
X61627812Y-110226934D01*
X61632815Y-110156114D01*
X61661736Y-110111025D01*
X61744134Y-110028483D01*
X61749305Y-110023303D01*
X61757461Y-110010072D01*
X61838275Y-109878968D01*
X61838276Y-109878966D01*
X61842115Y-109872738D01*
X61884578Y-109744716D01*
X61895632Y-109711389D01*
X61895632Y-109711387D01*
X61897797Y-109704861D01*
X61901210Y-109671556D01*
X61908172Y-109603598D01*
X61908500Y-109600400D01*
X61908500Y-109408957D01*
X61928502Y-109340836D01*
X61982158Y-109294343D01*
X62052432Y-109284239D01*
X62117012Y-109313733D01*
G37*
%TD.AperFunction*%
%TA.AperFunction,NonConductor*%
G36*
X67709969Y-108404807D02*
G01*
X67735967Y-108407631D01*
X67735971Y-108407631D01*
X67739366Y-108408000D01*
X68435634Y-108408000D01*
X68439029Y-108407631D01*
X68439033Y-108407631D01*
X68465031Y-108404807D01*
X68473894Y-108403844D01*
X68501106Y-108403844D01*
X68509969Y-108404807D01*
X68535967Y-108407631D01*
X68535971Y-108407631D01*
X68539366Y-108408000D01*
X69235634Y-108408000D01*
X69239029Y-108407631D01*
X69239033Y-108407631D01*
X69265031Y-108404807D01*
X69273894Y-108403844D01*
X69301106Y-108403844D01*
X69309969Y-108404807D01*
X69335967Y-108407631D01*
X69335971Y-108407631D01*
X69339366Y-108408000D01*
X70035634Y-108408000D01*
X70039029Y-108407631D01*
X70039033Y-108407631D01*
X70065031Y-108404807D01*
X70073894Y-108403844D01*
X70101106Y-108403844D01*
X70115551Y-108405413D01*
X70181112Y-108432657D01*
X70221536Y-108491022D01*
X70223990Y-108561976D01*
X70188376Y-108620800D01*
X70188747Y-108621134D01*
X70060960Y-108763056D01*
X69965473Y-108928444D01*
X69906458Y-109110072D01*
X69892836Y-109239684D01*
X69889127Y-109274970D01*
X69862114Y-109340627D01*
X69815066Y-109376907D01*
X69743248Y-109408882D01*
X69588747Y-109521134D01*
X69584326Y-109526044D01*
X69584325Y-109526045D01*
X69517376Y-109600400D01*
X69460960Y-109663056D01*
X69365473Y-109828444D01*
X69306458Y-110010072D01*
X69305768Y-110016633D01*
X69305768Y-110016635D01*
X69293871Y-110129834D01*
X69286496Y-110200000D01*
X69287186Y-110206565D01*
X69304958Y-110375652D01*
X69306458Y-110389928D01*
X69335016Y-110477820D01*
X69337044Y-110548786D01*
X69300381Y-110609584D01*
X69236669Y-110640909D01*
X69166136Y-110632817D01*
X69126088Y-110605850D01*
X67143333Y-108623095D01*
X67109307Y-108560783D01*
X67114372Y-108489968D01*
X67156919Y-108433132D01*
X67223439Y-108408321D01*
X67232428Y-108408000D01*
X67635634Y-108408000D01*
X67639029Y-108407631D01*
X67639033Y-108407631D01*
X67665031Y-108404807D01*
X67673894Y-108403844D01*
X67701106Y-108403844D01*
X67709969Y-108404807D01*
G37*
%TD.AperFunction*%
%TA.AperFunction,NonConductor*%
G36*
X71426586Y-110739288D02*
G01*
X71470474Y-110795095D01*
X71479500Y-110841925D01*
X71479500Y-111348134D01*
X71479869Y-111351529D01*
X71479869Y-111351533D01*
X71483656Y-111386393D01*
X71483656Y-111413606D01*
X71479500Y-111451866D01*
X71479500Y-112148134D01*
X71483342Y-112183498D01*
X71483656Y-112186393D01*
X71483656Y-112213606D01*
X71479500Y-112251866D01*
X71479500Y-112655072D01*
X71459498Y-112723193D01*
X71405842Y-112769686D01*
X71335568Y-112779790D01*
X71270988Y-112750296D01*
X71264405Y-112744167D01*
X70996789Y-112476551D01*
X70983948Y-112461517D01*
X70976001Y-112450579D01*
X70971341Y-112444165D01*
X70935747Y-112414719D01*
X70926968Y-112406730D01*
X70730822Y-112210584D01*
X70730818Y-112210581D01*
X69800869Y-111280631D01*
X69766843Y-111218320D01*
X69771908Y-111147505D01*
X69814455Y-111090669D01*
X69880975Y-111065858D01*
X69917392Y-111070301D01*
X69917712Y-111068794D01*
X70098056Y-111107128D01*
X70098061Y-111107128D01*
X70104513Y-111108500D01*
X70295487Y-111108500D01*
X70301939Y-111107128D01*
X70301944Y-111107128D01*
X70403923Y-111085451D01*
X70482288Y-111068794D01*
X70488319Y-111066109D01*
X70650722Y-110993803D01*
X70650724Y-110993802D01*
X70656752Y-110991118D01*
X70811253Y-110878866D01*
X70837074Y-110850189D01*
X70897520Y-110812950D01*
X70930710Y-110808500D01*
X70939864Y-110808500D01*
X70956307Y-110809578D01*
X70988000Y-110813750D01*
X70996189Y-110812672D01*
X71027874Y-110808501D01*
X71027884Y-110808500D01*
X71027885Y-110808500D01*
X71129585Y-110795111D01*
X71129707Y-110795095D01*
X71138663Y-110793916D01*
X71138664Y-110793916D01*
X71146851Y-110792838D01*
X71294876Y-110731524D01*
X71294959Y-110731724D01*
X71359494Y-110716068D01*
X71426586Y-110739288D01*
G37*
%TD.AperFunction*%
%TA.AperFunction,NonConductor*%
G36*
X91733621Y-111228502D02*
G01*
X91780114Y-111282158D01*
X91791500Y-111334500D01*
X91791500Y-111781749D01*
X91773953Y-111845888D01*
X91743176Y-111897929D01*
X91690855Y-111986399D01*
X91688644Y-111994010D01*
X91688643Y-111994012D01*
X91673472Y-112046231D01*
X91644438Y-112146169D01*
X91641500Y-112183498D01*
X91641500Y-112976761D01*
X91621498Y-113044882D01*
X91567842Y-113091375D01*
X91497568Y-113101479D01*
X91432988Y-113071985D01*
X91426405Y-113065856D01*
X91345405Y-112984856D01*
X91311379Y-112922544D01*
X91308500Y-112895761D01*
X91308500Y-112348144D01*
X91309578Y-112331698D01*
X91312673Y-112308188D01*
X91313751Y-112300000D01*
X91298794Y-112186393D01*
X91293916Y-112149337D01*
X91292838Y-112141149D01*
X91231524Y-111993124D01*
X91158478Y-111897929D01*
X91158474Y-111897925D01*
X91156814Y-111895761D01*
X91139016Y-111872566D01*
X91139013Y-111872563D01*
X91133987Y-111866013D01*
X91124750Y-111858925D01*
X91108621Y-111846548D01*
X91096230Y-111835681D01*
X90684144Y-111423595D01*
X90650118Y-111361283D01*
X90655183Y-111290468D01*
X90697730Y-111233632D01*
X90764250Y-111208821D01*
X90773239Y-111208500D01*
X91665500Y-111208500D01*
X91733621Y-111228502D01*
G37*
%TD.AperFunction*%
%TA.AperFunction,NonConductor*%
G36*
X81137411Y-112728502D02*
G01*
X81162926Y-112750189D01*
X81188747Y-112778866D01*
X81220692Y-112802075D01*
X81236505Y-112813564D01*
X81279859Y-112869786D01*
X81285934Y-112940522D01*
X81252803Y-113003314D01*
X81190983Y-113038225D01*
X81162444Y-113041500D01*
X80982056Y-113041500D01*
X80970200Y-113040941D01*
X80970197Y-113040941D01*
X80962463Y-113039212D01*
X80907446Y-113040941D01*
X80891631Y-113041438D01*
X80887673Y-113041500D01*
X80858568Y-113041500D01*
X80854168Y-113042056D01*
X80842336Y-113042988D01*
X80796169Y-113044438D01*
X80775579Y-113050420D01*
X80756218Y-113054430D01*
X80754268Y-113054676D01*
X80742796Y-113056125D01*
X80742795Y-113056125D01*
X80734936Y-113057118D01*
X80727571Y-113060034D01*
X80727567Y-113060035D01*
X80691979Y-113074126D01*
X80680769Y-113077965D01*
X80636400Y-113090855D01*
X80617935Y-113101775D01*
X80600195Y-113110466D01*
X80580244Y-113118365D01*
X80576555Y-113121045D01*
X80508690Y-113136011D01*
X80442099Y-113111390D01*
X80399390Y-113054676D01*
X80394518Y-112990031D01*
X80393542Y-112989928D01*
X80394106Y-112984564D01*
X80394106Y-112984563D01*
X80411262Y-112821329D01*
X80438275Y-112755673D01*
X80496497Y-112715043D01*
X80536572Y-112708500D01*
X81069290Y-112708500D01*
X81137411Y-112728502D01*
G37*
%TD.AperFunction*%
%TA.AperFunction,NonConductor*%
G36*
X59021774Y-112689566D02*
G01*
X59050541Y-112711090D01*
X59135685Y-112796234D01*
X59146552Y-112808625D01*
X59166013Y-112833987D01*
X59172563Y-112839013D01*
X59197921Y-112858471D01*
X59197937Y-112858485D01*
X59229420Y-112882642D01*
X59293124Y-112931524D01*
X59441149Y-112992838D01*
X59600000Y-113013751D01*
X59631699Y-113009578D01*
X59648144Y-113008500D01*
X61738761Y-113008500D01*
X61806882Y-113028502D01*
X61853375Y-113082158D01*
X61863479Y-113152432D01*
X61833985Y-113217012D01*
X61827856Y-113223595D01*
X61756856Y-113294595D01*
X61694544Y-113328621D01*
X61667761Y-113331500D01*
X59080478Y-113331500D01*
X59012357Y-113311498D01*
X58974686Y-113273940D01*
X58969990Y-113266680D01*
X58893865Y-113149009D01*
X58870322Y-113112617D01*
X58870320Y-113112614D01*
X58867514Y-113108277D01*
X58861595Y-113101772D01*
X58720298Y-112946488D01*
X58689246Y-112882642D01*
X58697641Y-112812143D01*
X58742817Y-112757375D01*
X58769261Y-112743706D01*
X58875797Y-112703767D01*
X58884205Y-112700615D01*
X58891392Y-112695229D01*
X58899260Y-112690921D01*
X58900823Y-112693776D01*
X58952392Y-112674511D01*
X59021774Y-112689566D01*
G37*
%TD.AperFunction*%
%TA.AperFunction,NonConductor*%
G36*
X98243886Y-113632815D02*
G01*
X98288976Y-113661737D01*
X98315777Y-113688492D01*
X98349855Y-113750775D01*
X98344851Y-113821595D01*
X98302354Y-113878467D01*
X98293063Y-113884806D01*
X98225652Y-113926522D01*
X98100695Y-114051697D01*
X98098094Y-114055916D01*
X98040970Y-114096417D01*
X97970047Y-114099649D01*
X97908635Y-114064024D01*
X97902078Y-114056470D01*
X97898478Y-114050652D01*
X97893296Y-114045479D01*
X97893293Y-114045475D01*
X97872493Y-114024712D01*
X97838412Y-113962430D01*
X97843414Y-113891610D01*
X97885911Y-113834737D01*
X97895206Y-113828394D01*
X98018120Y-113752332D01*
X98024348Y-113748478D01*
X98110784Y-113661891D01*
X98173066Y-113627812D01*
X98243886Y-113632815D01*
G37*
%TD.AperFunction*%
%TA.AperFunction,NonConductor*%
G36*
X79718535Y-113702794D02*
G01*
X79775168Y-113745611D01*
X79799662Y-113812248D01*
X79784241Y-113881550D01*
X79772320Y-113897925D01*
X79772635Y-113898154D01*
X79767976Y-113904566D01*
X79762548Y-113910347D01*
X79758727Y-113917298D01*
X79758726Y-113917299D01*
X79752217Y-113929138D01*
X79741363Y-113945662D01*
X79733538Y-113955751D01*
X79728216Y-113962612D01*
X79725069Y-113969884D01*
X79725068Y-113969886D01*
X79709866Y-114005015D01*
X79704644Y-114015675D01*
X79682396Y-114056143D01*
X79677061Y-114076921D01*
X79670662Y-114095611D01*
X79662140Y-114115304D01*
X79655207Y-114159076D01*
X79654914Y-114160928D01*
X79652507Y-114172550D01*
X79647572Y-114191772D01*
X79611259Y-114252779D01*
X79547727Y-114284468D01*
X79477148Y-114276780D01*
X79421930Y-114232154D01*
X79400220Y-114173610D01*
X79394232Y-114116634D01*
X79394231Y-114116631D01*
X79393542Y-114110072D01*
X79334527Y-113928444D01*
X79331193Y-113922668D01*
X79316662Y-113897501D01*
X79299923Y-113828506D01*
X79323143Y-113761414D01*
X79378949Y-113717526D01*
X79425780Y-113708500D01*
X79595487Y-113708500D01*
X79601940Y-113707128D01*
X79601953Y-113707127D01*
X79647745Y-113697393D01*
X79718535Y-113702794D01*
G37*
%TD.AperFunction*%
%TA.AperFunction,NonConductor*%
G36*
X65932149Y-109278502D02*
G01*
X65953123Y-109295405D01*
X69770035Y-113112316D01*
X69770036Y-113112318D01*
X69792095Y-113134377D01*
X69826121Y-113196689D01*
X69829000Y-113223472D01*
X69829000Y-114266000D01*
X69808998Y-114334121D01*
X69755342Y-114380614D01*
X69703000Y-114392000D01*
X69339366Y-114392000D01*
X69335971Y-114392369D01*
X69335967Y-114392369D01*
X69309969Y-114395193D01*
X69301106Y-114396156D01*
X69273894Y-114396156D01*
X69265031Y-114395193D01*
X69239033Y-114392369D01*
X69239029Y-114392369D01*
X69235634Y-114392000D01*
X68539366Y-114392000D01*
X68535971Y-114392369D01*
X68535967Y-114392369D01*
X68509969Y-114395193D01*
X68501106Y-114396156D01*
X68473894Y-114396156D01*
X68465031Y-114395193D01*
X68439033Y-114392369D01*
X68439029Y-114392369D01*
X68435634Y-114392000D01*
X67739366Y-114392000D01*
X67735971Y-114392369D01*
X67735967Y-114392369D01*
X67709969Y-114395193D01*
X67701106Y-114396156D01*
X67673894Y-114396156D01*
X67665031Y-114395193D01*
X67639033Y-114392369D01*
X67639029Y-114392369D01*
X67635634Y-114392000D01*
X66939366Y-114392000D01*
X66935971Y-114392369D01*
X66935967Y-114392369D01*
X66909969Y-114395193D01*
X66901106Y-114396156D01*
X66873894Y-114396156D01*
X66865031Y-114395193D01*
X66839033Y-114392369D01*
X66839029Y-114392369D01*
X66835634Y-114392000D01*
X66139366Y-114392000D01*
X66135971Y-114392369D01*
X66135967Y-114392369D01*
X66109969Y-114395193D01*
X66101106Y-114396156D01*
X66073894Y-114396156D01*
X66065031Y-114395193D01*
X66039033Y-114392369D01*
X66039029Y-114392369D01*
X66035634Y-114392000D01*
X65621500Y-114392000D01*
X65553379Y-114371998D01*
X65506886Y-114318342D01*
X65495500Y-114266000D01*
X65495500Y-113851866D01*
X65494380Y-113841550D01*
X65491344Y-113813607D01*
X65491344Y-113786393D01*
X65495131Y-113751533D01*
X65495131Y-113751529D01*
X65495500Y-113748134D01*
X65495500Y-113051866D01*
X65494934Y-113046650D01*
X65491344Y-113013607D01*
X65491344Y-112986393D01*
X65491592Y-112984115D01*
X65495500Y-112948134D01*
X65495500Y-112251866D01*
X65491344Y-112213606D01*
X65491344Y-112186393D01*
X65491659Y-112183498D01*
X65495500Y-112148134D01*
X65495500Y-111963882D01*
X65515502Y-111895761D01*
X65569158Y-111849268D01*
X65639432Y-111839164D01*
X65672747Y-111848774D01*
X65673856Y-111849268D01*
X65711466Y-111866013D01*
X65717712Y-111868794D01*
X65811112Y-111888647D01*
X65898056Y-111907128D01*
X65898061Y-111907128D01*
X65904513Y-111908500D01*
X66095487Y-111908500D01*
X66101939Y-111907128D01*
X66101944Y-111907128D01*
X66188887Y-111888647D01*
X66282288Y-111868794D01*
X66288319Y-111866109D01*
X66450722Y-111793803D01*
X66450724Y-111793802D01*
X66456752Y-111791118D01*
X66469648Y-111781749D01*
X66553261Y-111721000D01*
X66611253Y-111678866D01*
X66739040Y-111536944D01*
X66834527Y-111371556D01*
X66893542Y-111189928D01*
X66903975Y-111090669D01*
X66912814Y-111006565D01*
X66913504Y-111000000D01*
X66901180Y-110882745D01*
X66894232Y-110816635D01*
X66894232Y-110816633D01*
X66893542Y-110810072D01*
X66834527Y-110628444D01*
X66739040Y-110463056D01*
X66725070Y-110447540D01*
X66615675Y-110326045D01*
X66615674Y-110326044D01*
X66611253Y-110321134D01*
X66504500Y-110243573D01*
X66462094Y-110212763D01*
X66462093Y-110212762D01*
X66456752Y-110208882D01*
X66450724Y-110206198D01*
X66450722Y-110206197D01*
X66288319Y-110133891D01*
X66288318Y-110133891D01*
X66282288Y-110131206D01*
X66186211Y-110110784D01*
X66101944Y-110092872D01*
X66101939Y-110092872D01*
X66095487Y-110091500D01*
X65904513Y-110091500D01*
X65898061Y-110092872D01*
X65898056Y-110092872D01*
X65813789Y-110110784D01*
X65717712Y-110131206D01*
X65672748Y-110151225D01*
X65602382Y-110160659D01*
X65538085Y-110130553D01*
X65500272Y-110070464D01*
X65495500Y-110036118D01*
X65495500Y-109851866D01*
X65493639Y-109834729D01*
X65491344Y-109813607D01*
X65491344Y-109786393D01*
X65495131Y-109751533D01*
X65495131Y-109751529D01*
X65495500Y-109748134D01*
X65495500Y-109384500D01*
X65515502Y-109316379D01*
X65569158Y-109269886D01*
X65621500Y-109258500D01*
X65864028Y-109258500D01*
X65932149Y-109278502D01*
G37*
%TD.AperFunction*%
%TA.AperFunction,NonConductor*%
G36*
X79558490Y-114402861D02*
G01*
X79615528Y-114445137D01*
X79640655Y-114511539D01*
X79641020Y-114521125D01*
X79641020Y-115140500D01*
X79621018Y-115208621D01*
X79567362Y-115255114D01*
X79515020Y-115266500D01*
X79103147Y-115266500D01*
X79035026Y-115246498D01*
X78988533Y-115192842D01*
X78978429Y-115122568D01*
X79007923Y-115057988D01*
X79029086Y-115038564D01*
X79105909Y-114982749D01*
X79105911Y-114982747D01*
X79111253Y-114978866D01*
X79120322Y-114968794D01*
X79234621Y-114841852D01*
X79234622Y-114841851D01*
X79239040Y-114836944D01*
X79324713Y-114688555D01*
X79331223Y-114677279D01*
X79331224Y-114677278D01*
X79334527Y-114671556D01*
X79380660Y-114529575D01*
X79391500Y-114496213D01*
X79391500Y-114496212D01*
X79392597Y-114492838D01*
X79393542Y-114489928D01*
X79394334Y-114490185D01*
X79425502Y-114432454D01*
X79487651Y-114398133D01*
X79558490Y-114402861D01*
G37*
%TD.AperFunction*%
%TA.AperFunction,NonConductor*%
G36*
X76328865Y-115235976D02*
G01*
X76335422Y-115243530D01*
X76339022Y-115249348D01*
X76344204Y-115254521D01*
X76344205Y-115254522D01*
X76353586Y-115263887D01*
X76387664Y-115326170D01*
X76382660Y-115396990D01*
X76340163Y-115453862D01*
X76290765Y-115476305D01*
X76274176Y-115479831D01*
X76274167Y-115479834D01*
X76267712Y-115481206D01*
X76235748Y-115495437D01*
X76165382Y-115504871D01*
X76101085Y-115474765D01*
X76063272Y-115414676D01*
X76058500Y-115380330D01*
X76058500Y-115378872D01*
X76078502Y-115310751D01*
X76095326Y-115289855D01*
X76131633Y-115253484D01*
X76136805Y-115248303D01*
X76139406Y-115244084D01*
X76196530Y-115203583D01*
X76267453Y-115200351D01*
X76328865Y-115235976D01*
G37*
%TD.AperFunction*%
%TA.AperFunction,NonConductor*%
G36*
X84690332Y-113640099D02*
G01*
X84739124Y-113670384D01*
X85079646Y-114010906D01*
X85113671Y-114073218D01*
X85108606Y-114144034D01*
X85079646Y-114189095D01*
X84556302Y-114712438D01*
X84039145Y-115229595D01*
X83976833Y-115263621D01*
X83950050Y-115266500D01*
X83174600Y-115266500D01*
X83171354Y-115266837D01*
X83171350Y-115266837D01*
X83075692Y-115276762D01*
X83075688Y-115276763D01*
X83068834Y-115277474D01*
X83062298Y-115279655D01*
X83062296Y-115279655D01*
X82937673Y-115321233D01*
X82901054Y-115333450D01*
X82750652Y-115426522D01*
X82745479Y-115431704D01*
X82639259Y-115538109D01*
X82576976Y-115572188D01*
X82506156Y-115567185D01*
X82461068Y-115538264D01*
X82459505Y-115536703D01*
X82348303Y-115425695D01*
X82342072Y-115421854D01*
X82203968Y-115336725D01*
X82203966Y-115336724D01*
X82197738Y-115332885D01*
X82068006Y-115289855D01*
X82036389Y-115279368D01*
X82036387Y-115279368D01*
X82029861Y-115277203D01*
X82023025Y-115276503D01*
X82023022Y-115276502D01*
X81979969Y-115272091D01*
X81925400Y-115266500D01*
X81084020Y-115266500D01*
X81015899Y-115246498D01*
X80969406Y-115192842D01*
X80958020Y-115140500D01*
X80958020Y-114625430D01*
X80978022Y-114557309D01*
X80994925Y-114536335D01*
X81135855Y-114395405D01*
X81198167Y-114361379D01*
X81224950Y-114358500D01*
X83517944Y-114358500D01*
X83529800Y-114359059D01*
X83529803Y-114359059D01*
X83537537Y-114360788D01*
X83608369Y-114358562D01*
X83612327Y-114358500D01*
X83641432Y-114358500D01*
X83645832Y-114357944D01*
X83657664Y-114357012D01*
X83703831Y-114355562D01*
X83724421Y-114349580D01*
X83743782Y-114345570D01*
X83750770Y-114344688D01*
X83757204Y-114343875D01*
X83757205Y-114343875D01*
X83765064Y-114342882D01*
X83772429Y-114339966D01*
X83772433Y-114339965D01*
X83808021Y-114325874D01*
X83819231Y-114322035D01*
X83863600Y-114309145D01*
X83882065Y-114298225D01*
X83899805Y-114289534D01*
X83919756Y-114281635D01*
X83957129Y-114254482D01*
X83967048Y-114247967D01*
X83999977Y-114228493D01*
X83999981Y-114228490D01*
X84006807Y-114224453D01*
X84021971Y-114209289D01*
X84037005Y-114196448D01*
X84047124Y-114189096D01*
X84054357Y-114183841D01*
X84083803Y-114148247D01*
X84091792Y-114139468D01*
X84495105Y-113736155D01*
X84503885Y-113728165D01*
X84503887Y-113728163D01*
X84510580Y-113723916D01*
X84558180Y-113673227D01*
X84619393Y-113637262D01*
X84690332Y-113640099D01*
G37*
%TD.AperFunction*%
%TA.AperFunction,NonConductor*%
G36*
X90026070Y-112788678D02*
G01*
X90076188Y-112838964D01*
X90091500Y-112899165D01*
X90091500Y-113151864D01*
X90090422Y-113168307D01*
X90086250Y-113200000D01*
X90091500Y-113239880D01*
X90091500Y-113239885D01*
X90103606Y-113331837D01*
X90107162Y-113358851D01*
X90168476Y-113506876D01*
X90173503Y-113513427D01*
X90173504Y-113513429D01*
X90241520Y-113602069D01*
X90241526Y-113602075D01*
X90266013Y-113633987D01*
X90272568Y-113639017D01*
X90291379Y-113653452D01*
X90303770Y-113664319D01*
X90935685Y-114296234D01*
X90946552Y-114308625D01*
X90966013Y-114333987D01*
X90972563Y-114339013D01*
X90997921Y-114358471D01*
X90997928Y-114358477D01*
X91050420Y-114398755D01*
X91093125Y-114431524D01*
X91241150Y-114492838D01*
X91360115Y-114508500D01*
X91360120Y-114508500D01*
X91360129Y-114508501D01*
X91391812Y-114512672D01*
X91400000Y-114513750D01*
X91431693Y-114509578D01*
X91448136Y-114508500D01*
X91515500Y-114508500D01*
X91583621Y-114528502D01*
X91630114Y-114582158D01*
X91641500Y-114634500D01*
X91641500Y-115578000D01*
X91621498Y-115646121D01*
X91567842Y-115692614D01*
X91515500Y-115704000D01*
X90938575Y-115704000D01*
X90870454Y-115683998D01*
X90831431Y-115644303D01*
X90821510Y-115628270D01*
X90773478Y-115550652D01*
X90648303Y-115425695D01*
X90642072Y-115421854D01*
X90503968Y-115336725D01*
X90503966Y-115336724D01*
X90497738Y-115332885D01*
X90368006Y-115289855D01*
X90336389Y-115279368D01*
X90336387Y-115279368D01*
X90329861Y-115277203D01*
X90323025Y-115276503D01*
X90323022Y-115276502D01*
X90279969Y-115272091D01*
X90225400Y-115266500D01*
X89174600Y-115266500D01*
X89171354Y-115266837D01*
X89171350Y-115266837D01*
X89075692Y-115276762D01*
X89075688Y-115276763D01*
X89068834Y-115277474D01*
X89062298Y-115279655D01*
X89062296Y-115279655D01*
X88937673Y-115321233D01*
X88901054Y-115333450D01*
X88750652Y-115426522D01*
X88672440Y-115504871D01*
X88667034Y-115510286D01*
X88604752Y-115544365D01*
X88533932Y-115539362D01*
X88477036Y-115496834D01*
X88413261Y-115411739D01*
X88296705Y-115324385D01*
X88160316Y-115273255D01*
X88098134Y-115266500D01*
X87584500Y-115266500D01*
X87516379Y-115246498D01*
X87469886Y-115192842D01*
X87458500Y-115140500D01*
X87458500Y-114882056D01*
X87459059Y-114870200D01*
X87459059Y-114870197D01*
X87460788Y-114862463D01*
X87458562Y-114791631D01*
X87458500Y-114787673D01*
X87458500Y-114758568D01*
X87457944Y-114754168D01*
X87457012Y-114742330D01*
X87456961Y-114740689D01*
X87455562Y-114696169D01*
X87449580Y-114675579D01*
X87445570Y-114656216D01*
X87443875Y-114642796D01*
X87443875Y-114642795D01*
X87442882Y-114634936D01*
X87439966Y-114627571D01*
X87439965Y-114627567D01*
X87425876Y-114591982D01*
X87422031Y-114580753D01*
X87418035Y-114567000D01*
X87409145Y-114536399D01*
X87398230Y-114517943D01*
X87389531Y-114500187D01*
X87389182Y-114499307D01*
X87381635Y-114480244D01*
X87354480Y-114442868D01*
X87347965Y-114432949D01*
X87328492Y-114400023D01*
X87328489Y-114400019D01*
X87324452Y-114393193D01*
X87309291Y-114378032D01*
X87296449Y-114362997D01*
X87295940Y-114362296D01*
X87283841Y-114345643D01*
X87248248Y-114316198D01*
X87239468Y-114308208D01*
X87120355Y-114189095D01*
X87086329Y-114126783D01*
X87091394Y-114055968D01*
X87120355Y-114010905D01*
X87364165Y-113767095D01*
X87426477Y-113733069D01*
X87497292Y-113738134D01*
X87554128Y-113780681D01*
X87556535Y-113784291D01*
X87559011Y-113787483D01*
X87563047Y-113794307D01*
X87578211Y-113809471D01*
X87591051Y-113824504D01*
X87603659Y-113841857D01*
X87630603Y-113864147D01*
X87639252Y-113871302D01*
X87648032Y-113879292D01*
X87857030Y-114088290D01*
X87891056Y-114150602D01*
X87893244Y-114164211D01*
X87906458Y-114289928D01*
X87908498Y-114296205D01*
X87908498Y-114296207D01*
X87924537Y-114345570D01*
X87965473Y-114471556D01*
X87968776Y-114477278D01*
X87968777Y-114477279D01*
X87986803Y-114508500D01*
X88060960Y-114636944D01*
X88065378Y-114641851D01*
X88065379Y-114641852D01*
X88174997Y-114763595D01*
X88188747Y-114778866D01*
X88287843Y-114850864D01*
X88325884Y-114878502D01*
X88343248Y-114891118D01*
X88349276Y-114893802D01*
X88349278Y-114893803D01*
X88511681Y-114966109D01*
X88517712Y-114968794D01*
X88583365Y-114982749D01*
X88698056Y-115007128D01*
X88698061Y-115007128D01*
X88704513Y-115008500D01*
X88895487Y-115008500D01*
X88901939Y-115007128D01*
X88901944Y-115007128D01*
X89016635Y-114982749D01*
X89082288Y-114968794D01*
X89088319Y-114966109D01*
X89250722Y-114893803D01*
X89250724Y-114893802D01*
X89256752Y-114891118D01*
X89274117Y-114878502D01*
X89312157Y-114850864D01*
X89411253Y-114778866D01*
X89425003Y-114763595D01*
X89534621Y-114641852D01*
X89534622Y-114641851D01*
X89539040Y-114636944D01*
X89613197Y-114508500D01*
X89631223Y-114477279D01*
X89631224Y-114477278D01*
X89634527Y-114471556D01*
X89693542Y-114289928D01*
X89697447Y-114252779D01*
X89712814Y-114106565D01*
X89713504Y-114100000D01*
X89708972Y-114056880D01*
X89694232Y-113916635D01*
X89694232Y-113916633D01*
X89693542Y-113910072D01*
X89634527Y-113728444D01*
X89628224Y-113717526D01*
X89561890Y-113602633D01*
X89539040Y-113563056D01*
X89411253Y-113421134D01*
X89407671Y-113418531D01*
X89370856Y-113358769D01*
X89372211Y-113287786D01*
X89411728Y-113228803D01*
X89463262Y-113203002D01*
X89464959Y-113202599D01*
X89472816Y-113201745D01*
X89609205Y-113150615D01*
X89725761Y-113063261D01*
X89813115Y-112946705D01*
X89816268Y-112938295D01*
X89847518Y-112854936D01*
X89890159Y-112798171D01*
X89956721Y-112773471D01*
X90026070Y-112788678D01*
G37*
%TD.AperFunction*%
%TA.AperFunction,NonConductor*%
G36*
X61066882Y-114568502D02*
G01*
X61113375Y-114622158D01*
X61123479Y-114692432D01*
X61093985Y-114757012D01*
X61087856Y-114763595D01*
X60016856Y-115834595D01*
X59954544Y-115868621D01*
X59927761Y-115871500D01*
X59080478Y-115871500D01*
X59012357Y-115851498D01*
X58974686Y-115813940D01*
X58969990Y-115806680D01*
X58896197Y-115692614D01*
X58870322Y-115652617D01*
X58870320Y-115652614D01*
X58867514Y-115648277D01*
X58717170Y-115483051D01*
X58713119Y-115479852D01*
X58713115Y-115479848D01*
X58545914Y-115347800D01*
X58545910Y-115347798D01*
X58541859Y-115344598D01*
X58500553Y-115321796D01*
X58450584Y-115271364D01*
X58435812Y-115201921D01*
X58460928Y-115135516D01*
X58488280Y-115108909D01*
X58547905Y-115066379D01*
X58667360Y-114981173D01*
X58674604Y-114973955D01*
X58785685Y-114863261D01*
X58825596Y-114823489D01*
X58854871Y-114782749D01*
X58952935Y-114646277D01*
X58955953Y-114642077D01*
X58964180Y-114625430D01*
X58967519Y-114618675D01*
X59015632Y-114566467D01*
X59080477Y-114548500D01*
X60998761Y-114548500D01*
X61066882Y-114568502D01*
G37*
%TD.AperFunction*%
%TA.AperFunction,NonConductor*%
G36*
X97934434Y-116017378D02*
G01*
X97991305Y-116059877D01*
X98016171Y-116126377D01*
X98016500Y-116135470D01*
X98016500Y-116231905D01*
X97996498Y-116300026D01*
X97942842Y-116346519D01*
X97872568Y-116356623D01*
X97807988Y-116327129D01*
X97796862Y-116316213D01*
X97791981Y-116310791D01*
X97790862Y-116309548D01*
X97760146Y-116245541D01*
X97758500Y-116225241D01*
X97758500Y-116141480D01*
X97778502Y-116073359D01*
X97795330Y-116052459D01*
X97801330Y-116046449D01*
X97863614Y-116012372D01*
X97934434Y-116017378D01*
G37*
%TD.AperFunction*%
%TA.AperFunction,NonConductor*%
G36*
X78737592Y-115198744D02*
G01*
X78794225Y-115241561D01*
X78818718Y-115308199D01*
X78803297Y-115377500D01*
X78782093Y-115405684D01*
X78781419Y-115406358D01*
X78774239Y-115411739D01*
X78686885Y-115528295D01*
X78635755Y-115664684D01*
X78629000Y-115726866D01*
X78629000Y-116715980D01*
X78608998Y-116784101D01*
X78555342Y-116830594D01*
X78503000Y-116841980D01*
X78472000Y-116841980D01*
X78403879Y-116821978D01*
X78357386Y-116768322D01*
X78346000Y-116715980D01*
X78346000Y-115726866D01*
X78339245Y-115664684D01*
X78288115Y-115528295D01*
X78282730Y-115521110D01*
X78282729Y-115521108D01*
X78200906Y-115411932D01*
X78176058Y-115345425D01*
X78191111Y-115276043D01*
X78202849Y-115258277D01*
X78206638Y-115253479D01*
X78211805Y-115248303D01*
X78215644Y-115242075D01*
X78216981Y-115240382D01*
X78274897Y-115199318D01*
X78342062Y-115195226D01*
X78398049Y-115207127D01*
X78398058Y-115207128D01*
X78404513Y-115208500D01*
X78595487Y-115208500D01*
X78626439Y-115201921D01*
X78666802Y-115193342D01*
X78737592Y-115198744D01*
G37*
%TD.AperFunction*%
%TA.AperFunction,NonConductor*%
G36*
X74068061Y-114878502D02*
G01*
X74114554Y-114932158D01*
X74119464Y-114944623D01*
X74170950Y-115098946D01*
X74264022Y-115249348D01*
X74269204Y-115254521D01*
X74281574Y-115266869D01*
X74389197Y-115374305D01*
X74481363Y-115431117D01*
X74528855Y-115483888D01*
X74540279Y-115553959D01*
X74512005Y-115619083D01*
X74481549Y-115645520D01*
X74434875Y-115674403D01*
X74350652Y-115726522D01*
X74225695Y-115851697D01*
X74221855Y-115857927D01*
X74221854Y-115857928D01*
X74168727Y-115944116D01*
X74115955Y-115991609D01*
X74061467Y-116004000D01*
X73557056Y-116004000D01*
X73545200Y-116003441D01*
X73545197Y-116003441D01*
X73537463Y-116001712D01*
X73482446Y-116003441D01*
X73466631Y-116003938D01*
X73462673Y-116004000D01*
X73433568Y-116004000D01*
X73429168Y-116004556D01*
X73417336Y-116005488D01*
X73371169Y-116006938D01*
X73350579Y-116012920D01*
X73331218Y-116016930D01*
X73327669Y-116017378D01*
X73317796Y-116018625D01*
X73317795Y-116018625D01*
X73309936Y-116019618D01*
X73302571Y-116022534D01*
X73302567Y-116022535D01*
X73266979Y-116036626D01*
X73255769Y-116040465D01*
X73211400Y-116053355D01*
X73192943Y-116064271D01*
X73175193Y-116072966D01*
X73155244Y-116080865D01*
X73148833Y-116085523D01*
X73148831Y-116085524D01*
X73117864Y-116108023D01*
X73107946Y-116114538D01*
X73068193Y-116138048D01*
X73053032Y-116153209D01*
X73038000Y-116166048D01*
X73020643Y-116178659D01*
X73015593Y-116184763D01*
X73015591Y-116184765D01*
X72991188Y-116214263D01*
X72983199Y-116223041D01*
X72276645Y-116929595D01*
X72214333Y-116963621D01*
X72187550Y-116966500D01*
X72025108Y-116966500D01*
X71956987Y-116946498D01*
X71910494Y-116892842D01*
X71900390Y-116822568D01*
X71929884Y-116757988D01*
X71937567Y-116750830D01*
X71937230Y-116750493D01*
X71943581Y-116744142D01*
X71950761Y-116738761D01*
X72038115Y-116622205D01*
X72089245Y-116485816D01*
X72096000Y-116423634D01*
X72096000Y-115134500D01*
X72116002Y-115066379D01*
X72169658Y-115019886D01*
X72222000Y-115008500D01*
X73511134Y-115008500D01*
X73573316Y-115001745D01*
X73709705Y-114950615D01*
X73799024Y-114883674D01*
X73865530Y-114858826D01*
X73874589Y-114858500D01*
X73999940Y-114858500D01*
X74068061Y-114878502D01*
G37*
%TD.AperFunction*%
%TA.AperFunction,NonConductor*%
G36*
X76815613Y-117242787D02*
G01*
X76860613Y-117276626D01*
X76862508Y-117274731D01*
X76868858Y-117281081D01*
X76874239Y-117288261D01*
X76986408Y-117372327D01*
X76986409Y-117372328D01*
X76990795Y-117375615D01*
X76990320Y-117376248D01*
X77035311Y-117421343D01*
X77050323Y-117490735D01*
X77025435Y-117557226D01*
X77016505Y-117567853D01*
X77000528Y-117584867D01*
X76996707Y-117591818D01*
X76996706Y-117591819D01*
X76990197Y-117603658D01*
X76979343Y-117620182D01*
X76971518Y-117630271D01*
X76966196Y-117637132D01*
X76963049Y-117644404D01*
X76963048Y-117644406D01*
X76947846Y-117679535D01*
X76942624Y-117690195D01*
X76932899Y-117707885D01*
X76920376Y-117730663D01*
X76915041Y-117751441D01*
X76908642Y-117770131D01*
X76900120Y-117789824D01*
X76896375Y-117813469D01*
X76892894Y-117835448D01*
X76890487Y-117847070D01*
X76879917Y-117888240D01*
X76858702Y-117932470D01*
X76786885Y-118028295D01*
X76735755Y-118164684D01*
X76734170Y-118164090D01*
X76703641Y-118217521D01*
X76640684Y-118250337D01*
X76569979Y-118243907D01*
X76513975Y-118200271D01*
X76496758Y-118166599D01*
X76496696Y-118166411D01*
X76466550Y-118076054D01*
X76373478Y-117925652D01*
X76248303Y-117800695D01*
X76244084Y-117798094D01*
X76203583Y-117740970D01*
X76200351Y-117670047D01*
X76235976Y-117608635D01*
X76243530Y-117602078D01*
X76249348Y-117598478D01*
X76374305Y-117473303D01*
X76384207Y-117457240D01*
X76467115Y-117322738D01*
X76468795Y-117323774D01*
X76509121Y-117277969D01*
X76576405Y-117258500D01*
X76645487Y-117258500D01*
X76651940Y-117257128D01*
X76651953Y-117257127D01*
X76744823Y-117237386D01*
X76815613Y-117242787D01*
G37*
%TD.AperFunction*%
%TA.AperFunction,NonConductor*%
G36*
X62993238Y-114683477D02*
G01*
X63050074Y-114726024D01*
X63058599Y-114739272D01*
X63061385Y-114746705D01*
X63066769Y-114753888D01*
X63066769Y-114753889D01*
X63095055Y-114791631D01*
X63148739Y-114863261D01*
X63265295Y-114950615D01*
X63299592Y-114963472D01*
X63317372Y-114970138D01*
X63374136Y-115012780D01*
X63398835Y-115079342D01*
X63383627Y-115148691D01*
X63362236Y-115177215D01*
X60164856Y-118374595D01*
X60102544Y-118408621D01*
X60075761Y-118411500D01*
X59080478Y-118411500D01*
X59012357Y-118391498D01*
X58974686Y-118353940D01*
X58971879Y-118349600D01*
X58908724Y-118251978D01*
X58870322Y-118192617D01*
X58870320Y-118192614D01*
X58867514Y-118188277D01*
X58717170Y-118023051D01*
X58713119Y-118019852D01*
X58713115Y-118019848D01*
X58545914Y-117887800D01*
X58545910Y-117887798D01*
X58541859Y-117884598D01*
X58500553Y-117861796D01*
X58450584Y-117811364D01*
X58435812Y-117741921D01*
X58460928Y-117675516D01*
X58488280Y-117648909D01*
X58544742Y-117608635D01*
X58667360Y-117521173D01*
X58710200Y-117478483D01*
X58777685Y-117411233D01*
X58825596Y-117363489D01*
X58829609Y-117357905D01*
X58952935Y-117186277D01*
X58955953Y-117182077D01*
X58967519Y-117158675D01*
X59015632Y-117106467D01*
X59080477Y-117088500D01*
X60183864Y-117088500D01*
X60200307Y-117089578D01*
X60232000Y-117093750D01*
X60240189Y-117092672D01*
X60271874Y-117088501D01*
X60271884Y-117088500D01*
X60271885Y-117088500D01*
X60382662Y-117073916D01*
X60382664Y-117073916D01*
X60382666Y-117073915D01*
X60390851Y-117072838D01*
X60538876Y-117011524D01*
X60634072Y-116938477D01*
X60634075Y-116938474D01*
X60665987Y-116913987D01*
X60676720Y-116900000D01*
X60685452Y-116888621D01*
X60696319Y-116876230D01*
X62860111Y-114712438D01*
X62922423Y-114678412D01*
X62993238Y-114683477D01*
G37*
%TD.AperFunction*%
%TA.AperFunction,NonConductor*%
G36*
X74129546Y-117341002D02*
G01*
X74168568Y-117380696D01*
X74226522Y-117474348D01*
X74351697Y-117599305D01*
X74355916Y-117601906D01*
X74396417Y-117659030D01*
X74399649Y-117729953D01*
X74364024Y-117791365D01*
X74356470Y-117797922D01*
X74350652Y-117801522D01*
X74345479Y-117806704D01*
X74310923Y-117841320D01*
X74225695Y-117926697D01*
X74221855Y-117932927D01*
X74221854Y-117932928D01*
X74151940Y-118046350D01*
X74132885Y-118077262D01*
X74106436Y-118157005D01*
X74105781Y-118158980D01*
X74077203Y-118245139D01*
X74066500Y-118349600D01*
X74066500Y-118715500D01*
X74046498Y-118783621D01*
X73992842Y-118830114D01*
X73940500Y-118841500D01*
X73159500Y-118841500D01*
X73091379Y-118821498D01*
X73044886Y-118767842D01*
X73033500Y-118715500D01*
X73033500Y-118087451D01*
X73053502Y-118019330D01*
X73070404Y-117998356D01*
X73710854Y-117357905D01*
X73773167Y-117323880D01*
X73799950Y-117321000D01*
X74061425Y-117321000D01*
X74129546Y-117341002D01*
G37*
%TD.AperFunction*%
%TA.AperFunction,NonConductor*%
G36*
X82593844Y-119232815D02*
G01*
X82638932Y-119261736D01*
X82699322Y-119322021D01*
X82733401Y-119384304D01*
X82728398Y-119455124D01*
X82685901Y-119511996D01*
X82620824Y-119536333D01*
X82620849Y-119536594D01*
X82620848Y-119536594D01*
X82620624Y-119536615D01*
X82619882Y-119536685D01*
X82619881Y-119536685D01*
X82617590Y-119536902D01*
X82617587Y-119536902D01*
X82588885Y-119539615D01*
X82574859Y-119540941D01*
X82563004Y-119541500D01*
X82485435Y-119541500D01*
X82417314Y-119521498D01*
X82370821Y-119467842D01*
X82360717Y-119397568D01*
X82390211Y-119332988D01*
X82396262Y-119326482D01*
X82460741Y-119261891D01*
X82523024Y-119227812D01*
X82593844Y-119232815D01*
G37*
%TD.AperFunction*%
%TA.AperFunction,NonConductor*%
G36*
X86883621Y-118178982D02*
G01*
X86930114Y-118232638D01*
X86941500Y-118284980D01*
X86941500Y-119473134D01*
X86948255Y-119535316D01*
X86968625Y-119589653D01*
X86971106Y-119596270D01*
X86976289Y-119667077D01*
X86942369Y-119729446D01*
X86880113Y-119763575D01*
X86853124Y-119766500D01*
X86774600Y-119766500D01*
X86770255Y-119766951D01*
X86759019Y-119768116D01*
X86689198Y-119755250D01*
X86637417Y-119706678D01*
X86620116Y-119637822D01*
X86628036Y-119598559D01*
X86632961Y-119585421D01*
X86651745Y-119535316D01*
X86658500Y-119473134D01*
X86658500Y-118284980D01*
X86678502Y-118216859D01*
X86732158Y-118170366D01*
X86784500Y-118158980D01*
X86815500Y-118158980D01*
X86883621Y-118178982D01*
G37*
%TD.AperFunction*%
%TA.AperFunction,NonConductor*%
G36*
X88750562Y-119376146D02*
G01*
X88751697Y-119374305D01*
X88895090Y-119462694D01*
X88902262Y-119467115D01*
X88936509Y-119478474D01*
X89063611Y-119520632D01*
X89063613Y-119520632D01*
X89070139Y-119522797D01*
X89076975Y-119523497D01*
X89076978Y-119523498D01*
X89120031Y-119527909D01*
X89174600Y-119533500D01*
X89315500Y-119533500D01*
X89383621Y-119553502D01*
X89430114Y-119607158D01*
X89441500Y-119659500D01*
X89441500Y-119998105D01*
X89421498Y-120066226D01*
X89367842Y-120112719D01*
X89297568Y-120122823D01*
X89256824Y-120108720D01*
X89256752Y-120108882D01*
X89250724Y-120106198D01*
X89250722Y-120106197D01*
X89088319Y-120033891D01*
X89088318Y-120033891D01*
X89082288Y-120031206D01*
X88969152Y-120007158D01*
X88901944Y-119992872D01*
X88901939Y-119992872D01*
X88895487Y-119991500D01*
X88704513Y-119991500D01*
X88698061Y-119992872D01*
X88698056Y-119992872D01*
X88560697Y-120022069D01*
X88489906Y-120016667D01*
X88433274Y-119973850D01*
X88408780Y-119907212D01*
X88408500Y-119898822D01*
X88408500Y-119836589D01*
X88428502Y-119768468D01*
X88433674Y-119761024D01*
X88466342Y-119717435D01*
X88500615Y-119671705D01*
X88551745Y-119535316D01*
X88558500Y-119473134D01*
X88558500Y-119473001D01*
X88581942Y-119406654D01*
X88638030Y-119363127D01*
X88708747Y-119356833D01*
X88750562Y-119376146D01*
G37*
%TD.AperFunction*%
%TA.AperFunction,NonConductor*%
G36*
X65797032Y-117067683D02*
G01*
X65853868Y-117110230D01*
X65878679Y-117176750D01*
X65879000Y-117185739D01*
X65879000Y-117508261D01*
X65858998Y-117576382D01*
X65842095Y-117597356D01*
X64056266Y-119383185D01*
X64043875Y-119394052D01*
X64018513Y-119413513D01*
X63994026Y-119445425D01*
X63994023Y-119445428D01*
X63987455Y-119453987D01*
X63929876Y-119529026D01*
X63920976Y-119540624D01*
X63871736Y-119659500D01*
X63862986Y-119680624D01*
X63862821Y-119681021D01*
X63862820Y-119681025D01*
X63859662Y-119688650D01*
X63858585Y-119696834D01*
X63858584Y-119696836D01*
X63844000Y-119807615D01*
X63844000Y-119807620D01*
X63841232Y-119828650D01*
X63838750Y-119847500D01*
X63839828Y-119855688D01*
X63842922Y-119879190D01*
X63844000Y-119895636D01*
X63844000Y-120708678D01*
X63823998Y-120776799D01*
X63776183Y-120820439D01*
X63726107Y-120846507D01*
X63721974Y-120849610D01*
X63721971Y-120849612D01*
X63583082Y-120953893D01*
X63547465Y-120980635D01*
X63491037Y-121039684D01*
X63466783Y-121065064D01*
X63405259Y-121100494D01*
X63334346Y-121097037D01*
X63276560Y-121055791D01*
X63257707Y-121022243D01*
X63216267Y-120911703D01*
X63213115Y-120903295D01*
X63125761Y-120786739D01*
X63009205Y-120699385D01*
X62872816Y-120648255D01*
X62810634Y-120641500D01*
X62647000Y-120641500D01*
X62578879Y-120621498D01*
X62532386Y-120567842D01*
X62521000Y-120515500D01*
X62521000Y-120291739D01*
X62541002Y-120223618D01*
X62557905Y-120202644D01*
X65663905Y-117096644D01*
X65726217Y-117062618D01*
X65797032Y-117067683D01*
G37*
%TD.AperFunction*%
%TA.AperFunction,NonConductor*%
G36*
X68104512Y-120765515D02*
G01*
X68111095Y-120771644D01*
X68402723Y-121063272D01*
X68436749Y-121125584D01*
X68431684Y-121196399D01*
X68417717Y-121223369D01*
X68365703Y-121299619D01*
X68310793Y-121344621D01*
X68240268Y-121352792D01*
X68176521Y-121321538D01*
X68155824Y-121297054D01*
X68075322Y-121172617D01*
X68075320Y-121172614D01*
X68072514Y-121168277D01*
X67928806Y-121010344D01*
X67897755Y-120946498D01*
X67896000Y-120925544D01*
X67896000Y-120860739D01*
X67916002Y-120792618D01*
X67969658Y-120746125D01*
X68039932Y-120736021D01*
X68104512Y-120765515D01*
G37*
%TD.AperFunction*%
%TA.AperFunction,NonConductor*%
G36*
X66597032Y-118667683D02*
G01*
X66653868Y-118710230D01*
X66678679Y-118776750D01*
X66679000Y-118785739D01*
X66679000Y-120581791D01*
X66658998Y-120649912D01*
X66605342Y-120696405D01*
X66592146Y-120701556D01*
X66464256Y-120743357D01*
X66433943Y-120759137D01*
X66327039Y-120814788D01*
X66266107Y-120846507D01*
X66261974Y-120849610D01*
X66261971Y-120849612D01*
X66123082Y-120953893D01*
X66087465Y-120980635D01*
X66083893Y-120984373D01*
X65976229Y-121097037D01*
X65933129Y-121142138D01*
X65825701Y-121299621D01*
X65770793Y-121344621D01*
X65700268Y-121352792D01*
X65636521Y-121321538D01*
X65615824Y-121297054D01*
X65535322Y-121172617D01*
X65535320Y-121172614D01*
X65532514Y-121168277D01*
X65382170Y-121003051D01*
X65378119Y-120999852D01*
X65378115Y-120999848D01*
X65210914Y-120867800D01*
X65210910Y-120867798D01*
X65206859Y-120864598D01*
X65199869Y-120860739D01*
X65159401Y-120838400D01*
X65126107Y-120820021D01*
X65076136Y-120769588D01*
X65061000Y-120709712D01*
X65061000Y-120151739D01*
X65081002Y-120083618D01*
X65097905Y-120062644D01*
X66463905Y-118696644D01*
X66526217Y-118662618D01*
X66597032Y-118667683D01*
G37*
%TD.AperFunction*%
%TA.AperFunction,NonConductor*%
G36*
X82305111Y-120878502D02*
G01*
X82351604Y-120932158D01*
X82361708Y-121002432D01*
X82328083Y-121071551D01*
X82260629Y-121142138D01*
X82153201Y-121299621D01*
X82098293Y-121344621D01*
X82027768Y-121352792D01*
X81964021Y-121321538D01*
X81943324Y-121297054D01*
X81862822Y-121172617D01*
X81862820Y-121172614D01*
X81860014Y-121168277D01*
X81769952Y-121069300D01*
X81738900Y-121005454D01*
X81747296Y-120934955D01*
X81792472Y-120880187D01*
X81863146Y-120858500D01*
X82236990Y-120858500D01*
X82305111Y-120878502D01*
G37*
%TD.AperFunction*%
%TA.AperFunction,NonConductor*%
G36*
X79765111Y-120878502D02*
G01*
X79811604Y-120932158D01*
X79821708Y-121002432D01*
X79788083Y-121071551D01*
X79720629Y-121142138D01*
X79613201Y-121299621D01*
X79558293Y-121344621D01*
X79487768Y-121352792D01*
X79424021Y-121321538D01*
X79403324Y-121297054D01*
X79322822Y-121172617D01*
X79322820Y-121172614D01*
X79320014Y-121168277D01*
X79229952Y-121069300D01*
X79198900Y-121005454D01*
X79207296Y-120934955D01*
X79252472Y-120880187D01*
X79323146Y-120858500D01*
X79696990Y-120858500D01*
X79765111Y-120878502D01*
G37*
%TD.AperFunction*%
%TA.AperFunction,NonConductor*%
G36*
X88424303Y-121727477D02*
G01*
X88431613Y-121730460D01*
X88517712Y-121768794D01*
X88611112Y-121788647D01*
X88698056Y-121807128D01*
X88698061Y-121807128D01*
X88704513Y-121808500D01*
X88756050Y-121808500D01*
X88824171Y-121828502D01*
X88870664Y-121882158D01*
X88880768Y-121952432D01*
X88851274Y-122017012D01*
X88845145Y-122023595D01*
X88627278Y-122241462D01*
X88564966Y-122275488D01*
X88494151Y-122270423D01*
X88437315Y-122227876D01*
X88431055Y-122218694D01*
X88373478Y-122125652D01*
X88248303Y-122000695D01*
X88244084Y-121998094D01*
X88203583Y-121940970D01*
X88200351Y-121870047D01*
X88235976Y-121808635D01*
X88243530Y-121802078D01*
X88249348Y-121798478D01*
X88272523Y-121775263D01*
X88291200Y-121756553D01*
X88353483Y-121722474D01*
X88424303Y-121727477D01*
G37*
%TD.AperFunction*%
%TA.AperFunction,NonConductor*%
G36*
X84996207Y-119162607D02*
G01*
X85035707Y-119221601D01*
X85041500Y-119259366D01*
X85041500Y-119473134D01*
X85048255Y-119535316D01*
X85099385Y-119671705D01*
X85186739Y-119788261D01*
X85303295Y-119875615D01*
X85439684Y-119926745D01*
X85501866Y-119933500D01*
X86072870Y-119933500D01*
X86140991Y-119953502D01*
X86187484Y-120007158D01*
X86197588Y-120077432D01*
X86180130Y-120125616D01*
X86136725Y-120196032D01*
X86132885Y-120202262D01*
X86125802Y-120223618D01*
X86082766Y-120353368D01*
X86077203Y-120370139D01*
X86076503Y-120376975D01*
X86076502Y-120376978D01*
X86075428Y-120387460D01*
X86066500Y-120474600D01*
X86066500Y-121250400D01*
X86066837Y-121253646D01*
X86066837Y-121253650D01*
X86074415Y-121326680D01*
X86077474Y-121356166D01*
X86133450Y-121523946D01*
X86226522Y-121674348D01*
X86351697Y-121799305D01*
X86355916Y-121801906D01*
X86396417Y-121859030D01*
X86399649Y-121929953D01*
X86364024Y-121991365D01*
X86356470Y-121997922D01*
X86350652Y-122001522D01*
X86345479Y-122006704D01*
X86301116Y-122051144D01*
X86225695Y-122126697D01*
X86221855Y-122132927D01*
X86221854Y-122132928D01*
X86168727Y-122219116D01*
X86115955Y-122266609D01*
X86061467Y-122279000D01*
X84797240Y-122279000D01*
X84729119Y-122258998D01*
X84682626Y-122205342D01*
X84672318Y-122136553D01*
X84681092Y-122069908D01*
X84681529Y-122066590D01*
X84681817Y-122054816D01*
X84683074Y-122003365D01*
X84683074Y-122003361D01*
X84683156Y-122000000D01*
X84664852Y-121777361D01*
X84610431Y-121560702D01*
X84521354Y-121355840D01*
X84400014Y-121168277D01*
X84249670Y-121003051D01*
X84245619Y-120999852D01*
X84245615Y-120999848D01*
X84078417Y-120867803D01*
X84074359Y-120864598D01*
X84023704Y-120836635D01*
X83973734Y-120786203D01*
X83963545Y-120760186D01*
X83962882Y-120754936D01*
X83945874Y-120711979D01*
X83942035Y-120700769D01*
X83929145Y-120656400D01*
X83918225Y-120637935D01*
X83909534Y-120620195D01*
X83901635Y-120600244D01*
X83874482Y-120562871D01*
X83867967Y-120552952D01*
X83848493Y-120520023D01*
X83848490Y-120520019D01*
X83844453Y-120513193D01*
X83829289Y-120498029D01*
X83816448Y-120482995D01*
X83808501Y-120472057D01*
X83803841Y-120465643D01*
X83768247Y-120436197D01*
X83759468Y-120428208D01*
X83123655Y-119792395D01*
X83115665Y-119783615D01*
X83115663Y-119783613D01*
X83111416Y-119776920D01*
X83094489Y-119761024D01*
X83083947Y-119751125D01*
X83047982Y-119689913D01*
X83050819Y-119618973D01*
X83091560Y-119560829D01*
X83157268Y-119533940D01*
X83174535Y-119533493D01*
X83174600Y-119533500D01*
X84225400Y-119533500D01*
X84228646Y-119533163D01*
X84228650Y-119533163D01*
X84324308Y-119523238D01*
X84324312Y-119523237D01*
X84331166Y-119522526D01*
X84337702Y-119520345D01*
X84337704Y-119520345D01*
X84469806Y-119476272D01*
X84498946Y-119466550D01*
X84649348Y-119373478D01*
X84774305Y-119248303D01*
X84808241Y-119193249D01*
X84861012Y-119145757D01*
X84931084Y-119134333D01*
X84996207Y-119162607D01*
G37*
%TD.AperFunction*%
%TA.AperFunction,NonConductor*%
G36*
X56057729Y-100028002D02*
G01*
X56104222Y-100081658D01*
X56114326Y-100151932D01*
X56109201Y-100173667D01*
X56082255Y-100254909D01*
X56077203Y-100270139D01*
X56076503Y-100276975D01*
X56076502Y-100276978D01*
X56074393Y-100297563D01*
X56066500Y-100374600D01*
X56066500Y-101150400D01*
X56066837Y-101153646D01*
X56066837Y-101153650D01*
X56076271Y-101244570D01*
X56077474Y-101256166D01*
X56079655Y-101262702D01*
X56079655Y-101262704D01*
X56114149Y-101366095D01*
X56133450Y-101423946D01*
X56226522Y-101574348D01*
X56351697Y-101699305D01*
X56355916Y-101701906D01*
X56396417Y-101759030D01*
X56399649Y-101829953D01*
X56364024Y-101891365D01*
X56356470Y-101897922D01*
X56350652Y-101901522D01*
X56225695Y-102026697D01*
X56221855Y-102032927D01*
X56221854Y-102032928D01*
X56143614Y-102159857D01*
X56132885Y-102177262D01*
X56120843Y-102213569D01*
X56080614Y-102334856D01*
X56077203Y-102345139D01*
X56066500Y-102449600D01*
X56066500Y-103225400D01*
X56066837Y-103228646D01*
X56066837Y-103228650D01*
X56075775Y-103314788D01*
X56077474Y-103331166D01*
X56079655Y-103337702D01*
X56079655Y-103337704D01*
X56106391Y-103417842D01*
X56133450Y-103498946D01*
X56226522Y-103649348D01*
X56351697Y-103774305D01*
X56357929Y-103778147D01*
X56357931Y-103778148D01*
X56414702Y-103813143D01*
X56462195Y-103865915D01*
X56473617Y-103935987D01*
X56445343Y-104001111D01*
X56424150Y-104021228D01*
X56336739Y-104086739D01*
X56249385Y-104203295D01*
X56198255Y-104339684D01*
X56191500Y-104401866D01*
X56191500Y-105698134D01*
X56198255Y-105760316D01*
X56201027Y-105767712D01*
X56201029Y-105767718D01*
X56234039Y-105855771D01*
X56239222Y-105926578D01*
X56234039Y-105944229D01*
X56201029Y-106032282D01*
X56201027Y-106032288D01*
X56198255Y-106039684D01*
X56191500Y-106101866D01*
X56191500Y-107398134D01*
X56198255Y-107460316D01*
X56249385Y-107596705D01*
X56336739Y-107713261D01*
X56453295Y-107800615D01*
X56589684Y-107851745D01*
X56651866Y-107858500D01*
X57595761Y-107858500D01*
X57663882Y-107878502D01*
X57684856Y-107895405D01*
X59473181Y-109683729D01*
X59484048Y-109696120D01*
X59497847Y-109714103D01*
X59517409Y-109750931D01*
X59558450Y-109873946D01*
X59651522Y-110024348D01*
X59723533Y-110096233D01*
X59738109Y-110110784D01*
X59772188Y-110173066D01*
X59767185Y-110243886D01*
X59738264Y-110288975D01*
X59723969Y-110303295D01*
X59650695Y-110376697D01*
X59646855Y-110382927D01*
X59646854Y-110382928D01*
X59573999Y-110501121D01*
X59557885Y-110527262D01*
X59502203Y-110695139D01*
X59501503Y-110701975D01*
X59501502Y-110701978D01*
X59497091Y-110745031D01*
X59491500Y-110799600D01*
X59491500Y-111126761D01*
X59471498Y-111194882D01*
X59417842Y-111241375D01*
X59347568Y-111251479D01*
X59282988Y-111221985D01*
X59276405Y-111215856D01*
X59182905Y-111122356D01*
X59148879Y-111060044D01*
X59146000Y-111033261D01*
X59146000Y-110501866D01*
X59139245Y-110439684D01*
X59088115Y-110303295D01*
X59000761Y-110186739D01*
X58884205Y-110099385D01*
X58747816Y-110048255D01*
X58685634Y-110041500D01*
X56889366Y-110041500D01*
X56827184Y-110048255D01*
X56690795Y-110099385D01*
X56574239Y-110186739D01*
X56486885Y-110303295D01*
X56435755Y-110439684D01*
X56429000Y-110501866D01*
X56429000Y-112298134D01*
X56435755Y-112360316D01*
X56486885Y-112496705D01*
X56574239Y-112613261D01*
X56690795Y-112700615D01*
X56699204Y-112703767D01*
X56699205Y-112703768D01*
X56807951Y-112744535D01*
X56864716Y-112787176D01*
X56889416Y-112853738D01*
X56874209Y-112923087D01*
X56854816Y-112949568D01*
X56752988Y-113056125D01*
X56728129Y-113082138D01*
X56725215Y-113086410D01*
X56725214Y-113086411D01*
X56707338Y-113112617D01*
X56602243Y-113266680D01*
X56587695Y-113298022D01*
X56536413Y-113408500D01*
X56508188Y-113469305D01*
X56448489Y-113684570D01*
X56424751Y-113906695D01*
X56425048Y-113911848D01*
X56425048Y-113911851D01*
X56433822Y-114064024D01*
X56437610Y-114129715D01*
X56438747Y-114134761D01*
X56438748Y-114134767D01*
X56457696Y-114218842D01*
X56486722Y-114347639D01*
X56545681Y-114492838D01*
X56568283Y-114548500D01*
X56570766Y-114554616D01*
X56582179Y-114573240D01*
X56675805Y-114726024D01*
X56687487Y-114745088D01*
X56833750Y-114913938D01*
X57005626Y-115056632D01*
X57044490Y-115079342D01*
X57078945Y-115099476D01*
X57127669Y-115151114D01*
X57140740Y-115220897D01*
X57114009Y-115286669D01*
X57073555Y-115320027D01*
X57061107Y-115326507D01*
X57056974Y-115329610D01*
X57056971Y-115329612D01*
X56886600Y-115457530D01*
X56882465Y-115460635D01*
X56728129Y-115622138D01*
X56725215Y-115626410D01*
X56725214Y-115626411D01*
X56659552Y-115722668D01*
X56602243Y-115806680D01*
X56581439Y-115851498D01*
X56510421Y-116004495D01*
X56508188Y-116009305D01*
X56448489Y-116224570D01*
X56424751Y-116446695D01*
X56425048Y-116451848D01*
X56425048Y-116451851D01*
X56434386Y-116613797D01*
X56437610Y-116669715D01*
X56438747Y-116674761D01*
X56438748Y-116674767D01*
X56446705Y-116710072D01*
X56486722Y-116887639D01*
X56537026Y-117011524D01*
X56568283Y-117088500D01*
X56570766Y-117094616D01*
X56573465Y-117099020D01*
X56679195Y-117271556D01*
X56687487Y-117285088D01*
X56833750Y-117453938D01*
X57005626Y-117596632D01*
X57055288Y-117625652D01*
X57078945Y-117639476D01*
X57127669Y-117691114D01*
X57140740Y-117760897D01*
X57114009Y-117826669D01*
X57073555Y-117860027D01*
X57061107Y-117866507D01*
X57056974Y-117869610D01*
X57056971Y-117869612D01*
X56886600Y-117997530D01*
X56882465Y-118000635D01*
X56728129Y-118162138D01*
X56725215Y-118166410D01*
X56725214Y-118166411D01*
X56680037Y-118232638D01*
X56602243Y-118346680D01*
X56508188Y-118549305D01*
X56448489Y-118764570D01*
X56424751Y-118986695D01*
X56425048Y-118991848D01*
X56425048Y-118991851D01*
X56433557Y-119139426D01*
X56437610Y-119209715D01*
X56438747Y-119214761D01*
X56438748Y-119214767D01*
X56449874Y-119264136D01*
X56486722Y-119427639D01*
X56541532Y-119562620D01*
X56568283Y-119628500D01*
X56570766Y-119634616D01*
X56573465Y-119639020D01*
X56676783Y-119807620D01*
X56687487Y-119825088D01*
X56833750Y-119993938D01*
X57005626Y-120136632D01*
X57198500Y-120249338D01*
X57407192Y-120329030D01*
X57412260Y-120330061D01*
X57412263Y-120330062D01*
X57519517Y-120351883D01*
X57626097Y-120373567D01*
X57631272Y-120373757D01*
X57631274Y-120373757D01*
X57844173Y-120381564D01*
X57844177Y-120381564D01*
X57849337Y-120381753D01*
X57854457Y-120381097D01*
X57854459Y-120381097D01*
X58065788Y-120354025D01*
X58065789Y-120354025D01*
X58070916Y-120353368D01*
X58075866Y-120351883D01*
X58279929Y-120290661D01*
X58279934Y-120290659D01*
X58284884Y-120289174D01*
X58485494Y-120190896D01*
X58667360Y-120061173D01*
X58672311Y-120056240D01*
X58780680Y-119948248D01*
X58825596Y-119903489D01*
X58837172Y-119887380D01*
X58952935Y-119726277D01*
X58955953Y-119722077D01*
X58967519Y-119698675D01*
X59015632Y-119646467D01*
X59080477Y-119628500D01*
X60331864Y-119628500D01*
X60348307Y-119629578D01*
X60380000Y-119633750D01*
X60388189Y-119632672D01*
X60419874Y-119628501D01*
X60419884Y-119628500D01*
X60419885Y-119628500D01*
X60519457Y-119615391D01*
X60530664Y-119613916D01*
X60530666Y-119613915D01*
X60538851Y-119612838D01*
X60686876Y-119551524D01*
X60698358Y-119542714D01*
X60782072Y-119478477D01*
X60782075Y-119478474D01*
X60789034Y-119473134D01*
X60813987Y-119453987D01*
X60819017Y-119447432D01*
X60833452Y-119428621D01*
X60844319Y-119416230D01*
X64645734Y-115614815D01*
X64658116Y-115603955D01*
X64676298Y-115590003D01*
X64742517Y-115564404D01*
X64812066Y-115578669D01*
X64862861Y-115628270D01*
X64879000Y-115689967D01*
X64879000Y-116108261D01*
X64858998Y-116176382D01*
X64842095Y-116197356D01*
X61516266Y-119523185D01*
X61503875Y-119534052D01*
X61478513Y-119553513D01*
X61454026Y-119585425D01*
X61454023Y-119585428D01*
X61454017Y-119585436D01*
X61394272Y-119663297D01*
X61380976Y-119680624D01*
X61364061Y-119721461D01*
X61328373Y-119807620D01*
X61322086Y-119822797D01*
X61319662Y-119828650D01*
X61304000Y-119947615D01*
X61304000Y-119947620D01*
X61298750Y-119987500D01*
X61301619Y-120009289D01*
X61302922Y-120019190D01*
X61304000Y-120035636D01*
X61304000Y-120515500D01*
X61283998Y-120583621D01*
X61230342Y-120630114D01*
X61178000Y-120641500D01*
X61014366Y-120641500D01*
X60952184Y-120648255D01*
X60815795Y-120699385D01*
X60699239Y-120786739D01*
X60611885Y-120903295D01*
X60560755Y-121039684D01*
X60554000Y-121101866D01*
X60554000Y-122898134D01*
X60560755Y-122960316D01*
X60611885Y-123096705D01*
X60699239Y-123213261D01*
X60706419Y-123218642D01*
X60706420Y-123218643D01*
X60768506Y-123265174D01*
X60811021Y-123322033D01*
X60816047Y-123392852D01*
X60781987Y-123455145D01*
X60719655Y-123489135D01*
X60692941Y-123492000D01*
X49134000Y-123492000D01*
X49065879Y-123471998D01*
X49019386Y-123418342D01*
X49008000Y-123366000D01*
X49008000Y-120529733D01*
X50287822Y-120529733D01*
X50287975Y-120534121D01*
X50287975Y-120534127D01*
X50297033Y-120793500D01*
X50297625Y-120810458D01*
X50298387Y-120814781D01*
X50298388Y-120814788D01*
X50321612Y-120946498D01*
X50346402Y-121087087D01*
X50433203Y-121354235D01*
X50435131Y-121358188D01*
X50435133Y-121358193D01*
X50490313Y-121471328D01*
X50556340Y-121606702D01*
X50558795Y-121610341D01*
X50558798Y-121610347D01*
X50628010Y-121712958D01*
X50713415Y-121839576D01*
X50716360Y-121842847D01*
X50716361Y-121842848D01*
X50780392Y-121913961D01*
X50901371Y-122048322D01*
X50904733Y-122051143D01*
X50904734Y-122051144D01*
X50923142Y-122066590D01*
X51116550Y-122228879D01*
X51354764Y-122377731D01*
X51534624Y-122457810D01*
X51601713Y-122487680D01*
X51611375Y-122491982D01*
X51881390Y-122569407D01*
X51885740Y-122570018D01*
X51885743Y-122570019D01*
X51961637Y-122580685D01*
X52159552Y-122608500D01*
X52370146Y-122608500D01*
X52372332Y-122608347D01*
X52372336Y-122608347D01*
X52575827Y-122594118D01*
X52575832Y-122594117D01*
X52580212Y-122593811D01*
X52854970Y-122535409D01*
X52859099Y-122533906D01*
X52859103Y-122533905D01*
X53114781Y-122440846D01*
X53114785Y-122440844D01*
X53118926Y-122439337D01*
X53366942Y-122307464D01*
X53370503Y-122304877D01*
X53590629Y-122144947D01*
X53590632Y-122144944D01*
X53594192Y-122142358D01*
X53597526Y-122139139D01*
X53717175Y-122023595D01*
X53796252Y-121947231D01*
X53969188Y-121725882D01*
X53971384Y-121722078D01*
X53971389Y-121722071D01*
X54107435Y-121486431D01*
X54109636Y-121482619D01*
X54214862Y-121222176D01*
X54221289Y-121196399D01*
X54281753Y-120953893D01*
X54281754Y-120953888D01*
X54282817Y-120949624D01*
X54287348Y-120906521D01*
X54311719Y-120674636D01*
X54311719Y-120674633D01*
X54312178Y-120670267D01*
X54312025Y-120665873D01*
X54302529Y-120393939D01*
X54302528Y-120393933D01*
X54302375Y-120389542D01*
X54300969Y-120381564D01*
X54266068Y-120183632D01*
X54253598Y-120112913D01*
X54166797Y-119845765D01*
X54163650Y-119839311D01*
X54098959Y-119706678D01*
X54043660Y-119593298D01*
X54041205Y-119589659D01*
X54041202Y-119589653D01*
X53968110Y-119481290D01*
X53886585Y-119360424D01*
X53861882Y-119332988D01*
X53750886Y-119209715D01*
X53698629Y-119151678D01*
X53483450Y-118971121D01*
X53245236Y-118822269D01*
X53065376Y-118742190D01*
X52992639Y-118709805D01*
X52992637Y-118709804D01*
X52988625Y-118708018D01*
X52718610Y-118630593D01*
X52714260Y-118629982D01*
X52714257Y-118629981D01*
X52611310Y-118615513D01*
X52440448Y-118591500D01*
X52229854Y-118591500D01*
X52227668Y-118591653D01*
X52227664Y-118591653D01*
X52024173Y-118605882D01*
X52024168Y-118605883D01*
X52019788Y-118606189D01*
X51745030Y-118664591D01*
X51740901Y-118666094D01*
X51740897Y-118666095D01*
X51485219Y-118759154D01*
X51485215Y-118759156D01*
X51481074Y-118760663D01*
X51233058Y-118892536D01*
X51229499Y-118895122D01*
X51229497Y-118895123D01*
X51030447Y-119039741D01*
X51005808Y-119057642D01*
X51002644Y-119060698D01*
X51002641Y-119060700D01*
X50926392Y-119134333D01*
X50803748Y-119252769D01*
X50682088Y-119408487D01*
X50650457Y-119448974D01*
X50630812Y-119474118D01*
X50628616Y-119477922D01*
X50628611Y-119477929D01*
X50549248Y-119615391D01*
X50490364Y-119717381D01*
X50385138Y-119977824D01*
X50384073Y-119982097D01*
X50384072Y-119982099D01*
X50323855Y-120223618D01*
X50317183Y-120250376D01*
X50316724Y-120254744D01*
X50316723Y-120254749D01*
X50288498Y-120523297D01*
X50287822Y-120529733D01*
X49008000Y-120529733D01*
X49008000Y-103229733D01*
X50187822Y-103229733D01*
X50187975Y-103234121D01*
X50187975Y-103234127D01*
X50197441Y-103505176D01*
X50197625Y-103510458D01*
X50198387Y-103514781D01*
X50198388Y-103514788D01*
X50221606Y-103646460D01*
X50246402Y-103787087D01*
X50333203Y-104054235D01*
X50335131Y-104058188D01*
X50335133Y-104058193D01*
X50371787Y-104133343D01*
X50456340Y-104306702D01*
X50458795Y-104310341D01*
X50458798Y-104310347D01*
X50524782Y-104408172D01*
X50613415Y-104539576D01*
X50801371Y-104748322D01*
X51016550Y-104928879D01*
X51254764Y-105077731D01*
X51511375Y-105191982D01*
X51781390Y-105269407D01*
X51785740Y-105270018D01*
X51785743Y-105270019D01*
X51837402Y-105277279D01*
X52059552Y-105308500D01*
X52270146Y-105308500D01*
X52272332Y-105308347D01*
X52272336Y-105308347D01*
X52475827Y-105294118D01*
X52475832Y-105294117D01*
X52480212Y-105293811D01*
X52754970Y-105235409D01*
X52759099Y-105233906D01*
X52759103Y-105233905D01*
X53014781Y-105140846D01*
X53014785Y-105140844D01*
X53018926Y-105139337D01*
X53266942Y-105007464D01*
X53286583Y-104993194D01*
X53490629Y-104844947D01*
X53490632Y-104844944D01*
X53494192Y-104842358D01*
X53528187Y-104809530D01*
X53637819Y-104703659D01*
X53696252Y-104647231D01*
X53869188Y-104425882D01*
X53871384Y-104422078D01*
X53871389Y-104422071D01*
X53998295Y-104202262D01*
X54009636Y-104182619D01*
X54114862Y-103922176D01*
X54124125Y-103885026D01*
X54181753Y-103653893D01*
X54181754Y-103653888D01*
X54182817Y-103649624D01*
X54183676Y-103641457D01*
X54211719Y-103374636D01*
X54211719Y-103374633D01*
X54212178Y-103370267D01*
X54212025Y-103365873D01*
X54202529Y-103093939D01*
X54202528Y-103093933D01*
X54202375Y-103089542D01*
X54199564Y-103073595D01*
X54170630Y-102909506D01*
X54153598Y-102812913D01*
X54066797Y-102545765D01*
X54064558Y-102541173D01*
X54001604Y-102412100D01*
X53943660Y-102293298D01*
X53941205Y-102289659D01*
X53941202Y-102289653D01*
X53847473Y-102150695D01*
X53786585Y-102060424D01*
X53782721Y-102056132D01*
X53621388Y-101876954D01*
X53598629Y-101851678D01*
X53564120Y-101822721D01*
X53386820Y-101673949D01*
X53383450Y-101671121D01*
X53145236Y-101522269D01*
X52942065Y-101431811D01*
X52892639Y-101409805D01*
X52892637Y-101409804D01*
X52888625Y-101408018D01*
X52618610Y-101330593D01*
X52614260Y-101329982D01*
X52614257Y-101329981D01*
X52511310Y-101315513D01*
X52340448Y-101291500D01*
X52129854Y-101291500D01*
X52127668Y-101291653D01*
X52127664Y-101291653D01*
X51924173Y-101305882D01*
X51924168Y-101305883D01*
X51919788Y-101306189D01*
X51645030Y-101364591D01*
X51640901Y-101366094D01*
X51640897Y-101366095D01*
X51385219Y-101459154D01*
X51385215Y-101459156D01*
X51381074Y-101460663D01*
X51133058Y-101592536D01*
X51129499Y-101595122D01*
X51129497Y-101595123D01*
X50973261Y-101708635D01*
X50905808Y-101757642D01*
X50902644Y-101760698D01*
X50902641Y-101760700D01*
X50854756Y-101806942D01*
X50703748Y-101952769D01*
X50619639Y-102060424D01*
X50551511Y-102147625D01*
X50530812Y-102174118D01*
X50528616Y-102177922D01*
X50528611Y-102177929D01*
X50429293Y-102349954D01*
X50390364Y-102417381D01*
X50285138Y-102677824D01*
X50284073Y-102682097D01*
X50284072Y-102682099D01*
X50223867Y-102923569D01*
X50217183Y-102950376D01*
X50216724Y-102954744D01*
X50216723Y-102954749D01*
X50188281Y-103225364D01*
X50187822Y-103229733D01*
X49008000Y-103229733D01*
X49008000Y-100134000D01*
X49028002Y-100065879D01*
X49081658Y-100019386D01*
X49134000Y-100008000D01*
X55989608Y-100008000D01*
X56057729Y-100028002D01*
G37*
%TD.AperFunction*%
%TA.AperFunction,NonConductor*%
G36*
X63435650Y-122913126D02*
G01*
X63470317Y-122941114D01*
X63498750Y-122973938D01*
X63670626Y-123116632D01*
X63863500Y-123229338D01*
X63868325Y-123231180D01*
X63868326Y-123231181D01*
X63913130Y-123248290D01*
X63969633Y-123291278D01*
X63993926Y-123357989D01*
X63978296Y-123427244D01*
X63927704Y-123477054D01*
X63868181Y-123492000D01*
X63132059Y-123492000D01*
X63063938Y-123471998D01*
X63017445Y-123418342D01*
X63007341Y-123348068D01*
X63036835Y-123283488D01*
X63056494Y-123265174D01*
X63118580Y-123218643D01*
X63118581Y-123218642D01*
X63125761Y-123213261D01*
X63213115Y-123096705D01*
X63237298Y-123032197D01*
X63257098Y-122979382D01*
X63299740Y-122922618D01*
X63366302Y-122897918D01*
X63435650Y-122913126D01*
G37*
%TD.AperFunction*%
%TA.AperFunction,NonConductor*%
G36*
X92486954Y-117023232D02*
G01*
X92488038Y-117023439D01*
X92488040Y-117023439D01*
X92495824Y-117024924D01*
X92554236Y-117021249D01*
X92562147Y-117021000D01*
X93237550Y-117021000D01*
X93305671Y-117041002D01*
X93326645Y-117057905D01*
X93408449Y-117139709D01*
X93442475Y-117202021D01*
X93437410Y-117272836D01*
X93394863Y-117329672D01*
X93330776Y-117354284D01*
X93229635Y-117363489D01*
X93161836Y-117369659D01*
X93161833Y-117369660D01*
X93155697Y-117370218D01*
X93149785Y-117371958D01*
X93143731Y-117373113D01*
X93143623Y-117372548D01*
X93116197Y-117376500D01*
X91876866Y-117376500D01*
X91814684Y-117383255D01*
X91678295Y-117434385D01*
X91561739Y-117521739D01*
X91474385Y-117638295D01*
X91423255Y-117774684D01*
X91416500Y-117836866D01*
X91416500Y-119433134D01*
X91416506Y-119433189D01*
X91413411Y-119467598D01*
X91410755Y-119474684D01*
X91409902Y-119482534D01*
X91409902Y-119482535D01*
X91405669Y-119521498D01*
X91404000Y-119536866D01*
X91404000Y-120333134D01*
X91410755Y-120395316D01*
X91461885Y-120531705D01*
X91549239Y-120648261D01*
X91665795Y-120735615D01*
X91674204Y-120738767D01*
X91674205Y-120738768D01*
X91779729Y-120778327D01*
X91836494Y-120820968D01*
X91861194Y-120887530D01*
X91861500Y-120896309D01*
X91861500Y-121845176D01*
X91876333Y-122006600D01*
X91877902Y-122012162D01*
X91877902Y-122012164D01*
X91894593Y-122071345D01*
X91935374Y-122215945D01*
X92031577Y-122411026D01*
X92035031Y-122415652D01*
X92035032Y-122415653D01*
X92123335Y-122533905D01*
X92161720Y-122585309D01*
X92165954Y-122589223D01*
X92165956Y-122589225D01*
X92292583Y-122706277D01*
X92321444Y-122732956D01*
X92505401Y-122849024D01*
X92707428Y-122929624D01*
X92861726Y-122960316D01*
X92910571Y-122970032D01*
X92920761Y-122972059D01*
X92926536Y-122972135D01*
X92926540Y-122972135D01*
X93035581Y-122973562D01*
X93138254Y-122974906D01*
X93143951Y-122973927D01*
X93143952Y-122973927D01*
X93346935Y-122939048D01*
X93346938Y-122939047D01*
X93352625Y-122938070D01*
X93421890Y-122912517D01*
X93492723Y-122907705D01*
X93554913Y-122941952D01*
X93588715Y-123004386D01*
X93591500Y-123030729D01*
X93591500Y-123183134D01*
X93598255Y-123245316D01*
X93601027Y-123252712D01*
X93601029Y-123252718D01*
X93626916Y-123321771D01*
X93632099Y-123392578D01*
X93598178Y-123454947D01*
X93535922Y-123489076D01*
X93508934Y-123492000D01*
X89543450Y-123492000D01*
X89475329Y-123471998D01*
X89428836Y-123418342D01*
X89418732Y-123348068D01*
X89448226Y-123283488D01*
X89454355Y-123276905D01*
X90507600Y-122223659D01*
X90516381Y-122215669D01*
X90516390Y-122215661D01*
X90523080Y-122211416D01*
X90571620Y-122159726D01*
X90574374Y-122156885D01*
X90594926Y-122136333D01*
X90597638Y-122132837D01*
X90605349Y-122123808D01*
X90631544Y-122095913D01*
X90636972Y-122090133D01*
X90647301Y-122071345D01*
X90658158Y-122054816D01*
X90666447Y-122044131D01*
X90666448Y-122044129D01*
X90671304Y-122037869D01*
X90689657Y-121995456D01*
X90694868Y-121984819D01*
X90717124Y-121944337D01*
X90722457Y-121923566D01*
X90728859Y-121904864D01*
X90737379Y-121885177D01*
X90744605Y-121839552D01*
X90747013Y-121827926D01*
X90756529Y-121790865D01*
X90756529Y-121790864D01*
X90758500Y-121783188D01*
X90758500Y-121761742D01*
X90760051Y-121742031D01*
X90762166Y-121728677D01*
X90763406Y-121720849D01*
X90759059Y-121674860D01*
X90758500Y-121663005D01*
X90758500Y-119309658D01*
X90777240Y-119243542D01*
X90863275Y-119103968D01*
X90863276Y-119103966D01*
X90867115Y-119097738D01*
X90922797Y-118929861D01*
X90933500Y-118825400D01*
X90933500Y-118049600D01*
X90932012Y-118035260D01*
X90923238Y-117950692D01*
X90923237Y-117950688D01*
X90922526Y-117943834D01*
X90918888Y-117932928D01*
X90868868Y-117783002D01*
X90866550Y-117776054D01*
X90773478Y-117625652D01*
X90648303Y-117500695D01*
X90644084Y-117498094D01*
X90603583Y-117440970D01*
X90600351Y-117370047D01*
X90635976Y-117308635D01*
X90643530Y-117302078D01*
X90649348Y-117298478D01*
X90774305Y-117173303D01*
X90831273Y-117080884D01*
X90884045Y-117033391D01*
X90938533Y-117021000D01*
X92463345Y-117021000D01*
X92486954Y-117023232D01*
G37*
%TD.AperFunction*%
%TA.AperFunction,NonConductor*%
G36*
X68344526Y-122675144D02*
G01*
X68372375Y-122706994D01*
X68432487Y-122805088D01*
X68578750Y-122973938D01*
X68750626Y-123116632D01*
X68943500Y-123229338D01*
X68948325Y-123231180D01*
X68948326Y-123231181D01*
X68993130Y-123248290D01*
X69049633Y-123291278D01*
X69073926Y-123357989D01*
X69058296Y-123427244D01*
X69007704Y-123477054D01*
X68948181Y-123492000D01*
X67578639Y-123492000D01*
X67510518Y-123471998D01*
X67464025Y-123418342D01*
X67453921Y-123348068D01*
X67483415Y-123283488D01*
X67523207Y-123252849D01*
X67523475Y-123252718D01*
X67690494Y-123170896D01*
X67872360Y-123041173D01*
X67881368Y-123032197D01*
X67972768Y-122941115D01*
X68030596Y-122883489D01*
X68047595Y-122859833D01*
X68160953Y-122702077D01*
X68162276Y-122703028D01*
X68209145Y-122659857D01*
X68279080Y-122647625D01*
X68344526Y-122675144D01*
G37*
%TD.AperFunction*%
%TA.AperFunction,NonConductor*%
G36*
X65804526Y-122675144D02*
G01*
X65832375Y-122706994D01*
X65892487Y-122805088D01*
X66038750Y-122973938D01*
X66210626Y-123116632D01*
X66403500Y-123229338D01*
X66408325Y-123231180D01*
X66408326Y-123231181D01*
X66453130Y-123248290D01*
X66509633Y-123291278D01*
X66533926Y-123357989D01*
X66518296Y-123427244D01*
X66467704Y-123477054D01*
X66408181Y-123492000D01*
X65038639Y-123492000D01*
X64970518Y-123471998D01*
X64924025Y-123418342D01*
X64913921Y-123348068D01*
X64943415Y-123283488D01*
X64983207Y-123252849D01*
X64983475Y-123252718D01*
X65150494Y-123170896D01*
X65332360Y-123041173D01*
X65341368Y-123032197D01*
X65432768Y-122941115D01*
X65490596Y-122883489D01*
X65507595Y-122859833D01*
X65620953Y-122702077D01*
X65622276Y-122703028D01*
X65669145Y-122659857D01*
X65739080Y-122647625D01*
X65804526Y-122675144D01*
G37*
%TD.AperFunction*%
%TA.AperFunction,NonConductor*%
G36*
X70884526Y-122675144D02*
G01*
X70912375Y-122706994D01*
X70972487Y-122805088D01*
X71118750Y-122973938D01*
X71290626Y-123116632D01*
X71483500Y-123229338D01*
X71488325Y-123231180D01*
X71488326Y-123231181D01*
X71533130Y-123248290D01*
X71589633Y-123291278D01*
X71613926Y-123357989D01*
X71598296Y-123427244D01*
X71547704Y-123477054D01*
X71488181Y-123492000D01*
X70118639Y-123492000D01*
X70050518Y-123471998D01*
X70004025Y-123418342D01*
X69993921Y-123348068D01*
X70023415Y-123283488D01*
X70063207Y-123252849D01*
X70063475Y-123252718D01*
X70230494Y-123170896D01*
X70412360Y-123041173D01*
X70421368Y-123032197D01*
X70512768Y-122941115D01*
X70570596Y-122883489D01*
X70587595Y-122859833D01*
X70700953Y-122702077D01*
X70702276Y-122703028D01*
X70749145Y-122659857D01*
X70819080Y-122647625D01*
X70884526Y-122675144D01*
G37*
%TD.AperFunction*%
%TA.AperFunction,NonConductor*%
G36*
X75480670Y-119853502D02*
G01*
X75501644Y-119870404D01*
X75854859Y-120223618D01*
X76057645Y-120426404D01*
X76091670Y-120488717D01*
X76086606Y-120559532D01*
X76044059Y-120616368D01*
X75977539Y-120641179D01*
X75968550Y-120641500D01*
X74801866Y-120641500D01*
X74739684Y-120648255D01*
X74603295Y-120699385D01*
X74486739Y-120786739D01*
X74399385Y-120903295D01*
X74348255Y-121039684D01*
X74341500Y-121101866D01*
X74341500Y-122898134D01*
X74348255Y-122960316D01*
X74399385Y-123096705D01*
X74486739Y-123213261D01*
X74493919Y-123218642D01*
X74493920Y-123218643D01*
X74556006Y-123265174D01*
X74598521Y-123322033D01*
X74603547Y-123392852D01*
X74569487Y-123455145D01*
X74507155Y-123489135D01*
X74480441Y-123492000D01*
X72658639Y-123492000D01*
X72590518Y-123471998D01*
X72544025Y-123418342D01*
X72533921Y-123348068D01*
X72563415Y-123283488D01*
X72603207Y-123252849D01*
X72603475Y-123252718D01*
X72770494Y-123170896D01*
X72952360Y-123041173D01*
X72961368Y-123032197D01*
X73052768Y-122941115D01*
X73110596Y-122883489D01*
X73127595Y-122859833D01*
X73237935Y-122706277D01*
X73240953Y-122702077D01*
X73261820Y-122659857D01*
X73337636Y-122506453D01*
X73337637Y-122506451D01*
X73339930Y-122501811D01*
X73404870Y-122288069D01*
X73434029Y-122066590D01*
X73434317Y-122054816D01*
X73435574Y-122003365D01*
X73435574Y-122003361D01*
X73435656Y-122000000D01*
X73417352Y-121777361D01*
X73362931Y-121560702D01*
X73273854Y-121355840D01*
X73152514Y-121168277D01*
X73002170Y-121003051D01*
X72998119Y-120999852D01*
X72998115Y-120999848D01*
X72830914Y-120867800D01*
X72830910Y-120867798D01*
X72826859Y-120864598D01*
X72819869Y-120860739D01*
X72746870Y-120820442D01*
X72631289Y-120756638D01*
X72626420Y-120754914D01*
X72626416Y-120754912D01*
X72425587Y-120683795D01*
X72425583Y-120683794D01*
X72420712Y-120682069D01*
X72415619Y-120681162D01*
X72415616Y-120681161D01*
X72205873Y-120643800D01*
X72205867Y-120643799D01*
X72200784Y-120642894D01*
X72126952Y-120641992D01*
X71982581Y-120640228D01*
X71982579Y-120640228D01*
X71977411Y-120640165D01*
X71830127Y-120662703D01*
X71761700Y-120673173D01*
X71761697Y-120673174D01*
X71756591Y-120673955D01*
X71751676Y-120675562D01*
X71751674Y-120675562D01*
X71717390Y-120686768D01*
X71646427Y-120688921D01*
X71589148Y-120656099D01*
X71306644Y-120373595D01*
X71272618Y-120311283D01*
X71277683Y-120240468D01*
X71320230Y-120183632D01*
X71386750Y-120158821D01*
X71395739Y-120158500D01*
X74455444Y-120158500D01*
X74467300Y-120159059D01*
X74467303Y-120159059D01*
X74475037Y-120160788D01*
X74545869Y-120158562D01*
X74549827Y-120158500D01*
X74578932Y-120158500D01*
X74583332Y-120157944D01*
X74595164Y-120157012D01*
X74641331Y-120155562D01*
X74661921Y-120149580D01*
X74681282Y-120145570D01*
X74688270Y-120144688D01*
X74694704Y-120143875D01*
X74694705Y-120143875D01*
X74702564Y-120142882D01*
X74709929Y-120139966D01*
X74709933Y-120139965D01*
X74745521Y-120125874D01*
X74756731Y-120122035D01*
X74801100Y-120109145D01*
X74819565Y-120098225D01*
X74837305Y-120089534D01*
X74857256Y-120081635D01*
X74894629Y-120054482D01*
X74904548Y-120047967D01*
X74937477Y-120028493D01*
X74937481Y-120028490D01*
X74944307Y-120024453D01*
X74959471Y-120009289D01*
X74974505Y-119996448D01*
X74985443Y-119988501D01*
X74991857Y-119983841D01*
X75021303Y-119948247D01*
X75029292Y-119939468D01*
X75098355Y-119870405D01*
X75160667Y-119836379D01*
X75187450Y-119833500D01*
X75412549Y-119833500D01*
X75480670Y-119853502D01*
G37*
%TD.AperFunction*%
%TA.AperFunction,NonConductor*%
G36*
X77223150Y-122913126D02*
G01*
X77257817Y-122941114D01*
X77286250Y-122973938D01*
X77458126Y-123116632D01*
X77651000Y-123229338D01*
X77655825Y-123231180D01*
X77655826Y-123231181D01*
X77700630Y-123248290D01*
X77757133Y-123291278D01*
X77781426Y-123357989D01*
X77765796Y-123427244D01*
X77715204Y-123477054D01*
X77655681Y-123492000D01*
X76919559Y-123492000D01*
X76851438Y-123471998D01*
X76804945Y-123418342D01*
X76794841Y-123348068D01*
X76824335Y-123283488D01*
X76843994Y-123265174D01*
X76906080Y-123218643D01*
X76906081Y-123218642D01*
X76913261Y-123213261D01*
X77000615Y-123096705D01*
X77024798Y-123032197D01*
X77044598Y-122979382D01*
X77087240Y-122922618D01*
X77153802Y-122897918D01*
X77223150Y-122913126D01*
G37*
%TD.AperFunction*%
%TA.AperFunction,NonConductor*%
G36*
X82132026Y-122675144D02*
G01*
X82159875Y-122706994D01*
X82219987Y-122805088D01*
X82366250Y-122973938D01*
X82538126Y-123116632D01*
X82731000Y-123229338D01*
X82735825Y-123231180D01*
X82735826Y-123231181D01*
X82780630Y-123248290D01*
X82837133Y-123291278D01*
X82861426Y-123357989D01*
X82845796Y-123427244D01*
X82795204Y-123477054D01*
X82735681Y-123492000D01*
X81366139Y-123492000D01*
X81298018Y-123471998D01*
X81251525Y-123418342D01*
X81241421Y-123348068D01*
X81270915Y-123283488D01*
X81310707Y-123252849D01*
X81310975Y-123252718D01*
X81477994Y-123170896D01*
X81659860Y-123041173D01*
X81668868Y-123032197D01*
X81760268Y-122941115D01*
X81818096Y-122883489D01*
X81835095Y-122859833D01*
X81948453Y-122702077D01*
X81949776Y-122703028D01*
X81996645Y-122659857D01*
X82066580Y-122647625D01*
X82132026Y-122675144D01*
G37*
%TD.AperFunction*%
%TA.AperFunction,NonConductor*%
G36*
X79592026Y-122675144D02*
G01*
X79619875Y-122706994D01*
X79679987Y-122805088D01*
X79826250Y-122973938D01*
X79998126Y-123116632D01*
X80191000Y-123229338D01*
X80195825Y-123231180D01*
X80195826Y-123231181D01*
X80240630Y-123248290D01*
X80297133Y-123291278D01*
X80321426Y-123357989D01*
X80305796Y-123427244D01*
X80255204Y-123477054D01*
X80195681Y-123492000D01*
X78826139Y-123492000D01*
X78758018Y-123471998D01*
X78711525Y-123418342D01*
X78701421Y-123348068D01*
X78730915Y-123283488D01*
X78770707Y-123252849D01*
X78770975Y-123252718D01*
X78937994Y-123170896D01*
X79119860Y-123041173D01*
X79128868Y-123032197D01*
X79220268Y-122941115D01*
X79278096Y-122883489D01*
X79295095Y-122859833D01*
X79408453Y-122702077D01*
X79409776Y-122703028D01*
X79456645Y-122659857D01*
X79526580Y-122647625D01*
X79592026Y-122675144D01*
G37*
%TD.AperFunction*%
%TA.AperFunction,NonConductor*%
G36*
X85622075Y-100028002D02*
G01*
X85668568Y-100081658D01*
X85678672Y-100151932D01*
X85649178Y-100216512D01*
X85612134Y-100245763D01*
X85463908Y-100322925D01*
X85418607Y-100346507D01*
X85414474Y-100349610D01*
X85414471Y-100349612D01*
X85244100Y-100477530D01*
X85239965Y-100480635D01*
X85200525Y-100521907D01*
X85128729Y-100597037D01*
X85085629Y-100642138D01*
X84959743Y-100826680D01*
X84865688Y-101029305D01*
X84805989Y-101244570D01*
X84782251Y-101466695D01*
X84782548Y-101471848D01*
X84782548Y-101471851D01*
X84788756Y-101579521D01*
X84795110Y-101689715D01*
X84796247Y-101694761D01*
X84796248Y-101694767D01*
X84809736Y-101754615D01*
X84844222Y-101907639D01*
X84928266Y-102114616D01*
X84965685Y-102175678D01*
X85042291Y-102300688D01*
X85044987Y-102305088D01*
X85191250Y-102473938D01*
X85363126Y-102616632D01*
X85556000Y-102729338D01*
X85560825Y-102731180D01*
X85560826Y-102731181D01*
X85607036Y-102748827D01*
X85764692Y-102809030D01*
X85769760Y-102810061D01*
X85769763Y-102810062D01*
X85868342Y-102830118D01*
X85983597Y-102853567D01*
X85988772Y-102853757D01*
X85988774Y-102853757D01*
X86201673Y-102861564D01*
X86201677Y-102861564D01*
X86206837Y-102861753D01*
X86211957Y-102861097D01*
X86211959Y-102861097D01*
X86423288Y-102834025D01*
X86423289Y-102834025D01*
X86428416Y-102833368D01*
X86439249Y-102830118D01*
X86637429Y-102770661D01*
X86637434Y-102770659D01*
X86642384Y-102769174D01*
X86842994Y-102670896D01*
X87024860Y-102541173D01*
X87183096Y-102383489D01*
X87213048Y-102341807D01*
X87313453Y-102202077D01*
X87314776Y-102203028D01*
X87361645Y-102159857D01*
X87431580Y-102147625D01*
X87497026Y-102175144D01*
X87524875Y-102206994D01*
X87584987Y-102305088D01*
X87731250Y-102473938D01*
X87903126Y-102616632D01*
X88096000Y-102729338D01*
X88100825Y-102731180D01*
X88100826Y-102731181D01*
X88147036Y-102748827D01*
X88304692Y-102809030D01*
X88309760Y-102810061D01*
X88309763Y-102810062D01*
X88408342Y-102830118D01*
X88523597Y-102853567D01*
X88528772Y-102853757D01*
X88528774Y-102853757D01*
X88741673Y-102861564D01*
X88741677Y-102861564D01*
X88746837Y-102861753D01*
X88751957Y-102861097D01*
X88751959Y-102861097D01*
X88963288Y-102834025D01*
X88963289Y-102834025D01*
X88968416Y-102833368D01*
X88979249Y-102830118D01*
X89177429Y-102770661D01*
X89177434Y-102770659D01*
X89182384Y-102769174D01*
X89382994Y-102670896D01*
X89564860Y-102541173D01*
X89673091Y-102433319D01*
X89735462Y-102399404D01*
X89806268Y-102404592D01*
X89863030Y-102447238D01*
X89880012Y-102478341D01*
X89924385Y-102596705D01*
X90011739Y-102713261D01*
X90128295Y-102800615D01*
X90264684Y-102851745D01*
X90326866Y-102858500D01*
X92123134Y-102858500D01*
X92185316Y-102851745D01*
X92321705Y-102800615D01*
X92438261Y-102713261D01*
X92525615Y-102596705D01*
X92576745Y-102460316D01*
X92583500Y-102398134D01*
X92583500Y-100601866D01*
X92576745Y-100539684D01*
X92525615Y-100403295D01*
X92438261Y-100286739D01*
X92411287Y-100266523D01*
X92368994Y-100234826D01*
X92326479Y-100177967D01*
X92321453Y-100107148D01*
X92355513Y-100044855D01*
X92417845Y-100010865D01*
X92444559Y-100008000D01*
X106866000Y-100008000D01*
X106934121Y-100028002D01*
X106980614Y-100081658D01*
X106992000Y-100134000D01*
X106992000Y-123366000D01*
X106971998Y-123434121D01*
X106918342Y-123480614D01*
X106866000Y-123492000D01*
X98041066Y-123492000D01*
X97972945Y-123471998D01*
X97926452Y-123418342D01*
X97916348Y-123348068D01*
X97923084Y-123321771D01*
X97948971Y-123252718D01*
X97948973Y-123252712D01*
X97951745Y-123245316D01*
X97958500Y-123183134D01*
X97958500Y-123032197D01*
X97978502Y-122964076D01*
X98032158Y-122917583D01*
X98102432Y-122907479D01*
X98131187Y-122915166D01*
X98167428Y-122929624D01*
X98321726Y-122960316D01*
X98370571Y-122970032D01*
X98380761Y-122972059D01*
X98386536Y-122972135D01*
X98386540Y-122972135D01*
X98495581Y-122973562D01*
X98598254Y-122974906D01*
X98603951Y-122973927D01*
X98603952Y-122973927D01*
X98806935Y-122939048D01*
X98806938Y-122939047D01*
X98812625Y-122938070D01*
X99016693Y-122862786D01*
X99203624Y-122751573D01*
X99367158Y-122608158D01*
X99388816Y-122580685D01*
X99498245Y-122441876D01*
X99498247Y-122441874D01*
X99501819Y-122437342D01*
X99603095Y-122244846D01*
X99618136Y-122196406D01*
X99665883Y-122042639D01*
X99665884Y-122042636D01*
X99667597Y-122037118D01*
X99672387Y-121996646D01*
X99688064Y-121864197D01*
X99688064Y-121864190D01*
X99688500Y-121860510D01*
X99688500Y-121853488D01*
X99696518Y-121809259D01*
X99698973Y-121802711D01*
X99698973Y-121802709D01*
X99701745Y-121795316D01*
X99703063Y-121783188D01*
X99708131Y-121736531D01*
X99708500Y-121733134D01*
X99708500Y-120906521D01*
X99728502Y-120838400D01*
X99782158Y-120791907D01*
X99796894Y-120786845D01*
X99797816Y-120786745D01*
X99804714Y-120784159D01*
X99804720Y-120784157D01*
X99925797Y-120738767D01*
X99934205Y-120735615D01*
X100050761Y-120648261D01*
X100138115Y-120531705D01*
X100138854Y-120529733D01*
X101687822Y-120529733D01*
X101687975Y-120534121D01*
X101687975Y-120534127D01*
X101697033Y-120793500D01*
X101697625Y-120810458D01*
X101698387Y-120814781D01*
X101698388Y-120814788D01*
X101721612Y-120946498D01*
X101746402Y-121087087D01*
X101833203Y-121354235D01*
X101835131Y-121358188D01*
X101835133Y-121358193D01*
X101890313Y-121471328D01*
X101956340Y-121606702D01*
X101958795Y-121610341D01*
X101958798Y-121610347D01*
X102028010Y-121712958D01*
X102113415Y-121839576D01*
X102116360Y-121842847D01*
X102116361Y-121842848D01*
X102180392Y-121913961D01*
X102301371Y-122048322D01*
X102304733Y-122051143D01*
X102304734Y-122051144D01*
X102323142Y-122066590D01*
X102516550Y-122228879D01*
X102754764Y-122377731D01*
X102934624Y-122457810D01*
X103001713Y-122487680D01*
X103011375Y-122491982D01*
X103281390Y-122569407D01*
X103285740Y-122570018D01*
X103285743Y-122570019D01*
X103361637Y-122580685D01*
X103559552Y-122608500D01*
X103770146Y-122608500D01*
X103772332Y-122608347D01*
X103772336Y-122608347D01*
X103975827Y-122594118D01*
X103975832Y-122594117D01*
X103980212Y-122593811D01*
X104254970Y-122535409D01*
X104259099Y-122533906D01*
X104259103Y-122533905D01*
X104514781Y-122440846D01*
X104514785Y-122440844D01*
X104518926Y-122439337D01*
X104766942Y-122307464D01*
X104770503Y-122304877D01*
X104990629Y-122144947D01*
X104990632Y-122144944D01*
X104994192Y-122142358D01*
X104997526Y-122139139D01*
X105117175Y-122023595D01*
X105196252Y-121947231D01*
X105369188Y-121725882D01*
X105371384Y-121722078D01*
X105371389Y-121722071D01*
X105507435Y-121486431D01*
X105509636Y-121482619D01*
X105614862Y-121222176D01*
X105621289Y-121196399D01*
X105681753Y-120953893D01*
X105681754Y-120953888D01*
X105682817Y-120949624D01*
X105687348Y-120906521D01*
X105711719Y-120674636D01*
X105711719Y-120674633D01*
X105712178Y-120670267D01*
X105712025Y-120665873D01*
X105702529Y-120393939D01*
X105702528Y-120393933D01*
X105702375Y-120389542D01*
X105700969Y-120381564D01*
X105666068Y-120183632D01*
X105653598Y-120112913D01*
X105566797Y-119845765D01*
X105563650Y-119839311D01*
X105498959Y-119706678D01*
X105443660Y-119593298D01*
X105441205Y-119589659D01*
X105441202Y-119589653D01*
X105368110Y-119481290D01*
X105286585Y-119360424D01*
X105261882Y-119332988D01*
X105150886Y-119209715D01*
X105098629Y-119151678D01*
X104883450Y-118971121D01*
X104645236Y-118822269D01*
X104465376Y-118742190D01*
X104392639Y-118709805D01*
X104392637Y-118709804D01*
X104388625Y-118708018D01*
X104118610Y-118630593D01*
X104114260Y-118629982D01*
X104114257Y-118629981D01*
X104011310Y-118615513D01*
X103840448Y-118591500D01*
X103629854Y-118591500D01*
X103627668Y-118591653D01*
X103627664Y-118591653D01*
X103424173Y-118605882D01*
X103424168Y-118605883D01*
X103419788Y-118606189D01*
X103145030Y-118664591D01*
X103140901Y-118666094D01*
X103140897Y-118666095D01*
X102885219Y-118759154D01*
X102885215Y-118759156D01*
X102881074Y-118760663D01*
X102633058Y-118892536D01*
X102629499Y-118895122D01*
X102629497Y-118895123D01*
X102430447Y-119039741D01*
X102405808Y-119057642D01*
X102402644Y-119060698D01*
X102402641Y-119060700D01*
X102326392Y-119134333D01*
X102203748Y-119252769D01*
X102082088Y-119408487D01*
X102050457Y-119448974D01*
X102030812Y-119474118D01*
X102028616Y-119477922D01*
X102028611Y-119477929D01*
X101949248Y-119615391D01*
X101890364Y-119717381D01*
X101785138Y-119977824D01*
X101784073Y-119982097D01*
X101784072Y-119982099D01*
X101723855Y-120223618D01*
X101717183Y-120250376D01*
X101716724Y-120254744D01*
X101716723Y-120254749D01*
X101688498Y-120523297D01*
X101687822Y-120529733D01*
X100138854Y-120529733D01*
X100189245Y-120395316D01*
X100196000Y-120333134D01*
X100196000Y-119536866D01*
X100194331Y-119521498D01*
X100190099Y-119482541D01*
X100190098Y-119482535D01*
X100189245Y-119474684D01*
X100186470Y-119467281D01*
X100185422Y-119462875D01*
X100182741Y-119420119D01*
X100183500Y-119413134D01*
X100183500Y-117816866D01*
X100176745Y-117754684D01*
X100125615Y-117618295D01*
X100038261Y-117501739D01*
X99921705Y-117414385D01*
X99785316Y-117363255D01*
X99723134Y-117356500D01*
X99459500Y-117356500D01*
X99391379Y-117336498D01*
X99344886Y-117282842D01*
X99333500Y-117230500D01*
X99333500Y-116356638D01*
X99353502Y-116288517D01*
X99407158Y-116242024D01*
X99446497Y-116231311D01*
X99524307Y-116223238D01*
X99524310Y-116223237D01*
X99531166Y-116222526D01*
X99537702Y-116220345D01*
X99537704Y-116220345D01*
X99691998Y-116168868D01*
X99698946Y-116166550D01*
X99849348Y-116073478D01*
X99974305Y-115948303D01*
X100037047Y-115846517D01*
X100063275Y-115803968D01*
X100063276Y-115803966D01*
X100067115Y-115797738D01*
X100098206Y-115704000D01*
X100120632Y-115636389D01*
X100120632Y-115636387D01*
X100122797Y-115629861D01*
X100123589Y-115622138D01*
X100130069Y-115558882D01*
X100133500Y-115525400D01*
X100133500Y-114474600D01*
X100129709Y-114438062D01*
X100123238Y-114375692D01*
X100123237Y-114375688D01*
X100122526Y-114368834D01*
X100119079Y-114358500D01*
X100068868Y-114208002D01*
X100066550Y-114201054D01*
X99973478Y-114050652D01*
X99892571Y-113969886D01*
X99849378Y-113926768D01*
X99815299Y-113864485D01*
X99820302Y-113793665D01*
X99851550Y-113750676D01*
X99849348Y-113748478D01*
X99939194Y-113658475D01*
X99974305Y-113623303D01*
X99994144Y-113591118D01*
X100063275Y-113478968D01*
X100063276Y-113478966D01*
X100067115Y-113472738D01*
X100102360Y-113366478D01*
X100120632Y-113311389D01*
X100120632Y-113311387D01*
X100122797Y-113304861D01*
X100123722Y-113295840D01*
X100129455Y-113239880D01*
X100133500Y-113200400D01*
X100133500Y-112199600D01*
X100132086Y-112185968D01*
X100123238Y-112100692D01*
X100123237Y-112100688D01*
X100122526Y-112093834D01*
X100066550Y-111926054D01*
X99973478Y-111775652D01*
X99848303Y-111650695D01*
X99837481Y-111644024D01*
X99703968Y-111561725D01*
X99703966Y-111561724D01*
X99697738Y-111557885D01*
X99537254Y-111504655D01*
X99536389Y-111504368D01*
X99536387Y-111504368D01*
X99529861Y-111502203D01*
X99523025Y-111501503D01*
X99523022Y-111501502D01*
X99479969Y-111497091D01*
X99425400Y-111491500D01*
X98799600Y-111491500D01*
X98796354Y-111491837D01*
X98796350Y-111491837D01*
X98700692Y-111501762D01*
X98700688Y-111501763D01*
X98693834Y-111502474D01*
X98687298Y-111504655D01*
X98687296Y-111504655D01*
X98607654Y-111531226D01*
X98526054Y-111558450D01*
X98375652Y-111651522D01*
X98370479Y-111656704D01*
X98289216Y-111738109D01*
X98226934Y-111772188D01*
X98156114Y-111767185D01*
X98111025Y-111738264D01*
X98028483Y-111655866D01*
X98023303Y-111650695D01*
X98012481Y-111644024D01*
X97878968Y-111561725D01*
X97878966Y-111561724D01*
X97872738Y-111557885D01*
X97712254Y-111504655D01*
X97711389Y-111504368D01*
X97711387Y-111504368D01*
X97704861Y-111502203D01*
X97698025Y-111501503D01*
X97698022Y-111501502D01*
X97654969Y-111497091D01*
X97600400Y-111491500D01*
X96974600Y-111491500D01*
X96971354Y-111491837D01*
X96971350Y-111491837D01*
X96875692Y-111501762D01*
X96875688Y-111501763D01*
X96868834Y-111502474D01*
X96862298Y-111504655D01*
X96862296Y-111504655D01*
X96782654Y-111531226D01*
X96701054Y-111558450D01*
X96550652Y-111651522D01*
X96425695Y-111776697D01*
X96421855Y-111782927D01*
X96421854Y-111782928D01*
X96350969Y-111897925D01*
X96332885Y-111927262D01*
X96277203Y-112095139D01*
X96276503Y-112101975D01*
X96276502Y-112101978D01*
X96272607Y-112139992D01*
X96266500Y-112199600D01*
X96266500Y-112202819D01*
X96266336Y-112206028D01*
X96265263Y-112205973D01*
X96246498Y-112269882D01*
X96192842Y-112316375D01*
X96122568Y-112326479D01*
X96057988Y-112296985D01*
X96051405Y-112290856D01*
X93964315Y-110203766D01*
X93953448Y-110191375D01*
X93939013Y-110172563D01*
X93933987Y-110166013D01*
X93902075Y-110141526D01*
X93902072Y-110141523D01*
X93862327Y-110111025D01*
X93813429Y-110073504D01*
X93813427Y-110073503D01*
X93806876Y-110068476D01*
X93658851Y-110007162D01*
X93650664Y-110006084D01*
X93650663Y-110006084D01*
X93639458Y-110004609D01*
X93608262Y-110000502D01*
X93539885Y-109991500D01*
X93539882Y-109991500D01*
X93539874Y-109991499D01*
X93508189Y-109987328D01*
X93500000Y-109986250D01*
X93468307Y-109990422D01*
X93451864Y-109991500D01*
X92448143Y-109991500D01*
X92431697Y-109990422D01*
X92408188Y-109987327D01*
X92400000Y-109986249D01*
X92391812Y-109987327D01*
X92368303Y-109990422D01*
X92351857Y-109991500D01*
X89997000Y-109991500D01*
X89928879Y-109971498D01*
X89882386Y-109917842D01*
X89871000Y-109865500D01*
X89871000Y-109301866D01*
X89864245Y-109239684D01*
X89813115Y-109103295D01*
X89725761Y-108986739D01*
X89727365Y-108985537D01*
X89698879Y-108933370D01*
X89696000Y-108906587D01*
X89696000Y-107748821D01*
X89714740Y-107682705D01*
X89725346Y-107665500D01*
X89736399Y-107647568D01*
X89763275Y-107603968D01*
X89763276Y-107603966D01*
X89767115Y-107597738D01*
X89793564Y-107517995D01*
X89820632Y-107436389D01*
X89820632Y-107436387D01*
X89822797Y-107429861D01*
X89827024Y-107388611D01*
X89827909Y-107379969D01*
X89833500Y-107325400D01*
X89833500Y-106549600D01*
X89833163Y-106546350D01*
X89823238Y-106450692D01*
X89823237Y-106450688D01*
X89822526Y-106443834D01*
X89798884Y-106372969D01*
X89768868Y-106283002D01*
X89766550Y-106276054D01*
X89673478Y-106125652D01*
X89548303Y-106000695D01*
X89544084Y-105998094D01*
X89503583Y-105940970D01*
X89500351Y-105870047D01*
X89535976Y-105808635D01*
X89543530Y-105802078D01*
X89549348Y-105798478D01*
X89674305Y-105673303D01*
X89678144Y-105667075D01*
X89678148Y-105667070D01*
X89708159Y-105618383D01*
X89760931Y-105570890D01*
X89815418Y-105558500D01*
X91719776Y-105558500D01*
X91787897Y-105578502D01*
X91793834Y-105582562D01*
X91818792Y-105600695D01*
X91930916Y-105682158D01*
X91943248Y-105691118D01*
X91949276Y-105693802D01*
X91949278Y-105693803D01*
X92027214Y-105728502D01*
X92117712Y-105768794D01*
X92199064Y-105786086D01*
X92298056Y-105807128D01*
X92298061Y-105807128D01*
X92304513Y-105808500D01*
X92495487Y-105808500D01*
X92501939Y-105807128D01*
X92501944Y-105807128D01*
X92600936Y-105786086D01*
X92682288Y-105768794D01*
X92772786Y-105728502D01*
X92850722Y-105693803D01*
X92850724Y-105693802D01*
X92856752Y-105691118D01*
X92869085Y-105682158D01*
X92942935Y-105628502D01*
X93011253Y-105578866D01*
X93075165Y-105507885D01*
X93134621Y-105441852D01*
X93134622Y-105441851D01*
X93139040Y-105436944D01*
X93234527Y-105271556D01*
X93293542Y-105089928D01*
X93294637Y-105079516D01*
X93312814Y-104906565D01*
X93313504Y-104900000D01*
X93297562Y-104748322D01*
X93294232Y-104716635D01*
X93294232Y-104716633D01*
X93293542Y-104710072D01*
X93234527Y-104528444D01*
X93139040Y-104363056D01*
X93125070Y-104347540D01*
X93015675Y-104226045D01*
X93015674Y-104226044D01*
X93011253Y-104221134D01*
X92856752Y-104108882D01*
X92850724Y-104106198D01*
X92850722Y-104106197D01*
X92688319Y-104033891D01*
X92688318Y-104033891D01*
X92682288Y-104031206D01*
X92588888Y-104011353D01*
X92501944Y-103992872D01*
X92501939Y-103992872D01*
X92495487Y-103991500D01*
X92304513Y-103991500D01*
X92298061Y-103992872D01*
X92298056Y-103992872D01*
X92211112Y-104011353D01*
X92117712Y-104031206D01*
X92111682Y-104033891D01*
X92111681Y-104033891D01*
X91949278Y-104106197D01*
X91949276Y-104106198D01*
X91943248Y-104108882D01*
X91937907Y-104112762D01*
X91937906Y-104112763D01*
X91874564Y-104158784D01*
X91794092Y-104217251D01*
X91793837Y-104217436D01*
X91726969Y-104241294D01*
X91719776Y-104241500D01*
X89861781Y-104241500D01*
X89793660Y-104221498D01*
X89754637Y-104181803D01*
X89677332Y-104056880D01*
X89673478Y-104050652D01*
X89548303Y-103925695D01*
X89482326Y-103885026D01*
X89403968Y-103836725D01*
X89403966Y-103836724D01*
X89397738Y-103832885D01*
X89259661Y-103787087D01*
X89236389Y-103779368D01*
X89236387Y-103779368D01*
X89229861Y-103777203D01*
X89223025Y-103776503D01*
X89223022Y-103776502D01*
X89179969Y-103772091D01*
X89125400Y-103766500D01*
X88074600Y-103766500D01*
X88071354Y-103766837D01*
X88071350Y-103766837D01*
X87975692Y-103776762D01*
X87975688Y-103776763D01*
X87968834Y-103777474D01*
X87962298Y-103779655D01*
X87962296Y-103779655D01*
X87875838Y-103808500D01*
X87801054Y-103833450D01*
X87650652Y-103926522D01*
X87525695Y-104051697D01*
X87521855Y-104057927D01*
X87521854Y-104057928D01*
X87440876Y-104189298D01*
X87388103Y-104236791D01*
X87318032Y-104248215D01*
X87280370Y-104237379D01*
X87278969Y-104236726D01*
X87272738Y-104232885D01*
X87118730Y-104181803D01*
X87111389Y-104179368D01*
X87111387Y-104179368D01*
X87104861Y-104177203D01*
X87098025Y-104176503D01*
X87098022Y-104176502D01*
X87054969Y-104172091D01*
X87000400Y-104166500D01*
X85999600Y-104166500D01*
X85996354Y-104166837D01*
X85996350Y-104166837D01*
X85900692Y-104176762D01*
X85900688Y-104176763D01*
X85893834Y-104177474D01*
X85887298Y-104179655D01*
X85887296Y-104179655D01*
X85774608Y-104217251D01*
X85726054Y-104233450D01*
X85575652Y-104326522D01*
X85575536Y-104326638D01*
X85512457Y-104352173D01*
X85442692Y-104339004D01*
X85425749Y-104328136D01*
X85423303Y-104325695D01*
X85348021Y-104279290D01*
X85278968Y-104236725D01*
X85278966Y-104236724D01*
X85272738Y-104232885D01*
X85118730Y-104181803D01*
X85111389Y-104179368D01*
X85111387Y-104179368D01*
X85104861Y-104177203D01*
X85098025Y-104176503D01*
X85098022Y-104176502D01*
X85054969Y-104172091D01*
X85000400Y-104166500D01*
X83999600Y-104166500D01*
X83996354Y-104166837D01*
X83996350Y-104166837D01*
X83900692Y-104176762D01*
X83900688Y-104176763D01*
X83893834Y-104177474D01*
X83887298Y-104179655D01*
X83887296Y-104179655D01*
X83774608Y-104217251D01*
X83726054Y-104233450D01*
X83575652Y-104326522D01*
X83575536Y-104326638D01*
X83512457Y-104352173D01*
X83442692Y-104339004D01*
X83425749Y-104328136D01*
X83423303Y-104325695D01*
X83348021Y-104279290D01*
X83278968Y-104236725D01*
X83278966Y-104236724D01*
X83272738Y-104232885D01*
X83118730Y-104181803D01*
X83111389Y-104179368D01*
X83111387Y-104179368D01*
X83104861Y-104177203D01*
X83098025Y-104176503D01*
X83098022Y-104176502D01*
X83054969Y-104172091D01*
X83000400Y-104166500D01*
X81999600Y-104166500D01*
X81996354Y-104166837D01*
X81996350Y-104166837D01*
X81900692Y-104176762D01*
X81900688Y-104176763D01*
X81893834Y-104177474D01*
X81887298Y-104179655D01*
X81887296Y-104179655D01*
X81774608Y-104217251D01*
X81726054Y-104233450D01*
X81575652Y-104326522D01*
X81450695Y-104451697D01*
X81427990Y-104488531D01*
X81375217Y-104536023D01*
X81353838Y-104543809D01*
X81347436Y-104544618D01*
X81340070Y-104547535D01*
X81340064Y-104547536D01*
X81304482Y-104561624D01*
X81293252Y-104565469D01*
X81248899Y-104578355D01*
X81242075Y-104582391D01*
X81230443Y-104589270D01*
X81212687Y-104597969D01*
X81192744Y-104605865D01*
X81166724Y-104624770D01*
X81155368Y-104633020D01*
X81145449Y-104639535D01*
X81112523Y-104659008D01*
X81112519Y-104659011D01*
X81105693Y-104663048D01*
X81090532Y-104678209D01*
X81075500Y-104691048D01*
X81058143Y-104703659D01*
X81035350Y-104731211D01*
X81028693Y-104739258D01*
X81020703Y-104748038D01*
X79192395Y-106576345D01*
X79183615Y-106584335D01*
X79183613Y-106584337D01*
X79176920Y-106588584D01*
X79171494Y-106594362D01*
X79171493Y-106594363D01*
X79128396Y-106640257D01*
X79125641Y-106643099D01*
X79105073Y-106663667D01*
X79102356Y-106667170D01*
X79094648Y-106676195D01*
X79063028Y-106709867D01*
X79059207Y-106716818D01*
X79059206Y-106716819D01*
X79052697Y-106728658D01*
X79041843Y-106745182D01*
X79034018Y-106755271D01*
X79028696Y-106762132D01*
X79025549Y-106769404D01*
X79025548Y-106769406D01*
X79010346Y-106804535D01*
X79005124Y-106815195D01*
X78982876Y-106855663D01*
X78977541Y-106876441D01*
X78971142Y-106895131D01*
X78962620Y-106914824D01*
X78959117Y-106936944D01*
X78955394Y-106960448D01*
X78952987Y-106972071D01*
X78941500Y-107016812D01*
X78941500Y-107038259D01*
X78939949Y-107057969D01*
X78936594Y-107079152D01*
X78937340Y-107087043D01*
X78940941Y-107125138D01*
X78941500Y-107136996D01*
X78941500Y-107975050D01*
X78921498Y-108043171D01*
X78904595Y-108064146D01*
X78413644Y-108555096D01*
X78351332Y-108589121D01*
X78324549Y-108592000D01*
X78204513Y-108592000D01*
X78198061Y-108593372D01*
X78198056Y-108593372D01*
X78085697Y-108617255D01*
X78014906Y-108611853D01*
X77958273Y-108569036D01*
X77933780Y-108502398D01*
X77933500Y-108494008D01*
X77933500Y-107499600D01*
X77933163Y-107496350D01*
X77923238Y-107400692D01*
X77923237Y-107400688D01*
X77922526Y-107393834D01*
X77900762Y-107328598D01*
X77868868Y-107233002D01*
X77866550Y-107226054D01*
X77773478Y-107075652D01*
X77734147Y-107036389D01*
X77705877Y-107008168D01*
X77671798Y-106945885D01*
X77676801Y-106875065D01*
X77685776Y-106855995D01*
X77731223Y-106777279D01*
X77731224Y-106777278D01*
X77734527Y-106771556D01*
X77793542Y-106589928D01*
X77797438Y-106552866D01*
X77812814Y-106406565D01*
X77813504Y-106400000D01*
X77805310Y-106322040D01*
X77794232Y-106216635D01*
X77794232Y-106216633D01*
X77793542Y-106210072D01*
X77734527Y-106028444D01*
X77639040Y-105863056D01*
X77599199Y-105818808D01*
X77568483Y-105754802D01*
X77577248Y-105684349D01*
X77622711Y-105629818D01*
X77692837Y-105608500D01*
X79301864Y-105608500D01*
X79318307Y-105609578D01*
X79350000Y-105613750D01*
X79358189Y-105612672D01*
X79389874Y-105608501D01*
X79389884Y-105608500D01*
X79389885Y-105608500D01*
X79449170Y-105600695D01*
X79489457Y-105595391D01*
X79500664Y-105593916D01*
X79500666Y-105593915D01*
X79508851Y-105592838D01*
X79656876Y-105531524D01*
X79752072Y-105458477D01*
X79752075Y-105458474D01*
X79783987Y-105433987D01*
X79803441Y-105408635D01*
X79803452Y-105408621D01*
X79814319Y-105396230D01*
X82180816Y-103029733D01*
X101687822Y-103029733D01*
X101687975Y-103034121D01*
X101687975Y-103034127D01*
X101696666Y-103282988D01*
X101697625Y-103310458D01*
X101698387Y-103314781D01*
X101698388Y-103314788D01*
X101721801Y-103447568D01*
X101746402Y-103587087D01*
X101833203Y-103854235D01*
X101835131Y-103858188D01*
X101835133Y-103858193D01*
X101870987Y-103931704D01*
X101956340Y-104106702D01*
X101958795Y-104110341D01*
X101958798Y-104110347D01*
X102019981Y-104201054D01*
X102113415Y-104339576D01*
X102116360Y-104342847D01*
X102116361Y-104342848D01*
X102187694Y-104422071D01*
X102301371Y-104548322D01*
X102304733Y-104551143D01*
X102304734Y-104551144D01*
X102337163Y-104578355D01*
X102516550Y-104728879D01*
X102754764Y-104877731D01*
X103011375Y-104991982D01*
X103281390Y-105069407D01*
X103285740Y-105070018D01*
X103285743Y-105070019D01*
X103353319Y-105079516D01*
X103559552Y-105108500D01*
X103770146Y-105108500D01*
X103772332Y-105108347D01*
X103772336Y-105108347D01*
X103975827Y-105094118D01*
X103975832Y-105094117D01*
X103980212Y-105093811D01*
X104254970Y-105035409D01*
X104259099Y-105033906D01*
X104259103Y-105033905D01*
X104514781Y-104940846D01*
X104514785Y-104940844D01*
X104518926Y-104939337D01*
X104766942Y-104807464D01*
X104770503Y-104804877D01*
X104990629Y-104644947D01*
X104990632Y-104644944D01*
X104994192Y-104642358D01*
X105196252Y-104447231D01*
X105369188Y-104225882D01*
X105371384Y-104222078D01*
X105371389Y-104222071D01*
X105487345Y-104021228D01*
X105509636Y-103982619D01*
X105614862Y-103722176D01*
X105629482Y-103663540D01*
X105681753Y-103453893D01*
X105681754Y-103453888D01*
X105682817Y-103449624D01*
X105686158Y-103417842D01*
X105711719Y-103174636D01*
X105711719Y-103174633D01*
X105712178Y-103170267D01*
X105709513Y-103093939D01*
X105702529Y-102893939D01*
X105702528Y-102893933D01*
X105702375Y-102889542D01*
X105701301Y-102883448D01*
X105665797Y-102682099D01*
X105653598Y-102612913D01*
X105566797Y-102345765D01*
X105561477Y-102334856D01*
X105502320Y-102213569D01*
X105443660Y-102093298D01*
X105441205Y-102089659D01*
X105441202Y-102089653D01*
X105321660Y-101912425D01*
X105286585Y-101860424D01*
X105224571Y-101791550D01*
X105143271Y-101701258D01*
X105098629Y-101651678D01*
X105028147Y-101592536D01*
X104886819Y-101473948D01*
X104886820Y-101473948D01*
X104883450Y-101471121D01*
X104645236Y-101322269D01*
X104388625Y-101208018D01*
X104118610Y-101130593D01*
X104114260Y-101129982D01*
X104114257Y-101129981D01*
X104011310Y-101115513D01*
X103840448Y-101091500D01*
X103629854Y-101091500D01*
X103627668Y-101091653D01*
X103627664Y-101091653D01*
X103424173Y-101105882D01*
X103424168Y-101105883D01*
X103419788Y-101106189D01*
X103145030Y-101164591D01*
X103140901Y-101166094D01*
X103140897Y-101166095D01*
X102885219Y-101259154D01*
X102885215Y-101259156D01*
X102881074Y-101260663D01*
X102633058Y-101392536D01*
X102629499Y-101395122D01*
X102629497Y-101395123D01*
X102433716Y-101537366D01*
X102405808Y-101557642D01*
X102402644Y-101560698D01*
X102402641Y-101560700D01*
X102369674Y-101592536D01*
X102203748Y-101752769D01*
X102030812Y-101974118D01*
X102028616Y-101977922D01*
X102028611Y-101977929D01*
X101917342Y-102170653D01*
X101890364Y-102217381D01*
X101785138Y-102477824D01*
X101784073Y-102482097D01*
X101784072Y-102482099D01*
X101721969Y-102731181D01*
X101717183Y-102750376D01*
X101716724Y-102754744D01*
X101716723Y-102754749D01*
X101695703Y-102954749D01*
X101687822Y-103029733D01*
X82180816Y-103029733D01*
X82319268Y-102891281D01*
X82381580Y-102857255D01*
X82412979Y-102854461D01*
X82455700Y-102856028D01*
X82606673Y-102861564D01*
X82606677Y-102861564D01*
X82611837Y-102861753D01*
X82616957Y-102861097D01*
X82616959Y-102861097D01*
X82828288Y-102834025D01*
X82828289Y-102834025D01*
X82833416Y-102833368D01*
X82844249Y-102830118D01*
X83042429Y-102770661D01*
X83042434Y-102770659D01*
X83047384Y-102769174D01*
X83247994Y-102670896D01*
X83429860Y-102541173D01*
X83588096Y-102383489D01*
X83618048Y-102341807D01*
X83715435Y-102206277D01*
X83718453Y-102202077D01*
X83730718Y-102177262D01*
X83815136Y-102006453D01*
X83815137Y-102006451D01*
X83817430Y-102001811D01*
X83863044Y-101851678D01*
X83880865Y-101793023D01*
X83880865Y-101793021D01*
X83882370Y-101788069D01*
X83911529Y-101566590D01*
X83913156Y-101500000D01*
X83894852Y-101277361D01*
X83840431Y-101060702D01*
X83751354Y-100855840D01*
X83630014Y-100668277D01*
X83479670Y-100503051D01*
X83475619Y-100499852D01*
X83475615Y-100499848D01*
X83308414Y-100367800D01*
X83308410Y-100367798D01*
X83304359Y-100364598D01*
X83108789Y-100256638D01*
X83103919Y-100254913D01*
X83103909Y-100254909D01*
X83097874Y-100252772D01*
X83040338Y-100211178D01*
X83014423Y-100145080D01*
X83028358Y-100075464D01*
X83077717Y-100024433D01*
X83139935Y-100008000D01*
X85553954Y-100008000D01*
X85622075Y-100028002D01*
G37*
%TD.AperFunction*%
M02*
