%TF.GenerationSoftware,KiCad,Pcbnew,(6.0.1)*%
%TF.CreationDate,2022-01-27T16:39:23-05:00*%
%TF.ProjectId,MAX_86916,4d41585f-3836-4393-9136-2e6b69636164,rev?*%
%TF.SameCoordinates,Original*%
%TF.FileFunction,Legend,Top*%
%TF.FilePolarity,Positive*%
%FSLAX46Y46*%
G04 Gerber Fmt 4.6, Leading zero omitted, Abs format (unit mm)*
G04 Created by KiCad (PCBNEW (6.0.1)) date 2022-01-27 16:39:23*
%MOMM*%
%LPD*%
G01*
G04 APERTURE LIST*
%ADD10C,0.150000*%
%ADD11C,0.254000*%
%ADD12C,0.120000*%
%ADD13C,0.200000*%
%ADD14C,0.400000*%
%ADD15C,0.100000*%
G04 APERTURE END LIST*
D10*
X96242380Y-109800000D02*
X95242380Y-109800000D01*
X95956666Y-109466666D01*
X95242380Y-109133333D01*
X96242380Y-109133333D01*
X95956666Y-108704761D02*
X95956666Y-108228571D01*
X96242380Y-108800000D02*
X95242380Y-108466666D01*
X96242380Y-108133333D01*
X95242380Y-107895238D02*
X96242380Y-107228571D01*
X95242380Y-107228571D02*
X96242380Y-107895238D01*
X95670952Y-105942857D02*
X95623333Y-106038095D01*
X95575714Y-106085714D01*
X95480476Y-106133333D01*
X95432857Y-106133333D01*
X95337619Y-106085714D01*
X95290000Y-106038095D01*
X95242380Y-105942857D01*
X95242380Y-105752380D01*
X95290000Y-105657142D01*
X95337619Y-105609523D01*
X95432857Y-105561904D01*
X95480476Y-105561904D01*
X95575714Y-105609523D01*
X95623333Y-105657142D01*
X95670952Y-105752380D01*
X95670952Y-105942857D01*
X95718571Y-106038095D01*
X95766190Y-106085714D01*
X95861428Y-106133333D01*
X96051904Y-106133333D01*
X96147142Y-106085714D01*
X96194761Y-106038095D01*
X96242380Y-105942857D01*
X96242380Y-105752380D01*
X96194761Y-105657142D01*
X96147142Y-105609523D01*
X96051904Y-105561904D01*
X95861428Y-105561904D01*
X95766190Y-105609523D01*
X95718571Y-105657142D01*
X95670952Y-105752380D01*
X95242380Y-104704761D02*
X95242380Y-104895238D01*
X95290000Y-104990476D01*
X95337619Y-105038095D01*
X95480476Y-105133333D01*
X95670952Y-105180952D01*
X96051904Y-105180952D01*
X96147142Y-105133333D01*
X96194761Y-105085714D01*
X96242380Y-104990476D01*
X96242380Y-104800000D01*
X96194761Y-104704761D01*
X96147142Y-104657142D01*
X96051904Y-104609523D01*
X95813809Y-104609523D01*
X95718571Y-104657142D01*
X95670952Y-104704761D01*
X95623333Y-104800000D01*
X95623333Y-104990476D01*
X95670952Y-105085714D01*
X95718571Y-105133333D01*
X95813809Y-105180952D01*
X96242380Y-104133333D02*
X96242380Y-103942857D01*
X96194761Y-103847619D01*
X96147142Y-103800000D01*
X96004285Y-103704761D01*
X95813809Y-103657142D01*
X95432857Y-103657142D01*
X95337619Y-103704761D01*
X95290000Y-103752380D01*
X95242380Y-103847619D01*
X95242380Y-104038095D01*
X95290000Y-104133333D01*
X95337619Y-104180952D01*
X95432857Y-104228571D01*
X95670952Y-104228571D01*
X95766190Y-104180952D01*
X95813809Y-104133333D01*
X95861428Y-104038095D01*
X95861428Y-103847619D01*
X95813809Y-103752380D01*
X95766190Y-103704761D01*
X95670952Y-103657142D01*
X96242380Y-102704761D02*
X96242380Y-103276190D01*
X96242380Y-102990476D02*
X95242380Y-102990476D01*
X95385238Y-103085714D01*
X95480476Y-103180952D01*
X95528095Y-103276190D01*
X95242380Y-101847619D02*
X95242380Y-102038095D01*
X95290000Y-102133333D01*
X95337619Y-102180952D01*
X95480476Y-102276190D01*
X95670952Y-102323809D01*
X96051904Y-102323809D01*
X96147142Y-102276190D01*
X96194761Y-102228571D01*
X96242380Y-102133333D01*
X96242380Y-101942857D01*
X96194761Y-101847619D01*
X96147142Y-101800000D01*
X96051904Y-101752380D01*
X95813809Y-101752380D01*
X95718571Y-101800000D01*
X95670952Y-101847619D01*
X95623333Y-101942857D01*
X95623333Y-102133333D01*
X95670952Y-102228571D01*
X95718571Y-102276190D01*
X95813809Y-102323809D01*
X96852380Y-110919047D02*
X96852380Y-110728571D01*
X96900000Y-110633333D01*
X96995238Y-110538095D01*
X97185714Y-110490476D01*
X97519047Y-110490476D01*
X97709523Y-110538095D01*
X97804761Y-110633333D01*
X97852380Y-110728571D01*
X97852380Y-110919047D01*
X97804761Y-111014285D01*
X97709523Y-111109523D01*
X97519047Y-111157142D01*
X97185714Y-111157142D01*
X96995238Y-111109523D01*
X96900000Y-111014285D01*
X96852380Y-110919047D01*
X97185714Y-110061904D02*
X98185714Y-110061904D01*
X97233333Y-110061904D02*
X97185714Y-109966666D01*
X97185714Y-109776190D01*
X97233333Y-109680952D01*
X97280952Y-109633333D01*
X97376190Y-109585714D01*
X97661904Y-109585714D01*
X97757142Y-109633333D01*
X97804761Y-109680952D01*
X97852380Y-109776190D01*
X97852380Y-109966666D01*
X97804761Y-110061904D01*
X97185714Y-109300000D02*
X97185714Y-108919047D01*
X96852380Y-109157142D02*
X97709523Y-109157142D01*
X97804761Y-109109523D01*
X97852380Y-109014285D01*
X97852380Y-108919047D01*
X97852380Y-108585714D02*
X97185714Y-108585714D01*
X96852380Y-108585714D02*
X96900000Y-108633333D01*
X96947619Y-108585714D01*
X96900000Y-108538095D01*
X96852380Y-108585714D01*
X96947619Y-108585714D01*
X97804761Y-107680952D02*
X97852380Y-107776190D01*
X97852380Y-107966666D01*
X97804761Y-108061904D01*
X97757142Y-108109523D01*
X97661904Y-108157142D01*
X97376190Y-108157142D01*
X97280952Y-108109523D01*
X97233333Y-108061904D01*
X97185714Y-107966666D01*
X97185714Y-107776190D01*
X97233333Y-107680952D01*
X97852380Y-106823809D02*
X97328571Y-106823809D01*
X97233333Y-106871428D01*
X97185714Y-106966666D01*
X97185714Y-107157142D01*
X97233333Y-107252380D01*
X97804761Y-106823809D02*
X97852380Y-106919047D01*
X97852380Y-107157142D01*
X97804761Y-107252380D01*
X97709523Y-107300000D01*
X97614285Y-107300000D01*
X97519047Y-107252380D01*
X97471428Y-107157142D01*
X97471428Y-106919047D01*
X97423809Y-106823809D01*
X97852380Y-106204761D02*
X97804761Y-106300000D01*
X97709523Y-106347619D01*
X96852380Y-106347619D01*
X97804761Y-105109523D02*
X97852380Y-104966666D01*
X97852380Y-104728571D01*
X97804761Y-104633333D01*
X97757142Y-104585714D01*
X97661904Y-104538095D01*
X97566666Y-104538095D01*
X97471428Y-104585714D01*
X97423809Y-104633333D01*
X97376190Y-104728571D01*
X97328571Y-104919047D01*
X97280952Y-105014285D01*
X97233333Y-105061904D01*
X97138095Y-105109523D01*
X97042857Y-105109523D01*
X96947619Y-105061904D01*
X96900000Y-105014285D01*
X96852380Y-104919047D01*
X96852380Y-104680952D01*
X96900000Y-104538095D01*
X97804761Y-103728571D02*
X97852380Y-103823809D01*
X97852380Y-104014285D01*
X97804761Y-104109523D01*
X97709523Y-104157142D01*
X97328571Y-104157142D01*
X97233333Y-104109523D01*
X97185714Y-104014285D01*
X97185714Y-103823809D01*
X97233333Y-103728571D01*
X97328571Y-103680952D01*
X97423809Y-103680952D01*
X97519047Y-104157142D01*
X97185714Y-103252380D02*
X97852380Y-103252380D01*
X97280952Y-103252380D02*
X97233333Y-103204761D01*
X97185714Y-103109523D01*
X97185714Y-102966666D01*
X97233333Y-102871428D01*
X97328571Y-102823809D01*
X97852380Y-102823809D01*
X97804761Y-102395238D02*
X97852380Y-102300000D01*
X97852380Y-102109523D01*
X97804761Y-102014285D01*
X97709523Y-101966666D01*
X97661904Y-101966666D01*
X97566666Y-102014285D01*
X97519047Y-102109523D01*
X97519047Y-102252380D01*
X97471428Y-102347619D01*
X97376190Y-102395238D01*
X97328571Y-102395238D01*
X97233333Y-102347619D01*
X97185714Y-102252380D01*
X97185714Y-102109523D01*
X97233333Y-102014285D01*
X97852380Y-101395238D02*
X97804761Y-101490476D01*
X97757142Y-101538095D01*
X97661904Y-101585714D01*
X97376190Y-101585714D01*
X97280952Y-101538095D01*
X97233333Y-101490476D01*
X97185714Y-101395238D01*
X97185714Y-101252380D01*
X97233333Y-101157142D01*
X97280952Y-101109523D01*
X97376190Y-101061904D01*
X97661904Y-101061904D01*
X97757142Y-101109523D01*
X97804761Y-101157142D01*
X97852380Y-101252380D01*
X97852380Y-101395238D01*
X97852380Y-100633333D02*
X97185714Y-100633333D01*
X97376190Y-100633333D02*
X97280952Y-100585714D01*
X97233333Y-100538095D01*
X97185714Y-100442857D01*
X97185714Y-100347619D01*
X99462380Y-107157142D02*
X98986190Y-107490476D01*
X99462380Y-107728571D02*
X98462380Y-107728571D01*
X98462380Y-107347619D01*
X98510000Y-107252380D01*
X98557619Y-107204761D01*
X98652857Y-107157142D01*
X98795714Y-107157142D01*
X98890952Y-107204761D01*
X98938571Y-107252380D01*
X98986190Y-107347619D01*
X98986190Y-107728571D01*
X99414761Y-106347619D02*
X99462380Y-106442857D01*
X99462380Y-106633333D01*
X99414761Y-106728571D01*
X99319523Y-106776190D01*
X98938571Y-106776190D01*
X98843333Y-106728571D01*
X98795714Y-106633333D01*
X98795714Y-106442857D01*
X98843333Y-106347619D01*
X98938571Y-106300000D01*
X99033809Y-106300000D01*
X99129047Y-106776190D01*
X98795714Y-105966666D02*
X99462380Y-105728571D01*
X98795714Y-105490476D01*
X98462380Y-104157142D02*
X98462380Y-104061904D01*
X98510000Y-103966666D01*
X98557619Y-103919047D01*
X98652857Y-103871428D01*
X98843333Y-103823809D01*
X99081428Y-103823809D01*
X99271904Y-103871428D01*
X99367142Y-103919047D01*
X99414761Y-103966666D01*
X99462380Y-104061904D01*
X99462380Y-104157142D01*
X99414761Y-104252380D01*
X99367142Y-104300000D01*
X99271904Y-104347619D01*
X99081428Y-104395238D01*
X98843333Y-104395238D01*
X98652857Y-104347619D01*
X98557619Y-104300000D01*
X98510000Y-104252380D01*
X98462380Y-104157142D01*
%TO.C,J2*%
X57454166Y-108522380D02*
X57454166Y-109236666D01*
X57406547Y-109379523D01*
X57311309Y-109474761D01*
X57168452Y-109522380D01*
X57073214Y-109522380D01*
X57882738Y-108617619D02*
X57930357Y-108570000D01*
X58025595Y-108522380D01*
X58263690Y-108522380D01*
X58358928Y-108570000D01*
X58406547Y-108617619D01*
X58454166Y-108712857D01*
X58454166Y-108808095D01*
X58406547Y-108950952D01*
X57835119Y-109522380D01*
X58454166Y-109522380D01*
%TO.C,R5*%
X65020833Y-105302380D02*
X64687500Y-104826190D01*
X64449404Y-105302380D02*
X64449404Y-104302380D01*
X64830357Y-104302380D01*
X64925595Y-104350000D01*
X64973214Y-104397619D01*
X65020833Y-104492857D01*
X65020833Y-104635714D01*
X64973214Y-104730952D01*
X64925595Y-104778571D01*
X64830357Y-104826190D01*
X64449404Y-104826190D01*
X65925595Y-104302380D02*
X65449404Y-104302380D01*
X65401785Y-104778571D01*
X65449404Y-104730952D01*
X65544642Y-104683333D01*
X65782738Y-104683333D01*
X65877976Y-104730952D01*
X65925595Y-104778571D01*
X65973214Y-104873809D01*
X65973214Y-105111904D01*
X65925595Y-105207142D01*
X65877976Y-105254761D01*
X65782738Y-105302380D01*
X65544642Y-105302380D01*
X65449404Y-105254761D01*
X65401785Y-105207142D01*
%TO.C,C4*%
X76070833Y-112977142D02*
X76023214Y-113024761D01*
X75880357Y-113072380D01*
X75785119Y-113072380D01*
X75642261Y-113024761D01*
X75547023Y-112929523D01*
X75499404Y-112834285D01*
X75451785Y-112643809D01*
X75451785Y-112500952D01*
X75499404Y-112310476D01*
X75547023Y-112215238D01*
X75642261Y-112120000D01*
X75785119Y-112072380D01*
X75880357Y-112072380D01*
X76023214Y-112120000D01*
X76070833Y-112167619D01*
X76927976Y-112405714D02*
X76927976Y-113072380D01*
X76689880Y-112024761D02*
X76451785Y-112739047D01*
X77070833Y-112739047D01*
%TO.C,J4*%
X59034880Y-122333333D02*
X59749166Y-122333333D01*
X59892023Y-122380952D01*
X59987261Y-122476190D01*
X60034880Y-122619047D01*
X60034880Y-122714285D01*
X59368214Y-121428571D02*
X60034880Y-121428571D01*
X58987261Y-121666666D02*
X59701547Y-121904761D01*
X59701547Y-121285714D01*
%TO.C,J6*%
X97391666Y-116587380D02*
X97391666Y-117301666D01*
X97344047Y-117444523D01*
X97248809Y-117539761D01*
X97105952Y-117587380D01*
X97010714Y-117587380D01*
X98296428Y-116587380D02*
X98105952Y-116587380D01*
X98010714Y-116635000D01*
X97963095Y-116682619D01*
X97867857Y-116825476D01*
X97820238Y-117015952D01*
X97820238Y-117396904D01*
X97867857Y-117492142D01*
X97915476Y-117539761D01*
X98010714Y-117587380D01*
X98201190Y-117587380D01*
X98296428Y-117539761D01*
X98344047Y-117492142D01*
X98391666Y-117396904D01*
X98391666Y-117158809D01*
X98344047Y-117063571D01*
X98296428Y-117015952D01*
X98201190Y-116968333D01*
X98010714Y-116968333D01*
X97915476Y-117015952D01*
X97867857Y-117063571D01*
X97820238Y-117158809D01*
%TO.C,C12*%
X100557142Y-115557142D02*
X100509523Y-115604761D01*
X100366666Y-115652380D01*
X100271428Y-115652380D01*
X100128571Y-115604761D01*
X100033333Y-115509523D01*
X99985714Y-115414285D01*
X99938095Y-115223809D01*
X99938095Y-115080952D01*
X99985714Y-114890476D01*
X100033333Y-114795238D01*
X100128571Y-114700000D01*
X100271428Y-114652380D01*
X100366666Y-114652380D01*
X100509523Y-114700000D01*
X100557142Y-114747619D01*
X101509523Y-115652380D02*
X100938095Y-115652380D01*
X101223809Y-115652380D02*
X101223809Y-114652380D01*
X101128571Y-114795238D01*
X101033333Y-114890476D01*
X100938095Y-114938095D01*
X101890476Y-114747619D02*
X101938095Y-114700000D01*
X102033333Y-114652380D01*
X102271428Y-114652380D01*
X102366666Y-114700000D01*
X102414285Y-114747619D01*
X102461904Y-114842857D01*
X102461904Y-114938095D01*
X102414285Y-115080952D01*
X101842857Y-115652380D01*
X102461904Y-115652380D01*
%TO.C,C11*%
X91737142Y-118042857D02*
X91784761Y-118090476D01*
X91832380Y-118233333D01*
X91832380Y-118328571D01*
X91784761Y-118471428D01*
X91689523Y-118566666D01*
X91594285Y-118614285D01*
X91403809Y-118661904D01*
X91260952Y-118661904D01*
X91070476Y-118614285D01*
X90975238Y-118566666D01*
X90880000Y-118471428D01*
X90832380Y-118328571D01*
X90832380Y-118233333D01*
X90880000Y-118090476D01*
X90927619Y-118042857D01*
X91832380Y-117090476D02*
X91832380Y-117661904D01*
X91832380Y-117376190D02*
X90832380Y-117376190D01*
X90975238Y-117471428D01*
X91070476Y-117566666D01*
X91118095Y-117661904D01*
X91832380Y-116138095D02*
X91832380Y-116709523D01*
X91832380Y-116423809D02*
X90832380Y-116423809D01*
X90975238Y-116519047D01*
X91070476Y-116614285D01*
X91118095Y-116709523D01*
%TO.C,D1*%
X96252380Y-114638095D02*
X95252380Y-114638095D01*
X95252380Y-114400000D01*
X95300000Y-114257142D01*
X95395238Y-114161904D01*
X95490476Y-114114285D01*
X95680952Y-114066666D01*
X95823809Y-114066666D01*
X96014285Y-114114285D01*
X96109523Y-114161904D01*
X96204761Y-114257142D01*
X96252380Y-114400000D01*
X96252380Y-114638095D01*
X96252380Y-113114285D02*
X96252380Y-113685714D01*
X96252380Y-113400000D02*
X95252380Y-113400000D01*
X95395238Y-113495238D01*
X95490476Y-113590476D01*
X95538095Y-113685714D01*
%TO.C,Y1*%
X55223809Y-107276190D02*
X55223809Y-107752380D01*
X54890476Y-106752380D02*
X55223809Y-107276190D01*
X55557142Y-106752380D01*
X56414285Y-107752380D02*
X55842857Y-107752380D01*
X56128571Y-107752380D02*
X56128571Y-106752380D01*
X56033333Y-106895238D01*
X55938095Y-106990476D01*
X55842857Y-107038095D01*
%TO.C,C9*%
X89337142Y-122066666D02*
X89384761Y-122114285D01*
X89432380Y-122257142D01*
X89432380Y-122352380D01*
X89384761Y-122495238D01*
X89289523Y-122590476D01*
X89194285Y-122638095D01*
X89003809Y-122685714D01*
X88860952Y-122685714D01*
X88670476Y-122638095D01*
X88575238Y-122590476D01*
X88480000Y-122495238D01*
X88432380Y-122352380D01*
X88432380Y-122257142D01*
X88480000Y-122114285D01*
X88527619Y-122066666D01*
X89432380Y-121590476D02*
X89432380Y-121400000D01*
X89384761Y-121304761D01*
X89337142Y-121257142D01*
X89194285Y-121161904D01*
X89003809Y-121114285D01*
X88622857Y-121114285D01*
X88527619Y-121161904D01*
X88480000Y-121209523D01*
X88432380Y-121304761D01*
X88432380Y-121495238D01*
X88480000Y-121590476D01*
X88527619Y-121638095D01*
X88622857Y-121685714D01*
X88860952Y-121685714D01*
X88956190Y-121638095D01*
X89003809Y-121590476D01*
X89051428Y-121495238D01*
X89051428Y-121304761D01*
X89003809Y-121209523D01*
X88956190Y-121161904D01*
X88860952Y-121114285D01*
D11*
%TO.C,IC2*%
X62260238Y-116474523D02*
X62260238Y-115204523D01*
X63590714Y-116353571D02*
X63530238Y-116414047D01*
X63348809Y-116474523D01*
X63227857Y-116474523D01*
X63046428Y-116414047D01*
X62925476Y-116293095D01*
X62865000Y-116172142D01*
X62804523Y-115930238D01*
X62804523Y-115748809D01*
X62865000Y-115506904D01*
X62925476Y-115385952D01*
X63046428Y-115265000D01*
X63227857Y-115204523D01*
X63348809Y-115204523D01*
X63530238Y-115265000D01*
X63590714Y-115325476D01*
X64074523Y-115325476D02*
X64135000Y-115265000D01*
X64255952Y-115204523D01*
X64558333Y-115204523D01*
X64679285Y-115265000D01*
X64739761Y-115325476D01*
X64800238Y-115446428D01*
X64800238Y-115567380D01*
X64739761Y-115748809D01*
X64014047Y-116474523D01*
X64800238Y-116474523D01*
D10*
%TO.C,R2*%
X81302380Y-106266666D02*
X80826190Y-106600000D01*
X81302380Y-106838095D02*
X80302380Y-106838095D01*
X80302380Y-106457142D01*
X80350000Y-106361904D01*
X80397619Y-106314285D01*
X80492857Y-106266666D01*
X80635714Y-106266666D01*
X80730952Y-106314285D01*
X80778571Y-106361904D01*
X80826190Y-106457142D01*
X80826190Y-106838095D01*
X80397619Y-105885714D02*
X80350000Y-105838095D01*
X80302380Y-105742857D01*
X80302380Y-105504761D01*
X80350000Y-105409523D01*
X80397619Y-105361904D01*
X80492857Y-105314285D01*
X80588095Y-105314285D01*
X80730952Y-105361904D01*
X81302380Y-105933333D01*
X81302380Y-105314285D01*
%TO.C,R3*%
X84333333Y-104352380D02*
X84000000Y-103876190D01*
X83761904Y-104352380D02*
X83761904Y-103352380D01*
X84142857Y-103352380D01*
X84238095Y-103400000D01*
X84285714Y-103447619D01*
X84333333Y-103542857D01*
X84333333Y-103685714D01*
X84285714Y-103780952D01*
X84238095Y-103828571D01*
X84142857Y-103876190D01*
X83761904Y-103876190D01*
X84666666Y-103352380D02*
X85285714Y-103352380D01*
X84952380Y-103733333D01*
X85095238Y-103733333D01*
X85190476Y-103780952D01*
X85238095Y-103828571D01*
X85285714Y-103923809D01*
X85285714Y-104161904D01*
X85238095Y-104257142D01*
X85190476Y-104304761D01*
X85095238Y-104352380D01*
X84809523Y-104352380D01*
X84714285Y-104304761D01*
X84666666Y-104257142D01*
D11*
%TO.C,IC4*%
X85760238Y-115274523D02*
X85760238Y-114004523D01*
X87090714Y-115153571D02*
X87030238Y-115214047D01*
X86848809Y-115274523D01*
X86727857Y-115274523D01*
X86546428Y-115214047D01*
X86425476Y-115093095D01*
X86365000Y-114972142D01*
X86304523Y-114730238D01*
X86304523Y-114548809D01*
X86365000Y-114306904D01*
X86425476Y-114185952D01*
X86546428Y-114065000D01*
X86727857Y-114004523D01*
X86848809Y-114004523D01*
X87030238Y-114065000D01*
X87090714Y-114125476D01*
X88179285Y-114427857D02*
X88179285Y-115274523D01*
X87876904Y-113944047D02*
X87574523Y-114851190D01*
X88360714Y-114851190D01*
D10*
%TO.C,R6*%
X62802380Y-110366666D02*
X62326190Y-110700000D01*
X62802380Y-110938095D02*
X61802380Y-110938095D01*
X61802380Y-110557142D01*
X61850000Y-110461904D01*
X61897619Y-110414285D01*
X61992857Y-110366666D01*
X62135714Y-110366666D01*
X62230952Y-110414285D01*
X62278571Y-110461904D01*
X62326190Y-110557142D01*
X62326190Y-110938095D01*
X61802380Y-109509523D02*
X61802380Y-109700000D01*
X61850000Y-109795238D01*
X61897619Y-109842857D01*
X62040476Y-109938095D01*
X62230952Y-109985714D01*
X62611904Y-109985714D01*
X62707142Y-109938095D01*
X62754761Y-109890476D01*
X62802380Y-109795238D01*
X62802380Y-109604761D01*
X62754761Y-109509523D01*
X62707142Y-109461904D01*
X62611904Y-109414285D01*
X62373809Y-109414285D01*
X62278571Y-109461904D01*
X62230952Y-109509523D01*
X62183333Y-109604761D01*
X62183333Y-109795238D01*
X62230952Y-109890476D01*
X62278571Y-109938095D01*
X62373809Y-109985714D01*
%TO.C,J5*%
X93007380Y-101833333D02*
X93721666Y-101833333D01*
X93864523Y-101880952D01*
X93959761Y-101976190D01*
X94007380Y-102119047D01*
X94007380Y-102214285D01*
X93007380Y-100880952D02*
X93007380Y-101357142D01*
X93483571Y-101404761D01*
X93435952Y-101357142D01*
X93388333Y-101261904D01*
X93388333Y-101023809D01*
X93435952Y-100928571D01*
X93483571Y-100880952D01*
X93578809Y-100833333D01*
X93816904Y-100833333D01*
X93912142Y-100880952D01*
X93959761Y-100928571D01*
X94007380Y-101023809D01*
X94007380Y-101261904D01*
X93959761Y-101357142D01*
X93912142Y-101404761D01*
%TO.C,C2*%
X90637142Y-106066666D02*
X90684761Y-106114285D01*
X90732380Y-106257142D01*
X90732380Y-106352380D01*
X90684761Y-106495238D01*
X90589523Y-106590476D01*
X90494285Y-106638095D01*
X90303809Y-106685714D01*
X90160952Y-106685714D01*
X89970476Y-106638095D01*
X89875238Y-106590476D01*
X89780000Y-106495238D01*
X89732380Y-106352380D01*
X89732380Y-106257142D01*
X89780000Y-106114285D01*
X89827619Y-106066666D01*
X89827619Y-105685714D02*
X89780000Y-105638095D01*
X89732380Y-105542857D01*
X89732380Y-105304761D01*
X89780000Y-105209523D01*
X89827619Y-105161904D01*
X89922857Y-105114285D01*
X90018095Y-105114285D01*
X90160952Y-105161904D01*
X90732380Y-105733333D01*
X90732380Y-105114285D01*
D11*
%TO.C,IC1*%
X90260238Y-109474523D02*
X90260238Y-108204523D01*
X91590714Y-109353571D02*
X91530238Y-109414047D01*
X91348809Y-109474523D01*
X91227857Y-109474523D01*
X91046428Y-109414047D01*
X90925476Y-109293095D01*
X90865000Y-109172142D01*
X90804523Y-108930238D01*
X90804523Y-108748809D01*
X90865000Y-108506904D01*
X90925476Y-108385952D01*
X91046428Y-108265000D01*
X91227857Y-108204523D01*
X91348809Y-108204523D01*
X91530238Y-108265000D01*
X91590714Y-108325476D01*
X92800238Y-109474523D02*
X92074523Y-109474523D01*
X92437380Y-109474523D02*
X92437380Y-108204523D01*
X92316428Y-108385952D01*
X92195476Y-108506904D01*
X92074523Y-108567380D01*
D10*
%TO.C,J1*%
X84852380Y-122333333D02*
X85566666Y-122333333D01*
X85709523Y-122380952D01*
X85804761Y-122476190D01*
X85852380Y-122619047D01*
X85852380Y-122714285D01*
X85852380Y-121333333D02*
X85852380Y-121904761D01*
X85852380Y-121619047D02*
X84852380Y-121619047D01*
X84995238Y-121714285D01*
X85090476Y-121809523D01*
X85138095Y-121904761D01*
%TO.C,R4*%
X86333333Y-104352380D02*
X86000000Y-103876190D01*
X85761904Y-104352380D02*
X85761904Y-103352380D01*
X86142857Y-103352380D01*
X86238095Y-103400000D01*
X86285714Y-103447619D01*
X86333333Y-103542857D01*
X86333333Y-103685714D01*
X86285714Y-103780952D01*
X86238095Y-103828571D01*
X86142857Y-103876190D01*
X85761904Y-103876190D01*
X87190476Y-103685714D02*
X87190476Y-104352380D01*
X86952380Y-103304761D02*
X86714285Y-104019047D01*
X87333333Y-104019047D01*
%TO.C,C1*%
X83433333Y-115357142D02*
X83385714Y-115404761D01*
X83242857Y-115452380D01*
X83147619Y-115452380D01*
X83004761Y-115404761D01*
X82909523Y-115309523D01*
X82861904Y-115214285D01*
X82814285Y-115023809D01*
X82814285Y-114880952D01*
X82861904Y-114690476D01*
X82909523Y-114595238D01*
X83004761Y-114500000D01*
X83147619Y-114452380D01*
X83242857Y-114452380D01*
X83385714Y-114500000D01*
X83433333Y-114547619D01*
X84385714Y-115452380D02*
X83814285Y-115452380D01*
X84100000Y-115452380D02*
X84100000Y-114452380D01*
X84004761Y-114595238D01*
X83909523Y-114690476D01*
X83814285Y-114738095D01*
%TO.C,R7*%
X100933333Y-113252380D02*
X100600000Y-112776190D01*
X100361904Y-113252380D02*
X100361904Y-112252380D01*
X100742857Y-112252380D01*
X100838095Y-112300000D01*
X100885714Y-112347619D01*
X100933333Y-112442857D01*
X100933333Y-112585714D01*
X100885714Y-112680952D01*
X100838095Y-112728571D01*
X100742857Y-112776190D01*
X100361904Y-112776190D01*
X101266666Y-112252380D02*
X101933333Y-112252380D01*
X101504761Y-113252380D01*
%TO.C,C7*%
X61637142Y-101066666D02*
X61684761Y-101114285D01*
X61732380Y-101257142D01*
X61732380Y-101352380D01*
X61684761Y-101495238D01*
X61589523Y-101590476D01*
X61494285Y-101638095D01*
X61303809Y-101685714D01*
X61160952Y-101685714D01*
X60970476Y-101638095D01*
X60875238Y-101590476D01*
X60780000Y-101495238D01*
X60732380Y-101352380D01*
X60732380Y-101257142D01*
X60780000Y-101114285D01*
X60827619Y-101066666D01*
X60732380Y-100733333D02*
X60732380Y-100066666D01*
X61732380Y-100495238D01*
D11*
%TO.C,IC3*%
X78860238Y-115374523D02*
X78860238Y-114104523D01*
X80190714Y-115253571D02*
X80130238Y-115314047D01*
X79948809Y-115374523D01*
X79827857Y-115374523D01*
X79646428Y-115314047D01*
X79525476Y-115193095D01*
X79465000Y-115072142D01*
X79404523Y-114830238D01*
X79404523Y-114648809D01*
X79465000Y-114406904D01*
X79525476Y-114285952D01*
X79646428Y-114165000D01*
X79827857Y-114104523D01*
X79948809Y-114104523D01*
X80130238Y-114165000D01*
X80190714Y-114225476D01*
X80614047Y-114104523D02*
X81400238Y-114104523D01*
X80976904Y-114588333D01*
X81158333Y-114588333D01*
X81279285Y-114648809D01*
X81339761Y-114709285D01*
X81400238Y-114830238D01*
X81400238Y-115132619D01*
X81339761Y-115253571D01*
X81279285Y-115314047D01*
X81158333Y-115374523D01*
X80795476Y-115374523D01*
X80674523Y-115314047D01*
X80614047Y-115253571D01*
D10*
%TO.C,C6*%
X55977142Y-101966666D02*
X56024761Y-102014285D01*
X56072380Y-102157142D01*
X56072380Y-102252380D01*
X56024761Y-102395238D01*
X55929523Y-102490476D01*
X55834285Y-102538095D01*
X55643809Y-102585714D01*
X55500952Y-102585714D01*
X55310476Y-102538095D01*
X55215238Y-102490476D01*
X55120000Y-102395238D01*
X55072380Y-102252380D01*
X55072380Y-102157142D01*
X55120000Y-102014285D01*
X55167619Y-101966666D01*
X55072380Y-101109523D02*
X55072380Y-101300000D01*
X55120000Y-101395238D01*
X55167619Y-101442857D01*
X55310476Y-101538095D01*
X55500952Y-101585714D01*
X55881904Y-101585714D01*
X55977142Y-101538095D01*
X56024761Y-101490476D01*
X56072380Y-101395238D01*
X56072380Y-101204761D01*
X56024761Y-101109523D01*
X55977142Y-101061904D01*
X55881904Y-101014285D01*
X55643809Y-101014285D01*
X55548571Y-101061904D01*
X55500952Y-101109523D01*
X55453333Y-101204761D01*
X55453333Y-101395238D01*
X55500952Y-101490476D01*
X55548571Y-101538095D01*
X55643809Y-101585714D01*
%TO.C,C5*%
X61833333Y-103457142D02*
X61785714Y-103504761D01*
X61642857Y-103552380D01*
X61547619Y-103552380D01*
X61404761Y-103504761D01*
X61309523Y-103409523D01*
X61261904Y-103314285D01*
X61214285Y-103123809D01*
X61214285Y-102980952D01*
X61261904Y-102790476D01*
X61309523Y-102695238D01*
X61404761Y-102600000D01*
X61547619Y-102552380D01*
X61642857Y-102552380D01*
X61785714Y-102600000D01*
X61833333Y-102647619D01*
X62738095Y-102552380D02*
X62261904Y-102552380D01*
X62214285Y-103028571D01*
X62261904Y-102980952D01*
X62357142Y-102933333D01*
X62595238Y-102933333D01*
X62690476Y-102980952D01*
X62738095Y-103028571D01*
X62785714Y-103123809D01*
X62785714Y-103361904D01*
X62738095Y-103457142D01*
X62690476Y-103504761D01*
X62595238Y-103552380D01*
X62357142Y-103552380D01*
X62261904Y-103504761D01*
X62214285Y-103457142D01*
%TO.C,C8*%
X70733333Y-120237142D02*
X70685714Y-120284761D01*
X70542857Y-120332380D01*
X70447619Y-120332380D01*
X70304761Y-120284761D01*
X70209523Y-120189523D01*
X70161904Y-120094285D01*
X70114285Y-119903809D01*
X70114285Y-119760952D01*
X70161904Y-119570476D01*
X70209523Y-119475238D01*
X70304761Y-119380000D01*
X70447619Y-119332380D01*
X70542857Y-119332380D01*
X70685714Y-119380000D01*
X70733333Y-119427619D01*
X71304761Y-119760952D02*
X71209523Y-119713333D01*
X71161904Y-119665714D01*
X71114285Y-119570476D01*
X71114285Y-119522857D01*
X71161904Y-119427619D01*
X71209523Y-119380000D01*
X71304761Y-119332380D01*
X71495238Y-119332380D01*
X71590476Y-119380000D01*
X71638095Y-119427619D01*
X71685714Y-119522857D01*
X71685714Y-119570476D01*
X71638095Y-119665714D01*
X71590476Y-119713333D01*
X71495238Y-119760952D01*
X71304761Y-119760952D01*
X71209523Y-119808571D01*
X71161904Y-119856190D01*
X71114285Y-119951428D01*
X71114285Y-120141904D01*
X71161904Y-120237142D01*
X71209523Y-120284761D01*
X71304761Y-120332380D01*
X71495238Y-120332380D01*
X71590476Y-120284761D01*
X71638095Y-120237142D01*
X71685714Y-120141904D01*
X71685714Y-119951428D01*
X71638095Y-119856190D01*
X71590476Y-119808571D01*
X71495238Y-119760952D01*
%TO.C,C3*%
X74057142Y-117866666D02*
X74104761Y-117914285D01*
X74152380Y-118057142D01*
X74152380Y-118152380D01*
X74104761Y-118295238D01*
X74009523Y-118390476D01*
X73914285Y-118438095D01*
X73723809Y-118485714D01*
X73580952Y-118485714D01*
X73390476Y-118438095D01*
X73295238Y-118390476D01*
X73200000Y-118295238D01*
X73152380Y-118152380D01*
X73152380Y-118057142D01*
X73200000Y-117914285D01*
X73247619Y-117866666D01*
X73152380Y-117533333D02*
X73152380Y-116914285D01*
X73533333Y-117247619D01*
X73533333Y-117104761D01*
X73580952Y-117009523D01*
X73628571Y-116961904D01*
X73723809Y-116914285D01*
X73961904Y-116914285D01*
X74057142Y-116961904D01*
X74104761Y-117009523D01*
X74152380Y-117104761D01*
X74152380Y-117390476D01*
X74104761Y-117485714D01*
X74057142Y-117533333D01*
%TO.C,J3*%
X66972380Y-101833333D02*
X67686666Y-101833333D01*
X67829523Y-101880952D01*
X67924761Y-101976190D01*
X67972380Y-102119047D01*
X67972380Y-102214285D01*
X66972380Y-101452380D02*
X66972380Y-100833333D01*
X67353333Y-101166666D01*
X67353333Y-101023809D01*
X67400952Y-100928571D01*
X67448571Y-100880952D01*
X67543809Y-100833333D01*
X67781904Y-100833333D01*
X67877142Y-100880952D01*
X67924761Y-100928571D01*
X67972380Y-101023809D01*
X67972380Y-101309523D01*
X67924761Y-101404761D01*
X67877142Y-101452380D01*
%TO.C,C10*%
X80757142Y-120257142D02*
X80709523Y-120304761D01*
X80566666Y-120352380D01*
X80471428Y-120352380D01*
X80328571Y-120304761D01*
X80233333Y-120209523D01*
X80185714Y-120114285D01*
X80138095Y-119923809D01*
X80138095Y-119780952D01*
X80185714Y-119590476D01*
X80233333Y-119495238D01*
X80328571Y-119400000D01*
X80471428Y-119352380D01*
X80566666Y-119352380D01*
X80709523Y-119400000D01*
X80757142Y-119447619D01*
X81709523Y-120352380D02*
X81138095Y-120352380D01*
X81423809Y-120352380D02*
X81423809Y-119352380D01*
X81328571Y-119495238D01*
X81233333Y-119590476D01*
X81138095Y-119638095D01*
X82328571Y-119352380D02*
X82423809Y-119352380D01*
X82519047Y-119400000D01*
X82566666Y-119447619D01*
X82614285Y-119542857D01*
X82661904Y-119733333D01*
X82661904Y-119971428D01*
X82614285Y-120161904D01*
X82566666Y-120257142D01*
X82519047Y-120304761D01*
X82423809Y-120352380D01*
X82328571Y-120352380D01*
X82233333Y-120304761D01*
X82185714Y-120257142D01*
X82138095Y-120161904D01*
X82090476Y-119971428D01*
X82090476Y-119733333D01*
X82138095Y-119542857D01*
X82185714Y-119447619D01*
X82233333Y-119400000D01*
X82328571Y-119352380D01*
%TO.C,R1*%
X76233333Y-110102380D02*
X75900000Y-109626190D01*
X75661904Y-110102380D02*
X75661904Y-109102380D01*
X76042857Y-109102380D01*
X76138095Y-109150000D01*
X76185714Y-109197619D01*
X76233333Y-109292857D01*
X76233333Y-109435714D01*
X76185714Y-109530952D01*
X76138095Y-109578571D01*
X76042857Y-109626190D01*
X75661904Y-109626190D01*
X77185714Y-110102380D02*
X76614285Y-110102380D01*
X76900000Y-110102380D02*
X76900000Y-109102380D01*
X76804761Y-109245238D01*
X76709523Y-109340476D01*
X76614285Y-109388095D01*
D12*
%TO.C,J2*%
X56457500Y-112670000D02*
X56457500Y-120350000D01*
X56457500Y-120350000D02*
X59117500Y-120350000D01*
X56457500Y-111400000D02*
X56457500Y-110070000D01*
X56457500Y-110070000D02*
X57787500Y-110070000D01*
X59117500Y-112670000D02*
X59117500Y-120350000D01*
X56457500Y-112670000D02*
X59117500Y-112670000D01*
%TO.C,R5*%
X65414564Y-103935000D02*
X64960436Y-103935000D01*
X65414564Y-102465000D02*
X64960436Y-102465000D01*
%TO.C,C4*%
X75976248Y-113565000D02*
X76498752Y-113565000D01*
X75976248Y-115035000D02*
X76498752Y-115035000D01*
%TO.C,J4*%
X63182500Y-120670000D02*
X73402500Y-120670000D01*
X63182500Y-123330000D02*
X73402500Y-123330000D01*
X63182500Y-123330000D02*
X63182500Y-120670000D01*
X61912500Y-123330000D02*
X60582500Y-123330000D01*
X73402500Y-123330000D02*
X73402500Y-120670000D01*
X60582500Y-123330000D02*
X60582500Y-122000000D01*
%TO.C,J6*%
X94475000Y-117635000D02*
X94075000Y-117185000D01*
X94075000Y-117185000D02*
X94875000Y-117185000D01*
X99625000Y-120435000D02*
X99925000Y-120435000D01*
X94875000Y-117185000D02*
X94475000Y-117635000D01*
X91625000Y-120435000D02*
X91625000Y-118885000D01*
X91925000Y-123235000D02*
X91925000Y-120435000D01*
X99925000Y-120435000D02*
X99925000Y-118885000D01*
X91625000Y-120435000D02*
X91925000Y-120435000D01*
X99625000Y-123235000D02*
X99625000Y-120435000D01*
%TO.C,C12*%
X98261252Y-115735000D02*
X97738748Y-115735000D01*
X98261252Y-114265000D02*
X97738748Y-114265000D01*
%TO.C,C11*%
X90435000Y-117138748D02*
X90435000Y-117661252D01*
X88965000Y-117138748D02*
X88965000Y-117661252D01*
%TO.C,D1*%
X94960000Y-113900000D02*
X94960000Y-112100000D01*
X94960000Y-113900000D02*
X94960000Y-114700000D01*
X91840000Y-113900000D02*
X91840000Y-113100000D01*
X91840000Y-113900000D02*
X91840000Y-114700000D01*
%TO.C,Y1*%
X56500000Y-107550000D02*
X60500000Y-107550000D01*
X56500000Y-104250000D02*
X56500000Y-107550000D01*
%TO.C,C9*%
X88035000Y-121638748D02*
X88035000Y-122161252D01*
X86565000Y-121638748D02*
X86565000Y-122161252D01*
D13*
%TO.C,IC2*%
X71637500Y-114550000D02*
X65337500Y-114550000D01*
X65337500Y-114550000D02*
X65337500Y-108250000D01*
X65337500Y-108250000D02*
X71637500Y-108250000D01*
X71637500Y-108250000D02*
X71637500Y-114550000D01*
D14*
X64112500Y-107400000D02*
G75*
G03*
X64112500Y-107400000I-200000J0D01*
G01*
D12*
%TO.C,R2*%
X81765000Y-106327064D02*
X81765000Y-105872936D01*
X83235000Y-106327064D02*
X83235000Y-105872936D01*
%TO.C,R3*%
X85235000Y-106327064D02*
X85235000Y-105872936D01*
X83765000Y-106327064D02*
X83765000Y-105872936D01*
D13*
%TO.C,IC4*%
X88250000Y-117275000D02*
X88250000Y-117925000D01*
X88300000Y-115775000D02*
X88300000Y-116925000D01*
X88250000Y-117925000D02*
X85350000Y-117925000D01*
X85350000Y-117275000D02*
X88250000Y-117275000D01*
X85350000Y-117925000D02*
X85350000Y-117275000D01*
D12*
%TO.C,R6*%
X61435000Y-109972936D02*
X61435000Y-110427064D01*
X59965000Y-109972936D02*
X59965000Y-110427064D01*
%TO.C,J5*%
X89955000Y-100170000D02*
X84815000Y-100170000D01*
X91225000Y-100170000D02*
X92555000Y-100170000D01*
X92555000Y-100170000D02*
X92555000Y-101500000D01*
X89955000Y-102830000D02*
X84815000Y-102830000D01*
X89955000Y-100170000D02*
X89955000Y-102830000D01*
X84815000Y-100170000D02*
X84815000Y-102830000D01*
%TO.C,C2*%
X89335000Y-105638748D02*
X89335000Y-106161252D01*
X87865000Y-105638748D02*
X87865000Y-106161252D01*
D15*
%TO.C,IC1*%
X82587500Y-111725000D02*
X82587500Y-111725000D01*
X89587500Y-111725000D02*
X89587500Y-111725000D01*
X89587500Y-110325000D02*
X89587500Y-110325000D01*
D13*
X83087500Y-113725000D02*
X83087500Y-113725000D01*
D15*
X82587500Y-110325000D02*
X82587500Y-110325000D01*
X89587500Y-111725000D02*
X89587500Y-110325000D01*
D13*
X83087500Y-113525000D02*
X83087500Y-113525000D01*
D15*
X82587500Y-111725000D02*
X82587500Y-110325000D01*
X89587500Y-110325000D02*
X89587500Y-111725000D01*
D13*
X83087500Y-113725000D02*
X83087500Y-113725000D01*
D15*
X82587500Y-110325000D02*
X82587500Y-111725000D01*
D13*
X83087500Y-113725000D02*
G75*
G03*
X83087500Y-113525000I0J100000D01*
G01*
X83087500Y-113525000D02*
G75*
G03*
X83087500Y-113725000I0J-100000D01*
G01*
X83087500Y-113725000D02*
G75*
G03*
X83087500Y-113525000I0J100000D01*
G01*
D12*
%TO.C,J1*%
X76970000Y-120670000D02*
X84650000Y-120670000D01*
X76970000Y-123330000D02*
X76970000Y-120670000D01*
X84650000Y-123330000D02*
X84650000Y-120670000D01*
X75700000Y-123330000D02*
X74370000Y-123330000D01*
X74370000Y-123330000D02*
X74370000Y-122000000D01*
X76970000Y-123330000D02*
X84650000Y-123330000D01*
%TO.C,R4*%
X85765000Y-106327064D02*
X85765000Y-105872936D01*
X87235000Y-106327064D02*
X87235000Y-105872936D01*
%TO.C,C1*%
X82965000Y-117661252D02*
X82965000Y-117138748D01*
X84435000Y-117661252D02*
X84435000Y-117138748D01*
%TO.C,R7*%
X98427064Y-111965000D02*
X97972936Y-111965000D01*
X98427064Y-113435000D02*
X97972936Y-113435000D01*
%TO.C,C7*%
X58865000Y-101501248D02*
X58865000Y-102023752D01*
X60335000Y-101501248D02*
X60335000Y-102023752D01*
D13*
%TO.C,IC3*%
X77037500Y-117925000D02*
X77037500Y-117275000D01*
X77037500Y-117275000D02*
X79937500Y-117275000D01*
X79937500Y-117925000D02*
X77037500Y-117925000D01*
X79937500Y-117275000D02*
X79937500Y-117925000D01*
X76987500Y-119425000D02*
X76987500Y-118275000D01*
D12*
%TO.C,C6*%
X58035000Y-102061252D02*
X58035000Y-101538748D01*
X56565000Y-102061252D02*
X56565000Y-101538748D01*
%TO.C,C5*%
X61265000Y-105761252D02*
X61265000Y-105238748D01*
X62735000Y-105761252D02*
X62735000Y-105238748D01*
%TO.C,C8*%
X71161252Y-118935000D02*
X70638748Y-118935000D01*
X71161252Y-117465000D02*
X70638748Y-117465000D01*
%TO.C,C3*%
X74565000Y-117438748D02*
X74565000Y-117961252D01*
X76035000Y-117438748D02*
X76035000Y-117961252D01*
%TO.C,J3*%
X68520000Y-102830000D02*
X68520000Y-101500000D01*
X71120000Y-100170000D02*
X83880000Y-100170000D01*
X69850000Y-102830000D02*
X68520000Y-102830000D01*
X71120000Y-102830000D02*
X71120000Y-100170000D01*
X71120000Y-102830000D02*
X83880000Y-102830000D01*
X83880000Y-102830000D02*
X83880000Y-100170000D01*
%TO.C,C10*%
X82135000Y-117661252D02*
X82135000Y-117138748D01*
X80665000Y-117661252D02*
X80665000Y-117138748D01*
%TO.C,R1*%
X76227064Y-107265000D02*
X75772936Y-107265000D01*
X76227064Y-108735000D02*
X75772936Y-108735000D01*
%TD*%
M02*
