M48
; DRILL file {KiCad (6.0.1)} date Thu Jan 27 16:39:28 2022
; FORMAT={-:-/ absolute / inch / decimal}
; #@! TF.CreationDate,2022-01-27T16:39:28-05:00
; #@! TF.GenerationSoftware,Kicad,Pcbnew,(6.0.1)
; #@! TF.FileFunction,MixedPlating,1,2
FMAT,2
INCH
; #@! TA.AperFunction,Plated,PTH,ViaDrill
T1C0.0157
; #@! TA.AperFunction,Plated,PTH,ComponentDrill
T2C0.0256
; #@! TA.AperFunction,Plated,PTH,ComponentDrill
T3C0.0276
; #@! TA.AperFunction,Plated,PTH,ComponentDrill
T4C0.0394
; #@! TA.AperFunction,NonPlated,NPTH,ComponentDrill
T5C0.1181
%
G90
G05
T1
X2.4449Y-4.0236
X2.5984Y-4.3701
X2.7638Y-4.3386
X2.7874Y-4.3031
X2.9567Y-4.3071
X3.0138Y-4.5807
X3.0276Y-4.189
X3.0827Y-4.311
X3.0906Y-4.5
X3.121Y-4.3829
X3.1299Y-4.4409
X3.1535Y-4.3031
X3.1986Y-4.2183
X3.2205Y-4.4134
X3.3898Y-4.4921
X3.4685Y-4.2677
X3.4961Y-4.4921
X3.4961Y-4.7598
X3.6378Y-4.1299
X3.6693Y-4.3819
X3.7284Y-4.5827
X3.8228Y-4.6024
T4
X2.2751Y-4.3858
X2.2751Y-4.4858
X2.2751Y-4.5858
X2.2751Y-4.6858
X2.4375Y-4.8031
X2.5375Y-4.8031
X2.6375Y-4.8031
X2.7375Y-4.8031
X2.75Y-3.9961
X2.8375Y-4.8031
X2.85Y-3.9961
X2.95Y-3.9961
X2.9803Y-4.8031
X3.05Y-3.9961
X3.0803Y-4.8031
X3.15Y-3.9961
X3.1803Y-4.8031
X3.25Y-3.9961
X3.2803Y-4.8031
X3.3915Y-3.9961
X3.4915Y-3.9961
X3.5915Y-3.9961
T5
X2.0551Y-4.0669
X2.0591Y-4.748
X4.0827Y-4.0591
X4.0827Y-4.748
T2
G00X3.6754Y-4.6778
M15
G01X3.6754Y-4.662
M16
G05
G00X3.8659Y-4.6778
M15
G01X3.8659Y-4.662
M16
G05
T3
G00X3.6632Y-4.7978
M15
G01X3.6632Y-4.7781
M16
G05
G00X3.8781Y-4.7978
M15
G01X3.8781Y-4.7781
M16
G05
T0
M30
